<svg width="16" height="16" viewBox="0 0 16 16" fill="none" xmlns="http://www.w3.org/2000/svg">
<path d="M15.4569 7.79774C15.435 7.74837 14.9056 6.57399 13.7287 5.39712C12.1606 3.82899 10.18 3.00024 7.99999 3.00024C5.81999 3.00024 3.83937 3.82899 2.27124 5.39712C1.09437 6.57399 0.562494 7.75024 0.543119 7.79774C0.51469 7.86169 0.5 7.93089 0.5 8.00087C0.5 8.07085 0.51469 8.14005 0.543119 8.20399C0.564994 8.25337 1.09437 9.42712 2.27124 10.604C3.83937 12.1715 5.81999 13.0002 7.99999 13.0002C10.18 13.0002 12.1606 12.1715 13.7287 10.604C14.9056 9.42712 15.435 8.25337 15.4569 8.20399C15.4853 8.14005 15.5 8.07085 15.5 8.00087C15.5 7.93089 15.4853 7.86169 15.4569 7.79774ZM7.99999 12.0002C6.07624 12.0002 4.39562 11.3009 3.00437 9.92212C2.43352 9.35443 1.94786 8.70709 1.56249 8.00024C1.94776 7.29333 2.43343 6.64598 3.00437 6.07837C4.39562 4.69962 6.07624 4.00024 7.99999 4.00024C9.92374 4.00024 11.6044 4.69962 12.9956 6.07837C13.5676 6.64584 14.0543 7.29319 14.4406 8.00024C13.99 8.84149 12.0269 12.0002 7.99999 12.0002ZM7.99999 5.00024C7.40665 5.00024 6.82663 5.17619 6.33328 5.50584C5.83994 5.83548 5.45542 6.30402 5.22836 6.85219C5.00129 7.40037 4.94188 8.00357 5.05764 8.58552C5.17339 9.16746 5.45912 9.70201 5.87867 10.1216C6.29823 10.5411 6.83278 10.8268 7.41472 10.9426C7.99667 11.0584 8.59987 10.9989 9.14804 10.7719C9.69622 10.5448 10.1648 10.1603 10.4944 9.66695C10.824 9.17361 11 8.59359 11 8.00024C10.9992 7.20485 10.6828 6.44227 10.1204 5.87984C9.55797 5.31741 8.79539 5.00107 7.99999 5.00024ZM7.99999 10.0002C7.60443 10.0002 7.21775 9.88295 6.88885 9.66318C6.55996 9.44342 6.30361 9.13106 6.15224 8.76561C6.00086 8.40016 5.96125 7.99803 6.03842 7.61006C6.11559 7.2221 6.30608 6.86574 6.58578 6.58603C6.86549 6.30633 7.22185 6.11584 7.60981 6.03867C7.99778 5.9615 8.39991 6.00111 8.76536 6.15248C9.13081 6.30386 9.44317 6.56021 9.66293 6.8891C9.8827 7.218 9.99999 7.60468 9.99999 8.00024C9.99999 8.53068 9.78928 9.03938 9.41421 9.41446C9.03913 9.78953 8.53043 10.0002 7.99999 10.0002Z" fill="#343330"/>
</svg>
