<svg width="61" height="61" viewBox="0 0 61 61" fill="none" xmlns="http://www.w3.org/2000/svg">
<rect width="60" height="60" transform="translate(0.399994 0.5)" fill="#E1F7E3"/>
<path d="M26.4 17.1667C22.9066 17.1667 20.0666 20.0067 20.0666 23.5C20.0666 26.9267 22.7466 29.7 26.24 29.82C26.3466 29.8067 26.4533 29.8067 26.5333 29.82C26.56 29.82 26.5733 29.82 26.6 29.82C26.6133 29.82 26.6133 29.82 26.6266 29.82C30.04 29.7 32.72 26.9267 32.7333 23.5C32.7333 20.0067 29.8933 17.1667 26.4 17.1667Z" fill="#03A900"/>
<path d="M33.1733 33.3665C29.4533 30.8865 23.3866 30.8865 19.6399 33.3665C17.9466 34.4999 17.0133 36.0332 17.0133 37.6732C17.0133 39.3132 17.9466 40.8332 19.6266 41.9532C21.4933 43.2065 23.9466 43.8332 26.3999 43.8332C28.8533 43.8332 31.3066 43.2065 33.1733 41.9532C34.8533 40.8199 35.7866 39.2999 35.7866 37.6465C35.7733 36.0065 34.8533 34.4865 33.1733 33.3665Z" fill="#03A900"/>
<path d="M41.0533 24.2868C41.2667 26.8735 39.4267 29.1402 36.88 29.4468C36.8667 29.4468 36.8667 29.4468 36.8533 29.4468H36.8133C36.7333 29.4468 36.6533 29.4468 36.5867 29.4735C35.2933 29.5402 34.1067 29.1268 33.2133 28.3668C34.5867 27.1402 35.3733 25.3002 35.2133 23.3002C35.12 22.2202 34.7467 21.2335 34.1867 20.3935C34.6933 20.1402 35.28 19.9802 35.88 19.9268C38.4934 19.7002 40.8267 21.6468 41.0533 24.2868Z" fill="#03A900"/>
<path d="M43.72 36.6199C43.6133 37.9132 42.7866 39.0332 41.4 39.7932C40.0666 40.5265 38.3866 40.8732 36.72 40.8332C37.68 39.9665 38.24 38.8865 38.3466 37.7399C38.48 36.0865 37.6933 34.4999 36.12 33.2332C35.2266 32.5265 34.1866 31.9665 33.0533 31.5532C36 30.6999 39.7066 31.2732 41.9866 33.1132C43.2133 34.0999 43.84 35.3399 43.72 36.6199Z" fill="#03A900"/>
</svg>
