<svg width="60" height="61" viewBox="0 0 60 61" fill="none" xmlns="http://www.w3.org/2000/svg">
<rect width="60" height="60" transform="translate(0 0.5)" fill="#1D1D1D" fill-opacity="0.1"/>
<path d="M26 17.1667C22.5066 17.1667 19.6666 20.0067 19.6666 23.5C19.6666 26.9267 22.3466 29.7 25.84 29.82C25.9466 29.8067 26.0533 29.8067 26.1333 29.82C26.16 29.82 26.1733 29.82 26.2 29.82C26.2133 29.82 26.2133 29.82 26.2266 29.82C29.64 29.7 32.32 26.9267 32.3333 23.5C32.3333 20.0067 29.4933 17.1667 26 17.1667Z" fill="#1D1D1D"/>
<path d="M32.7733 33.3665C29.0533 30.8865 22.9866 30.8865 19.2399 33.3665C17.5466 34.4999 16.6133 36.0332 16.6133 37.6732C16.6133 39.3132 17.5466 40.8332 19.2266 41.9532C21.0933 43.2065 23.5466 43.8332 25.9999 43.8332C28.4533 43.8332 30.9066 43.2065 32.7733 41.9532C34.4533 40.8199 35.3866 39.2999 35.3866 37.6465C35.3733 36.0065 34.4533 34.4865 32.7733 33.3665Z" fill="#1D1D1D"/>
<path d="M40.6534 24.2868C40.8667 26.8735 39.0267 29.1402 36.48 29.4468C36.4667 29.4468 36.4667 29.4468 36.4534 29.4468H36.4134C36.3334 29.4468 36.2534 29.4468 36.1867 29.4735C34.8934 29.5402 33.7067 29.1268 32.8134 28.3668C34.1867 27.1402 34.9734 25.3002 34.8134 23.3002C34.72 22.2202 34.3467 21.2335 33.7867 20.3935C34.2934 20.1402 34.88 19.9802 35.48 19.9268C38.0934 19.7002 40.4267 21.6468 40.6534 24.2868Z" fill="#1D1D1D"/>
<path d="M43.32 36.6199C43.2133 37.9132 42.3867 39.0332 41 39.7932C39.6667 40.5265 37.9867 40.8732 36.32 40.8332C37.28 39.9665 37.84 38.8865 37.9467 37.7399C38.08 36.0865 37.2933 34.4999 35.72 33.2332C34.8267 32.5265 33.7867 31.9665 32.6533 31.5532C35.6 30.6999 39.3067 31.2732 41.5867 33.1132C42.8133 34.0999 43.44 35.3399 43.32 36.6199Z" fill="#1D1D1D"/>
</svg>
