<svg width="61" height="61" viewBox="0 0 61 61" fill="none" xmlns="http://www.w3.org/2000/svg">
<rect width="60" height="60" transform="translate(0.799988 0.5)" fill="#EBEBFF"/>
<path d="M26.7999 17.1667C23.3066 17.1667 20.4666 20.0067 20.4666 23.5C20.4666 26.9267 23.1466 29.7 26.6399 29.82C26.7466 29.8067 26.8533 29.8067 26.9333 29.82C26.9599 29.82 26.9733 29.82 26.9999 29.82C27.0133 29.82 27.0133 29.82 27.0266 29.82C30.4399 29.7 33.1199 26.9267 33.1333 23.5C33.1333 20.0067 30.2933 17.1667 26.7999 17.1667Z" fill="#564FFD"/>
<path d="M33.5733 33.3665C29.8533 30.8865 23.7866 30.8865 20.0399 33.3665C18.3466 34.4999 17.4133 36.0332 17.4133 37.6732C17.4133 39.3132 18.3466 40.8332 20.0266 41.9532C21.8933 43.2065 24.3466 43.8332 26.7999 43.8332C29.2533 43.8332 31.7066 43.2065 33.5733 41.9532C35.2533 40.8199 36.1866 39.2999 36.1866 37.6465C36.1733 36.0065 35.2533 34.4865 33.5733 33.3665Z" fill="#564FFD"/>
<path d="M41.4533 24.2868C41.6667 26.8735 39.8267 29.1402 37.28 29.4468C37.2667 29.4468 37.2667 29.4468 37.2533 29.4468H37.2133C37.1333 29.4468 37.0533 29.4468 36.9867 29.4735C35.6933 29.5402 34.5067 29.1268 33.6133 28.3668C34.9867 27.1402 35.7733 25.3002 35.6133 23.3002C35.52 22.2202 35.1467 21.2335 34.5867 20.3935C35.0933 20.1402 35.68 19.9802 36.28 19.9268C38.8933 19.7002 41.2267 21.6468 41.4533 24.2868Z" fill="#564FFD"/>
<path d="M44.12 36.6199C44.0133 37.9132 43.1866 39.0332 41.8 39.7932C40.4666 40.5265 38.7866 40.8732 37.12 40.8332C38.08 39.9665 38.64 38.8865 38.7466 37.7399C38.88 36.0865 38.0933 34.4999 36.52 33.2332C35.6266 32.5265 34.5866 31.9665 33.4533 31.5532C36.4 30.6999 40.1066 31.2732 42.3866 33.1132C43.6133 34.0999 44.24 35.3399 44.12 36.6199Z" fill="#564FFD"/>
</svg>
