<svg width="16" height="16" viewBox="0 0 16 16" fill="none" xmlns="http://www.w3.org/2000/svg">
<path d="M6.52089 2.59408C6.8968 2.27373 7.08476 2.11356 7.28128 2.01963C7.73581 1.80238 8.26421 1.80238 8.71874 2.01963C8.91526 2.11356 9.10321 2.27373 9.47913 2.59408C9.62874 2.72159 9.70355 2.78534 9.78345 2.83888C9.96659 2.96164 10.1723 3.04683 10.3886 3.08953C10.4829 3.10816 10.5809 3.11598 10.7768 3.13162C11.2692 3.17091 11.5154 3.19055 11.7207 3.26309C12.1957 3.43087 12.5694 3.80451 12.7372 4.27953C12.8097 4.48491 12.8294 4.73107 12.8686 5.22341C12.8843 5.41936 12.8921 5.51734 12.9107 5.6117C12.9534 5.82799 13.0386 6.03367 13.1614 6.21681C13.2149 6.29671 13.2787 6.37152 13.4062 6.52113C13.7265 6.89705 13.8867 7.085 13.9806 7.28152C14.1979 7.73605 14.1979 8.26445 13.9806 8.71898C13.8867 8.9155 13.7265 9.10346 13.4062 9.47937C13.2787 9.62899 13.2149 9.7038 13.1614 9.78369C13.0386 9.96683 12.9534 10.1725 12.9107 10.3888C12.8921 10.4832 12.8843 10.5811 12.8686 10.7771C12.8294 11.2694 12.8097 11.5156 12.7372 11.721C12.5694 12.196 12.1957 12.5696 11.7207 12.7374C11.5154 12.81 11.2692 12.8296 10.7768 12.8689C10.5809 12.8845 10.4829 12.8923 10.3886 12.911C10.1723 12.9537 9.96659 13.0389 9.78345 13.1616C9.70355 13.2152 9.62874 13.2789 9.47913 13.4064C9.10321 13.7268 8.91526 13.8869 8.71874 13.9809C8.26421 14.1981 7.73581 14.1981 7.28128 13.9809C7.08476 13.8869 6.8968 13.7268 6.52089 13.4064C6.37127 13.2789 6.29646 13.2152 6.21657 13.1616C6.03343 13.0389 5.82775 12.9537 5.61145 12.911C5.51709 12.8923 5.41912 12.8845 5.22317 12.8689C4.73083 12.8296 4.48466 12.81 4.27929 12.7374C3.80427 12.5696 3.43063 12.196 3.26285 11.721C3.19031 11.5156 3.17066 11.2694 3.13137 10.7771C3.11574 10.5811 3.10792 10.4832 3.08929 10.3888C3.04659 10.1725 2.96139 9.96683 2.83864 9.78369C2.78509 9.7038 2.72134 9.62899 2.59384 9.47937C2.27349 9.10346 2.11331 8.9155 2.01938 8.71898C1.80213 8.26445 1.80213 7.73605 2.01938 7.28152C2.11331 7.085 2.27349 6.89705 2.59384 6.52113C2.72134 6.37152 2.78509 6.29671 2.83864 6.21681C2.96139 6.03367 3.04659 5.82799 3.08929 5.6117C3.10792 5.51734 3.11574 5.41936 3.13137 5.22341C3.17066 4.73108 3.19031 4.48491 3.26285 4.27953C3.43063 3.80451 3.80427 3.43087 4.27929 3.26309C4.48466 3.19055 4.73083 3.17091 5.22317 3.13162C5.41912 3.11598 5.51709 3.10816 5.61145 3.08953C5.82775 3.04683 6.03343 2.96164 6.21657 2.83888C6.29646 2.78534 6.37127 2.72159 6.52089 2.59408Z" stroke="#525252" stroke-width="1.5"/>
<path d="M5.66663 8.33362L6.99996 9.66695L10.3333 6.33362" stroke="#525252" stroke-width="1.5" stroke-linecap="round" stroke-linejoin="round"/>
</svg>
