<svg width="60" height="61" viewBox="0 0 60 61" fill="none" xmlns="http://www.w3.org/2000/svg">
<rect width="60" height="60" transform="translate(0 0.5)" fill="#E1F7E3"/>
<path fill-rule="evenodd" clip-rule="evenodd" d="M42.1345 25.1714C42.0589 25.1666 41.9767 25.1666 41.8914 25.1667L41.8701 25.1667H38.5254C35.7685 25.1667 33.4096 27.3368 33.4096 30.1667C33.4096 32.9966 35.7685 35.1667 38.5254 35.1667H41.8701L41.8914 35.1667C41.9767 35.1667 42.0589 35.1667 42.1345 35.162C43.2543 35.0913 44.2446 34.2149 44.3279 32.991C44.3334 32.9107 44.3333 32.8242 44.3333 32.744L44.3333 32.7222V27.6111L44.3333 27.5894C44.3333 27.5092 44.3334 27.4227 44.3279 27.3424C44.2446 26.1184 43.2543 25.2421 42.1345 25.1714ZM38.2289 31.5C38.9386 31.5 39.514 30.903 39.514 30.1667C39.514 29.4303 38.9386 28.8333 38.2289 28.8333C37.5191 28.8333 36.9437 29.4303 36.9437 30.1667C36.9437 30.903 37.5191 31.5 38.2289 31.5Z" fill="#03A900"/>
<path fill-rule="evenodd" clip-rule="evenodd" d="M41.8905 37.1667C42.0893 37.1615 42.2398 37.3457 42.1858 37.5371C41.9182 38.487 41.4934 39.2966 40.8116 39.9783C39.8138 40.9762 38.5486 41.419 36.9853 41.6292C35.4664 41.8334 33.5255 41.8334 31.0752 41.8333H28.2581C25.8077 41.8334 23.8669 41.8334 22.3479 41.6292C20.7847 41.419 19.5194 40.9762 18.5216 39.9783C17.5238 38.9805 17.081 37.7153 16.8708 36.152C16.6666 34.6331 16.6666 32.6922 16.6666 30.2419V30.0914C16.6666 27.6411 16.6666 25.7003 16.8708 24.1813C17.081 22.6181 17.5238 21.3528 18.5216 20.355C19.5194 19.3572 20.7847 18.9144 22.3479 18.7042C23.8669 18.5 25.8077 18.5 28.2581 18.5L31.0752 18.5C33.5255 18.5 35.4664 18.5 36.9853 18.7042C38.5486 18.9144 39.8138 19.3572 40.8116 20.355C41.4933 21.0367 41.9182 21.8463 42.1858 22.7962C42.2398 22.9877 42.0893 23.1718 41.8905 23.1667L38.5253 23.1667C34.7431 23.1667 31.4095 26.1545 31.4095 30.1667C31.4095 34.1788 34.7431 37.1667 38.5253 37.1667L41.8905 37.1667ZM21.6666 23.8333C21.1143 23.8333 20.6666 24.281 20.6666 24.8333C20.6666 25.3856 21.1143 25.8333 21.6666 25.8333H27C27.5522 25.8333 28 25.3856 28 24.8333C28 24.281 27.5522 23.8333 27 23.8333H21.6666Z" fill="#03A900"/>
</svg>
