<svg width="61" height="61" viewBox="0 0 61 61" fill="none" xmlns="http://www.w3.org/2000/svg">
<rect width="60" height="60" transform="translate(0.5 0.5)" fill="#EBEBFF"/>
<path d="M26.4998 17.166C23.0065 17.166 20.1665 20.006 20.1665 23.4993C20.1665 26.926 22.8465 29.6993 26.3398 29.8193C26.4465 29.806 26.5532 29.806 26.6332 29.8193C26.6598 29.8193 26.6732 29.8193 26.6998 29.8193C26.7132 29.8193 26.7132 29.8193 26.7265 29.8193C30.1398 29.6993 32.8198 26.926 32.8332 23.4993C32.8332 20.006 29.9932 17.166 26.4998 17.166Z" fill="#564FFD"/>
<path d="M33.2733 33.3659C29.5533 30.8859 23.4866 30.8859 19.7399 33.3659C18.0466 34.4992 17.1133 36.0325 17.1133 37.6725C17.1133 39.3125 18.0466 40.8325 19.7266 41.9525C21.5933 43.2059 24.0466 43.8325 26.4999 43.8325C28.9533 43.8325 31.4066 43.2059 33.2733 41.9525C34.9533 40.8192 35.8866 39.2992 35.8866 37.6459C35.8733 36.0059 34.9533 34.4859 33.2733 33.3659Z" fill="#564FFD"/>
<path d="M41.1535 24.2861C41.3668 26.8728 39.5268 29.1395 36.9801 29.4461C36.9668 29.4461 36.9668 29.4461 36.9535 29.4461H36.9135C36.8335 29.4461 36.7535 29.4461 36.6868 29.4728C35.3935 29.5395 34.2068 29.1261 33.3135 28.3661C34.6868 27.1395 35.4735 25.2995 35.3135 23.2995C35.2201 22.2195 34.8468 21.2328 34.2868 20.3928C34.7935 20.1395 35.3801 19.9795 35.9801 19.9261C38.5935 19.6995 40.9268 21.6461 41.1535 24.2861Z" fill="#564FFD"/>
<path d="M43.82 36.6199C43.7133 37.9132 42.8867 39.0332 41.5 39.7932C40.1667 40.5265 38.4867 40.8732 36.82 40.8332C37.78 39.9665 38.34 38.8865 38.4467 37.7399C38.58 36.0865 37.7933 34.4999 36.22 33.2332C35.3267 32.5265 34.2867 31.9665 33.1533 31.5532C36.1 30.6999 39.8067 31.2732 42.0867 33.1132C43.3133 34.0999 43.94 35.3399 43.82 36.6199Z" fill="#564FFD"/>
</svg>
