<svg width="60" height="61" viewBox="0 0 60 61" fill="none" xmlns="http://www.w3.org/2000/svg">
<rect width="60" height="60" transform="translate(0 0.5)" fill="#1D1D1D" fill-opacity="0.1"/>
<path fill-rule="evenodd" clip-rule="evenodd" d="M32.6771 39.8369L32.6849 37.1663C32.6849 36.43 33.2833 35.833 34.0215 35.833C34.7598 35.833 35.3582 36.43 35.3582 37.1663V39.8016C35.3582 40.4437 35.3582 40.7647 35.5641 40.9616C35.77 41.1584 36.0849 41.1451 36.7149 41.1184C39.1988 41.0132 40.7248 40.6773 41.8005 39.6042C42.8787 38.5287 43.2146 37.0018 43.3192 34.5137C43.3399 34.0203 43.3503 33.7736 43.2582 33.609C43.166 33.4444 42.7982 33.239 42.0625 32.8281C41.2455 32.3719 40.6932 31.5001 40.6932 30.4997C40.6932 29.4992 41.2455 28.6275 42.0625 28.1712C42.7982 27.7604 43.166 27.555 43.2582 27.3904C43.3503 27.2258 43.3399 26.9791 43.3192 26.4856C43.2146 23.9975 42.8787 22.4706 41.8005 21.3951C40.6302 20.2277 38.9269 19.9327 36.037 19.8582C35.6642 19.8486 35.3582 20.1492 35.3582 20.5212V23.833C35.3582 24.5694 34.7598 25.1663 34.0215 25.1663C33.2833 25.1663 32.6849 24.5694 32.6849 23.833L32.6752 20.4977C32.6741 20.1303 32.3752 19.833 32.0069 19.833H27.3266C22.2858 19.833 19.7654 19.833 18.1994 21.3951C17.1212 22.4706 16.7853 23.9975 16.6807 26.4856C16.66 26.9791 16.6496 27.2258 16.7418 27.3904C16.8339 27.555 17.2017 27.7604 17.9374 28.1712C18.7544 28.6275 19.3067 29.4992 19.3067 30.4997C19.3067 31.5001 18.7544 32.3719 17.9374 32.8281C17.2017 33.239 16.8339 33.4444 16.7418 33.609C16.6496 33.7736 16.66 34.0203 16.6807 34.5137C16.7853 37.0018 17.1212 38.5287 18.1994 39.6042C19.7654 41.1663 22.2858 41.1663 27.3266 41.1663H31.3405C31.9689 41.1663 32.2831 41.1663 32.4788 40.9718C32.6744 40.7772 32.6753 40.4637 32.6771 39.8369ZM35.3582 31.833V29.1663C35.3582 28.43 34.7598 27.833 34.0215 27.833C33.2833 27.833 32.6849 28.43 32.6849 29.1663V31.833C32.6849 32.5694 33.2833 33.1663 34.0215 33.1663C34.7598 33.1663 35.3582 32.5694 35.3582 31.833Z" fill="#1D1D1D"/>
</svg>
