<svg width="60" height="60" viewBox="0 0 60 60" fill="none" xmlns="http://www.w3.org/2000/svg">
<rect width="60" height="60" fill="#EBEBFF"/>
<path fill-rule="evenodd" clip-rule="evenodd" d="M42.1345 24.6714C42.059 24.6666 41.9767 24.6666 41.8914 24.6667L41.8701 24.6667H38.5255C35.7686 24.6667 33.4096 26.8368 33.4096 29.6667C33.4096 32.4966 35.7686 34.6667 38.5255 34.6667H41.8701L41.8914 34.6667C41.9767 34.6667 42.059 34.6667 42.1345 34.662C43.2544 34.5913 44.2447 33.7149 44.328 32.491C44.3334 32.4107 44.3334 32.3242 44.3333 32.244L44.3333 32.2222V27.1111L44.3333 27.0894C44.3334 27.0092 44.3334 26.9227 44.328 26.8424C44.2447 25.6184 43.2544 24.7421 42.1345 24.6714ZM38.2289 31C38.9387 31 39.514 30.403 39.514 29.6667C39.514 28.9303 38.9387 28.3333 38.2289 28.3333C37.5191 28.3333 36.9438 28.9303 36.9438 29.6667C36.9438 30.403 37.5191 31 38.2289 31Z" fill="#564FFD"/>
<path fill-rule="evenodd" clip-rule="evenodd" d="M41.8906 36.6667C42.0894 36.6615 42.2398 36.8457 42.1859 37.0371C41.9182 37.987 41.4934 38.7966 40.8117 39.4783C39.8139 40.4762 38.5486 40.919 36.9854 41.1292C35.4664 41.3334 33.5256 41.3334 31.0752 41.3333H28.2581C25.8078 41.3334 23.8669 41.3334 22.348 41.1292C20.7847 40.919 19.5195 40.4762 18.5217 39.4783C17.5238 38.4805 17.081 37.2153 16.8709 35.652C16.6666 34.1331 16.6667 32.1922 16.6667 29.7419V29.5914C16.6667 27.1411 16.6666 25.2003 16.8709 23.6813C17.081 22.1181 17.5238 20.8528 18.5217 19.855C19.5195 18.8572 20.7847 18.4144 22.348 18.2042C23.8669 18 25.8078 18 28.2581 18L31.0752 18C33.5256 18 35.4664 18 36.9854 18.2042C38.5486 18.4144 39.8139 18.8572 40.8117 19.855C41.4934 20.5367 41.9182 21.3463 42.1859 22.2962C42.2398 22.4877 42.0893 22.6718 41.8905 22.6667L38.5254 22.6667C34.7432 22.6667 31.4095 25.6545 31.4095 29.6667C31.4095 33.6788 34.7432 36.6667 38.5254 36.6667L41.8906 36.6667ZM21.6667 23.3333C21.1144 23.3333 20.6667 23.781 20.6667 24.3333C20.6667 24.8856 21.1144 25.3333 21.6667 25.3333H27C27.5523 25.3333 28 24.8856 28 24.3333C28 23.781 27.5523 23.3333 27 23.3333H21.6667Z" fill="#564FFD"/>
</svg>
