<svg width="16" height="16" viewBox="0 0 16 16" fill="none" xmlns="http://www.w3.org/2000/svg">
<path d="M14 11.6668C14 12.9555 12.9554 14.0002 11.6667 14.0002C10.378 14.0002 9.33337 12.9555 9.33337 11.6668C9.33337 10.3782 10.378 9.3335 11.6667 9.3335C12.9554 9.3335 14 10.3782 14 11.6668Z" stroke="#525252" stroke-width="1.5"/>
<path d="M1.33337 7.3335H14.6667" stroke="#525252" stroke-width="1.5" stroke-linecap="round"/>
<path d="M2.66663 7.33366L3.07583 5.69685C3.43961 4.24173 3.6215 3.51417 4.16402 3.09058C4.70654 2.66699 5.4565 2.66699 6.9564 2.66699H9.04352C10.5434 2.66699 11.2934 2.66699 11.8359 3.09058C12.3784 3.51417 12.5603 4.24173 12.9241 5.69685L13.3333 7.33366" stroke="#525252" stroke-width="1.5" stroke-linecap="round"/>
<path d="M6.66667 11.6668C6.66667 12.9555 5.622 14.0002 4.33333 14.0002C3.04467 14.0002 2 12.9555 2 11.6668C2 10.3782 3.04467 9.3335 4.33333 9.3335C5.622 9.3335 6.66667 10.3782 6.66667 11.6668Z" stroke="#525252" stroke-width="1.5"/>
<path d="M6.66663 11.6669L7.10553 11.4475C7.66859 11.1659 8.33133 11.1659 8.89439 11.4475L9.33329 11.6669" stroke="#525252" stroke-width="1.5" stroke-linecap="round"/>
</svg>
