<svg width="48" height="48" viewBox="0 0 48 48" fill="none" xmlns="http://www.w3.org/2000/svg">
<rect x="0.5" y="0.5" width="47" height="47" rx="23.5" fill="#F5F7FA"/>
<rect x="0.5" y="0.5" width="47" height="47" rx="23.5" stroke="#5C6168"/>
<path fill-rule="evenodd" clip-rule="evenodd" d="M21.3282 13.3331H26.6714C31.709 13.3331 34.2279 13.3331 35.7928 14.8952C36.9644 16.0646 37.2589 17.7674 37.333 20.659C37.3424 21.0298 37.0382 21.326 36.6788 21.42C35.5322 21.7199 34.6862 22.7612 34.6862 23.9998C34.6862 25.2384 35.5322 26.2797 36.6788 26.5796C37.0382 26.6736 37.3424 26.9698 37.333 27.3405C37.2589 30.2322 36.9644 31.935 35.7928 33.1044C34.2279 34.6665 31.709 34.6665 26.6714 34.6665H21.3282C16.2906 34.6665 13.7718 34.6665 12.2068 33.1044C11.0353 31.935 10.7408 30.2322 10.6667 27.3405C10.6572 26.9698 10.9614 26.6736 11.3209 26.5796C12.4675 26.2797 13.3134 25.2384 13.3134 23.9998C13.3134 22.7612 12.4675 21.7199 11.3209 21.42C10.9614 21.326 10.6572 21.0298 10.6667 20.659C10.7408 17.7674 11.0353 16.0646 12.2068 14.8952C13.7718 13.3331 16.2906 13.3331 21.3282 13.3331ZM25.272 21.5983L25.1407 21.3631C24.6331 20.4542 24.3793 19.9998 23.9998 19.9998C23.6204 19.9998 23.3666 20.4542 22.859 21.3631L22.7277 21.5983C22.5834 21.8566 22.5113 21.9857 22.3989 22.0709C22.2864 22.1561 22.1464 22.1878 21.8663 22.251L21.6112 22.3086C20.6256 22.5312 20.1327 22.6425 20.0155 23.0189C19.8982 23.3953 20.2342 23.7874 20.9062 24.5718L21.08 24.7747C21.271 24.9976 21.3664 25.109 21.4094 25.2469C21.4524 25.3848 21.4379 25.5334 21.409 25.8308L21.3828 26.1016C21.2812 27.148 21.2304 27.6713 21.5374 27.9039C21.8443 28.1365 22.3058 27.9244 23.2287 27.5003L23.4674 27.3905C23.7297 27.27 23.8608 27.2097 23.9998 27.2097C24.1388 27.2097 24.27 27.27 24.5322 27.3905L24.771 27.5003C25.6939 27.9244 26.1553 28.1365 26.4623 27.9039C26.7693 27.6713 26.7185 27.148 26.6169 26.1016L26.5906 25.8308C26.5618 25.5334 26.5473 25.3848 26.5903 25.2469C26.6332 25.109 26.7287 24.9976 26.9197 24.7747L27.0935 24.5718C27.7655 23.7874 28.1015 23.3953 27.9842 23.0189C27.867 22.6425 27.3741 22.5312 26.3884 22.3086L26.1334 22.251C25.8533 22.1878 25.7133 22.1561 25.6008 22.0709C25.4884 21.9857 25.4162 21.8566 25.272 21.5983Z" fill="#1D1D1D"/>
</svg>
