<svg width="61" height="61" viewBox="0 0 61 61" fill="none" xmlns="http://www.w3.org/2000/svg">
<rect width="60" height="60" transform="translate(0.25 0.5)" fill="#EBEBFF"/>
<path fill-rule="evenodd" clip-rule="evenodd" d="M32.9271 39.8369L32.9349 37.1663C32.9349 36.43 33.5333 35.833 34.2715 35.833C35.0098 35.833 35.6082 36.43 35.6082 37.1663V39.8016C35.6082 40.4437 35.6082 40.7647 35.8141 40.9616C36.02 41.1584 36.3349 41.1451 36.9649 41.1184C39.4488 41.0132 40.9748 40.6773 42.0505 39.6042C43.1287 38.5287 43.4646 37.0018 43.5692 34.5137C43.5899 34.0203 43.6003 33.7736 43.5082 33.609C43.416 33.4444 43.0482 33.239 42.3125 32.8281C41.4955 32.3719 40.9432 31.5001 40.9432 30.4997C40.9432 29.4992 41.4955 28.6275 42.3125 28.1712C43.0482 27.7604 43.416 27.555 43.5082 27.3904C43.6003 27.2258 43.5899 26.9791 43.5692 26.4856C43.4646 23.9975 43.1287 22.4706 42.0505 21.3951C40.8802 20.2277 39.1769 19.9327 36.287 19.8582C35.9142 19.8486 35.6082 20.1492 35.6082 20.5212V23.833C35.6082 24.5694 35.0098 25.1663 34.2715 25.1663C33.5333 25.1663 32.9349 24.5694 32.9349 23.833L32.9252 20.4977C32.9241 20.1303 32.6252 19.833 32.2569 19.833H27.5766C22.5358 19.833 20.0154 19.833 18.4494 21.3951C17.3712 22.4706 17.0353 23.9975 16.9307 26.4856C16.91 26.9791 16.8996 27.2258 16.9918 27.3904C17.0839 27.555 17.4517 27.7604 18.1874 28.1712C19.0044 28.6275 19.5567 29.4992 19.5567 30.4997C19.5567 31.5001 19.0044 32.3719 18.1874 32.8281C17.4517 33.239 17.0839 33.4444 16.9918 33.609C16.8996 33.7736 16.91 34.0203 16.9307 34.5137C17.0353 37.0018 17.3712 38.5287 18.4494 39.6042C20.0154 41.1663 22.5358 41.1663 27.5766 41.1663H31.5905C32.2189 41.1663 32.5331 41.1663 32.7288 40.9718C32.9244 40.7772 32.9253 40.4637 32.9271 39.8369ZM35.6082 31.833V29.1663C35.6082 28.43 35.0098 27.833 34.2715 27.833C33.5333 27.833 32.9349 28.43 32.9349 29.1663V31.833C32.9349 32.5694 33.5333 33.1663 34.2715 33.1663C35.0098 33.1663 35.6082 32.5694 35.6082 31.833Z" fill="#564FFD"/>
</svg>
