<svg width="60" height="60" viewBox="0 0 60 60" fill="none" xmlns="http://www.w3.org/2000/svg">
<rect width="60" height="60" fill="#FFEEE8"/>
<path fill-rule="evenodd" clip-rule="evenodd" d="M30 43.3334C23.7146 43.3334 20.5719 43.3334 18.6193 41.3807C16.6667 39.4281 16.6667 36.2854 16.6667 30C16.6667 23.7146 16.6667 20.5719 18.6193 18.6193C20.5719 16.6667 23.7146 16.6667 30 16.6667C36.2854 16.6667 39.4281 16.6667 41.3807 18.6193C43.3334 20.5719 43.3334 23.7146 43.3334 30C43.3334 36.2854 43.3334 39.4281 41.3807 41.3807C39.4281 43.3334 36.2854 43.3334 30 43.3334ZM25.9596 25.9596C26.3501 25.5691 26.9832 25.5691 27.3738 25.9596L30 28.5858L32.6262 25.9596C33.0167 25.5691 33.6499 25.5691 34.0404 25.9596C34.431 26.3501 34.431 26.9833 34.0404 27.3738L31.4142 30L34.0404 32.6262C34.4309 33.0167 34.4309 33.6499 34.0404 34.0404C33.6499 34.431 33.0167 34.431 32.6262 34.0404L30 31.4142L27.3738 34.0405C26.9833 34.431 26.3501 34.431 25.9596 34.0405C25.5691 33.6499 25.5691 33.0168 25.9596 32.6262L28.5858 30L25.9596 27.3738C25.569 26.9833 25.569 26.3501 25.9596 25.9596Z" fill="#DC2626"/>
</svg>
