<svg width="61" height="60" viewBox="0 0 61 60" fill="none" xmlns="http://www.w3.org/2000/svg">
<rect width="60" height="60" transform="translate(0.333252)" fill="#E1F7E3"/>
<path fill-rule="evenodd" clip-rule="evenodd" d="M38.9596 41.3734C39.3501 41.764 39.9832 41.764 40.3738 41.3734L43.0404 38.7068C43.431 38.3163 43.431 37.6831 43.0404 37.2926C42.6499 36.902 42.0167 36.902 41.6262 37.2926L40.6667 38.2521V32.6663C40.6667 32.1141 40.219 31.6663 39.6667 31.6663C39.1144 31.6663 38.6667 32.1141 38.6667 32.6663V38.2521L37.7071 37.2926C37.3166 36.902 36.6834 36.902 36.2929 37.2926C35.9024 37.6831 35.9024 38.3163 36.2929 38.7068L38.9596 41.3734Z" fill="#23BD33"/>
<path d="M27.6667 19.333H33C38.0283 19.333 40.5425 19.333 42.1046 20.8951C43.2293 22.0198 43.5442 23.6381 43.6324 26.333H17.0343C17.1225 23.6381 17.4374 22.0198 18.5621 20.8951C20.1242 19.333 22.6384 19.333 27.6667 19.333Z" fill="#23BD33"/>
<path fill-rule="evenodd" clip-rule="evenodd" d="M27.6667 40.6663H33C33.8793 40.6663 34.6818 40.6663 35.4157 40.658L34.8787 40.121C33.7071 38.9494 33.7071 37.0499 34.8787 35.8784C35.3795 35.3775 36.0135 35.0907 36.6667 35.0181V32.6663C36.6667 31.0095 38.0098 29.6663 39.6667 29.6663C41.3235 29.6663 42.6667 31.0095 42.6667 32.6663V35.0181C42.9651 35.0513 43.2596 35.1292 43.5391 35.2518C43.6667 33.8892 43.6667 32.181 43.6667 29.9997C43.6667 29.4104 43.6667 28.8557 43.6642 28.333H17.0025C17 28.8557 17 29.4104 17 29.9997C17 35.028 17 37.5421 18.5621 39.1042C20.1242 40.6663 22.6384 40.6663 27.6667 40.6663ZM22.3333 34.333C21.781 34.333 21.3333 34.7807 21.3333 35.333C21.3333 35.8853 21.781 36.333 22.3333 36.333H27.6667C28.219 36.333 28.6667 35.8853 28.6667 35.333C28.6667 34.7807 28.219 34.333 27.6667 34.333H22.3333ZM31 34.333C30.4477 34.333 30 34.7807 30 35.333C30 35.8853 30.4477 36.333 31 36.333H33C33.5523 36.333 34 35.8853 34 35.333C34 34.7807 33.5523 34.333 33 34.333H31Z" fill="#23BD33"/>
</svg>
