<svg width="16" height="16" viewBox="0 0 16 16" fill="none" xmlns="http://www.w3.org/2000/svg">
<path fill-rule="evenodd" clip-rule="evenodd" d="M1.99992 9.33301C2.36811 9.33301 2.66659 9.63148 2.66659 9.99967V12.6663C2.66659 12.8432 2.73682 13.0127 2.86185 13.1377C2.98687 13.2628 3.15644 13.333 3.33325 13.333H12.6666C12.8434 13.333 13.013 13.2628 13.138 13.1377C13.263 13.0127 13.3333 12.8432 13.3333 12.6663V9.99967C13.3333 9.63148 13.6317 9.33301 13.9999 9.33301C14.3681 9.33301 14.6666 9.63148 14.6666 9.99967V12.6663C14.6666 13.1968 14.4559 13.7055 14.0808 14.0806C13.7057 14.4556 13.197 14.6663 12.6666 14.6663H3.33325C2.80282 14.6663 2.29411 14.4556 1.91904 14.0806C1.54397 13.7055 1.33325 13.1968 1.33325 12.6663V9.99967C1.33325 9.63148 1.63173 9.33301 1.99992 9.33301Z" fill="#71839B"/>
<path fill-rule="evenodd" clip-rule="evenodd" d="M4.19526 6.19526C4.45561 5.93491 4.87772 5.93491 5.13807 6.19526L8 9.05719L10.8619 6.19526C11.1223 5.93491 11.5444 5.93491 11.8047 6.19526C12.0651 6.45561 12.0651 6.87772 11.8047 7.13807L8.4714 10.4714C8.21106 10.7318 7.78894 10.7318 7.5286 10.4714L4.19526 7.13807C3.93491 6.87772 3.93491 6.45561 4.19526 6.19526Z" fill="#71839B"/>
<path fill-rule="evenodd" clip-rule="evenodd" d="M7.99992 1.33301C8.36811 1.33301 8.66659 1.63148 8.66659 1.99967V9.99967C8.66659 10.3679 8.36811 10.6663 7.99992 10.6663C7.63173 10.6663 7.33325 10.3679 7.33325 9.99967V1.99967C7.33325 1.63148 7.63173 1.33301 7.99992 1.33301Z" fill="#71839B"/>
</svg>
