<svg width="16" height="16" viewBox="0 0 16 16" fill="none" xmlns="http://www.w3.org/2000/svg">
<g clip-path="url(#clip0_1074_8517)">
<path d="M11.3334 2.00028C11.5085 1.82519 11.7163 1.68629 11.9451 1.59153C12.1739 1.49677 12.4191 1.448 12.6667 1.448C12.9143 1.448 13.1595 1.49677 13.3883 1.59153C13.6171 1.68629 13.8249 1.82519 14 2.00028C14.1751 2.17538 14.314 2.38325 14.4088 2.61202C14.5036 2.84079 14.5523 3.08599 14.5523 3.33362C14.5523 3.58124 14.5036 3.82644 14.4088 4.05521C14.314 4.28398 14.1751 4.49185 14 4.66695L5.00004 13.6669L1.33337 14.6669L2.33337 11.0003L11.3334 2.00028Z" stroke="#525252" stroke-width="2" stroke-linecap="round" stroke-linejoin="round"/>
</g>
<defs>
<clipPath id="clip0_1074_8517">
<rect width="16" height="16" fill="white" transform="translate(0 0.000244141)"/>
</clipPath>
</defs>
</svg>
