<svg width="60" height="61" viewBox="0 0 60 61" fill="none" xmlns="http://www.w3.org/2000/svg">
<rect width="60" height="60" transform="translate(0 0.5)" fill="#DC2626" fill-opacity="0.1"/>
<path fill-rule="evenodd" clip-rule="evenodd" d="M27.3285 19.8335H32.6717C37.7093 19.8335 40.2281 19.8335 41.7931 21.3956C42.9646 22.5649 43.2591 24.2678 43.3332 27.1594C43.3427 27.5301 43.0385 27.8264 42.6791 27.9204C41.5324 28.2203 40.6865 29.2616 40.6865 30.5002C40.6865 31.7387 41.5324 32.7801 42.6791 33.0799C43.0385 33.1739 43.3427 33.4702 43.3332 33.8409C43.2591 36.7325 42.9646 38.4354 41.7931 39.6047C40.2281 41.1668 37.7093 41.1668 32.6717 41.1668H27.3285C22.2909 41.1668 19.7721 41.1668 18.2071 39.6047C17.0356 38.4354 16.741 36.7325 16.667 33.8409C16.6575 33.4702 16.9617 33.1739 17.3211 33.0799C18.4677 32.7801 19.3137 31.7387 19.3137 30.5002C19.3137 29.2616 18.4677 28.2203 17.3211 27.9204C16.9617 27.8264 16.6575 27.5301 16.667 27.1594C16.741 24.2678 17.0356 22.5649 18.2071 21.3956C19.7721 19.8335 22.2909 19.8335 27.3285 19.8335ZM31.2722 28.0987L31.1409 27.8635C30.6333 26.9546 30.3795 26.5002 30.0001 26.5002C29.6206 26.5002 29.3668 26.9546 28.8592 27.8635L28.7279 28.0987C28.5837 28.3569 28.5116 28.4861 28.3991 28.5713C28.2867 28.6565 28.1466 28.6881 27.8665 28.7514L27.6115 28.809C26.6258 29.0316 26.1329 29.1429 26.0157 29.5193C25.8984 29.8956 26.2344 30.2878 26.9064 31.0721L27.0803 31.2751C27.2712 31.4979 27.3667 31.6094 27.4096 31.7472C27.4526 31.8851 27.4382 32.0338 27.4093 32.3312L27.383 32.6019C27.2814 33.6484 27.2306 34.1716 27.5376 34.4043C27.8446 34.6369 28.306 34.4248 29.2289 34.0006L29.4677 33.8909C29.73 33.7704 29.8611 33.7101 30.0001 33.7101C30.1391 33.7101 30.2702 33.7704 30.5325 33.8909L30.7712 34.0006C31.6941 34.4248 32.1556 34.6369 32.4626 34.4043C32.7695 34.1716 32.7187 33.6484 32.6172 32.6019L32.5909 32.3312C32.562 32.0338 32.5476 31.8851 32.5905 31.7472C32.6335 31.6094 32.7289 31.4979 32.9199 31.2751L33.0938 31.0721C33.7657 30.2878 34.1017 29.8956 33.9845 29.5193C33.8672 29.1429 33.3744 29.0316 32.3887 28.809L32.1337 28.7514C31.8536 28.6881 31.7135 28.6565 31.6011 28.5713C31.4886 28.4861 31.4165 28.3569 31.2722 28.0987Z" fill="#DC2626"/>
</svg>
