<svg width="48" height="48" viewBox="0 0 48 48" fill="none" xmlns="http://www.w3.org/2000/svg">
<rect x="0.5" y="0.5" width="47" height="47" rx="23.5" fill="#F5F7FA"/>
<rect x="0.5" y="0.5" width="47" height="47" rx="23.5" stroke="#FD8E1F"/>
<path fill-rule="evenodd" clip-rule="evenodd" d="M17.3265 10.6666H30.0065C31.5516 10.6666 32.3242 10.6666 32.9473 10.8834C34.1289 11.2946 35.0565 12.2495 35.4559 13.4659C35.6665 14.1074 35.6665 14.9027 35.6665 16.4934V35.1656C35.6665 36.3099 34.3532 36.917 33.5224 36.1568C33.0343 35.7101 32.2987 35.7101 31.8106 36.1568L31.1665 36.7462C30.3111 37.529 29.022 37.529 28.1665 36.7462C27.3111 35.9634 26.022 35.9634 25.1665 36.7462C24.3111 37.529 23.022 37.529 22.1665 36.7462C21.3111 35.9634 20.022 35.9634 19.1665 36.7462C18.3111 37.529 17.022 37.529 16.1665 36.7462L15.5224 36.1568C15.0343 35.7101 14.2987 35.7101 13.8106 36.1568C12.9798 36.917 11.6665 36.3099 11.6665 35.1656V16.4934C11.6665 14.9027 11.6665 14.1074 11.8771 13.4659C12.2765 12.2495 13.2041 11.2946 14.3857 10.8834C15.0088 10.6666 15.7814 10.6666 17.3265 10.6666ZM16.9998 17C16.4476 17 15.9998 17.4477 15.9998 18C15.9998 18.5522 16.4476 19 16.9998 19H17.6665C18.2188 19 18.6665 18.5522 18.6665 18C18.6665 17.4477 18.2188 17 17.6665 17H16.9998ZM21.6665 17C21.1142 17 20.6665 17.4477 20.6665 18C20.6665 18.5522 21.1142 19 21.6665 19H30.3332C30.8855 19 31.3332 18.5522 31.3332 18C31.3332 17.4477 30.8855 17 30.3332 17H21.6665ZM16.9998 21.6666C16.4476 21.6666 15.9998 22.1143 15.9998 22.6666C15.9998 23.2189 16.4476 23.6666 16.9998 23.6666H17.6665C18.2188 23.6666 18.6665 23.2189 18.6665 22.6666C18.6665 22.1143 18.2188 21.6666 17.6665 21.6666H16.9998ZM21.6665 21.6666C21.1142 21.6666 20.6665 22.1143 20.6665 22.6666C20.6665 23.2189 21.1142 23.6666 21.6665 23.6666H30.3332C30.8855 23.6666 31.3332 23.2189 31.3332 22.6666C31.3332 22.1143 30.8855 21.6666 30.3332 21.6666H21.6665ZM16.9998 26.3333C16.4476 26.3333 15.9998 26.781 15.9998 27.3333C15.9998 27.8856 16.4476 28.3333 16.9998 28.3333H17.6665C18.2188 28.3333 18.6665 27.8856 18.6665 27.3333C18.6665 26.781 18.2188 26.3333 17.6665 26.3333H16.9998ZM21.6665 26.3333C21.1142 26.3333 20.6665 26.781 20.6665 27.3333C20.6665 27.8856 21.1142 28.3333 21.6665 28.3333H30.3332C30.8855 28.3333 31.3332 27.8856 31.3332 27.3333C31.3332 26.781 30.8855 26.3333 30.3332 26.3333H21.6665Z" fill="#FD8E1F"/>
</svg>
