<svg width="60" height="60" viewBox="0 0 60 60" fill="none" xmlns="http://www.w3.org/2000/svg">
<rect width="60" height="60" fill="#EBEBFF"/>
<path fill-rule="evenodd" clip-rule="evenodd" d="M23.66 16.667H36.34C37.8851 16.667 38.6577 16.667 39.2808 16.8838C40.4624 17.2949 41.39 18.2499 41.7894 19.4663C42 20.1077 42 20.9031 42 22.4937V41.1659C42 42.3102 40.6867 42.9174 39.8559 42.1571C39.3678 41.7105 38.6322 41.7105 38.1441 42.1571L37.5 42.7466C36.6446 43.5294 35.3554 43.5294 34.5 42.7466C33.6446 41.9638 32.3554 41.9638 31.5 42.7466C30.6446 43.5294 29.3554 43.5294 28.5 42.7466C27.6446 41.9638 26.3554 41.9638 25.5 42.7466C24.6446 43.5294 23.3554 43.5294 22.5 42.7466L21.8559 42.1571C21.3678 41.7105 20.6322 41.7105 20.1441 42.1571C19.3133 42.9174 18 42.3102 18 41.1659V22.4937C18 20.9031 18 20.1077 18.2106 19.4663C18.61 18.2499 19.5376 17.2949 20.7192 16.8838C21.3423 16.667 22.1149 16.667 23.66 16.667ZM34.0793 25.333C34.4471 24.921 34.4113 24.2889 33.9993 23.9211C33.5874 23.5532 32.9552 23.589 32.5874 24.001L28.5714 28.4989L27.4126 27.201C27.0448 26.789 26.4126 26.7532 26.0007 27.1211C25.5887 27.4889 25.5529 28.121 25.9207 28.533L27.8255 30.6664C28.0152 30.8788 28.2866 31.0003 28.5714 31.0003C28.8563 31.0003 29.1276 30.8788 29.3174 30.6664L34.0793 25.333ZM24 33.667C23.4477 33.667 23 34.1147 23 34.667C23 35.2193 23.4477 35.667 24 35.667H36C36.5523 35.667 37 35.2193 37 34.667C37 34.1147 36.5523 33.667 36 33.667H24Z" fill="#564FFD"/>
</svg>
