<svg width="16" height="16" viewBox="0 0 16 16" fill="none" xmlns="http://www.w3.org/2000/svg">
<g clip-path="url(#clip0_1074_13823)">
<path d="M13.9834 8.12374L13.2444 7.99594V7.99594L13.9834 8.12374ZM13.5131 10.8436L12.7741 10.7158V10.7158L13.5131 10.8436ZM4.62518 13.6517L3.87797 13.7163L4.62518 13.6517ZM4.08374 7.38989L4.83095 7.32528L4.08374 7.38989ZM9.32997 3.48123L10.0701 3.6025V3.6025L9.32997 3.48123ZM8.88818 6.17761L9.62832 6.29887V6.29887L8.88818 6.17761ZM4.46543 6.45194L3.97584 5.88379L3.97584 5.88379L4.46543 6.45194ZM5.42459 5.62541L5.91418 6.19357L5.91418 6.19357L5.42459 5.62541ZM7.01204 3.18945L6.28606 3.00113V3.00113L7.01204 3.18945ZM7.32917 1.96688L8.05515 2.1552L8.05515 2.1552L7.32917 1.96688ZM8.44506 1.37652L8.21567 2.09058L8.21567 2.09058L8.44506 1.37652ZM8.54171 1.40757L8.7711 0.69351L8.7711 0.693509L8.54171 1.40757ZM6.57463 4.30869L7.23617 4.66207L6.57463 4.30869ZM9.26979 2.1653L8.54381 2.35362V2.35362L9.26979 2.1653ZM7.7828 1.42188L7.45722 0.746233V0.746233L7.7828 1.42188ZM2.64773 14.3141L1.90052 14.3787H1.90052L2.64773 14.3141ZM2 6.82309L2.74721 6.75848C2.71261 6.35833 2.36893 6.05647 1.96767 6.07378C1.5664 6.0911 1.25 6.42145 1.25 6.82309H2ZM13.2444 7.99594L12.7741 10.7158L14.2521 10.9714L14.7225 8.25155L13.2444 7.99594ZM8.82998 13.917H5.7309V15.417H8.82998V13.917ZM5.37239 13.5871L4.83095 7.32528L3.33653 7.4545L3.87797 13.7163L5.37239 13.5871ZM12.7741 10.7158C12.458 12.5432 10.8059 13.917 8.82998 13.917V15.417C11.4958 15.417 13.805 13.5565 14.2521 10.9714L12.7741 10.7158ZM8.58984 3.35997L8.14805 6.05634L9.62832 6.29887L10.0701 3.6025L8.58984 3.35997ZM4.95502 7.0201L5.91418 6.19357L4.93499 5.05726L3.97584 5.88379L4.95502 7.0201ZM7.73801 3.37777L8.05515 2.1552L6.6032 1.77856L6.28606 3.00113L7.73801 3.37777ZM8.21567 2.09058L8.31232 2.12163L8.7711 0.693509L8.67445 0.662462L8.21567 2.09058ZM7.23617 4.66207C7.45337 4.25545 7.6221 3.8246 7.73801 3.37777L6.28606 3.00113C6.20016 3.33228 6.07492 3.65239 5.9131 3.95532L7.23617 4.66207ZM8.31232 2.12163C8.43817 2.16206 8.51845 2.25583 8.54381 2.35362L9.99576 1.97698C9.83647 1.36293 9.36754 0.885114 8.7711 0.69351L8.31232 2.12163ZM8.05515 2.1552C8.05946 2.13858 8.07411 2.11404 8.10838 2.09753L7.45722 0.746233C7.03849 0.948009 6.72173 1.32164 6.6032 1.77856L8.05515 2.1552ZM8.10838 2.09753C8.14023 2.08218 8.17975 2.07904 8.21567 2.09058L8.67445 0.662462C8.27386 0.533771 7.83692 0.563265 7.45722 0.746233L8.10838 2.09753ZM9.43579 7.57309H12.8899V6.07309H9.43579V7.57309ZM3.39494 14.2495L2.74721 6.75848L1.25279 6.8877L1.90052 14.3787L3.39494 14.2495ZM2.75 14.3421V6.82309H1.25V14.3421H2.75ZM1.90052 14.3787C1.87913 14.1313 2.0741 13.917 2.32447 13.917V15.417C2.95533 15.417 3.44915 14.8764 3.39494 14.2495L1.90052 14.3787ZM10.0701 3.6025C10.1588 3.0614 10.1334 2.50772 9.99576 1.97698L8.54381 2.35362C8.62905 2.68218 8.64472 3.02497 8.58984 3.35997L10.0701 3.6025ZM5.7309 13.917C5.54491 13.917 5.38859 13.7744 5.37239 13.5871L3.87797 13.7163C3.9611 14.6777 4.76517 15.417 5.7309 15.417V13.917ZM5.91418 6.19357C6.37152 5.79947 6.89029 5.30957 7.23617 4.66207L5.9131 3.95532C5.70518 4.34456 5.3677 4.68439 4.93499 5.05726L5.91418 6.19357ZM14.7225 8.25155C14.9191 7.11473 14.0448 6.07309 12.8899 6.07309V7.57309C13.1122 7.57309 13.2828 7.77412 13.2444 7.99594L14.7225 8.25155ZM2.32447 13.917C2.56029 13.917 2.75 14.1081 2.75 14.3421H1.25C1.25 14.9349 1.73025 15.417 2.32447 15.417V13.917ZM8.14805 6.05634C8.018 6.85009 8.62984 7.57309 9.43579 7.57309V6.07309C9.55708 6.07309 9.64754 6.18153 9.62832 6.29887L8.14805 6.05634ZM4.83095 7.32528C4.82092 7.20925 4.86725 7.09573 4.95502 7.0201L3.97584 5.88379C3.52272 6.27424 3.28501 6.85873 3.33653 7.4545L4.83095 7.32528Z" fill="#525252"/>
</g>
<defs>
<clipPath id="clip0_1074_13823">
<rect y="0.000244141" width="16" height="16" rx="3" fill="white"/>
</clipPath>
</defs>
</svg>
