<svg width="61" height="61" viewBox="0 0 61 61" fill="none" xmlns="http://www.w3.org/2000/svg">
<rect width="60" height="60" transform="translate(0.75 0.5)" fill="#FAFDD4"/>
<path fill-rule="evenodd" clip-rule="evenodd" d="M33.4273 39.8369L33.435 37.1663C33.435 36.43 34.0334 35.833 34.7717 35.833C35.5099 35.833 36.1083 36.43 36.1083 37.1663V39.8016C36.1083 40.4437 36.1083 40.7647 36.3142 40.9616C36.5201 41.1584 36.835 41.1451 37.465 41.1184C39.9489 41.0132 41.475 40.6773 42.5506 39.6042C43.6289 38.5287 43.9647 37.0018 44.0693 34.5137C44.0901 34.0203 44.1004 33.7736 44.0083 33.609C43.9161 33.4444 43.5483 33.239 42.8126 32.8281C41.9956 32.3719 41.4433 31.5001 41.4433 30.4997C41.4433 29.4992 41.9956 28.6275 42.8126 28.1712C43.5483 27.7604 43.9161 27.555 44.0083 27.3904C44.1004 27.2258 44.0901 26.9791 44.0693 26.4856C43.9647 23.9975 43.6289 22.4706 42.5506 21.3951C41.3804 20.2277 39.677 19.9327 36.7871 19.8582C36.4143 19.8486 36.1083 20.1492 36.1083 20.5212V23.833C36.1083 24.5694 35.5099 25.1663 34.7717 25.1663C34.0334 25.1663 33.435 24.5694 33.435 23.833L33.4253 20.4977C33.4243 20.1303 33.1253 19.833 32.757 19.833H28.0768C23.0359 19.833 20.5155 19.833 18.9495 21.3951C17.8713 22.4706 17.5355 23.9975 17.4309 26.4856C17.4101 26.9791 17.3997 27.2258 17.4919 27.3904C17.584 27.555 17.9518 27.7604 18.6875 28.1712C19.5046 28.6275 20.0568 29.4992 20.0568 30.4997C20.0568 31.5001 19.5046 32.3719 18.6875 32.8281C17.9519 33.239 17.584 33.4444 17.4919 33.609C17.3997 33.7736 17.4101 34.0203 17.4309 34.5137C17.5355 37.0018 17.8713 38.5287 18.9495 39.6042C20.5155 41.1663 23.0359 41.1663 28.0768 41.1663H32.0906C32.719 41.1663 33.0333 41.1663 33.2289 40.9718C33.4245 40.7772 33.4254 40.4637 33.4273 39.8369ZM36.1083 31.833V29.1663C36.1083 28.43 35.5099 27.833 34.7717 27.833C34.0334 27.833 33.435 28.43 33.435 29.1663V31.833C33.435 32.5694 34.0334 33.1663 34.7717 33.1663C35.5099 33.1663 36.1083 32.5694 36.1083 31.833Z" fill="#AC9D16"/>
</svg>
