<svg width="53" height="52" viewBox="0 0 53 52" fill="none" xmlns="http://www.w3.org/2000/svg">
<rect width="52" height="52" transform="translate(0.666504)" fill="#FFF2E5"/>
<path fill-rule="evenodd" clip-rule="evenodd" d="M21.9115 16H31.4215C32.5804 16 33.1598 16 33.6271 16.1626C34.5133 16.471 35.209 17.1872 35.5086 18.0995C35.6665 18.5805 35.6665 19.1771 35.6665 20.3701V34.3742C35.6665 35.2324 34.6815 35.6878 34.0584 35.1176C33.6923 34.7826 33.1407 34.7826 32.7746 35.1176L32.2915 35.5597C31.6499 36.1468 30.6831 36.1468 30.0415 35.5597C29.3999 34.9726 28.4331 34.9726 27.7915 35.5597C27.1499 36.1468 26.1831 36.1468 25.5415 35.5597C24.8999 34.9726 23.9331 34.9726 23.2915 35.5597C22.6499 36.1468 21.6831 36.1468 21.0415 35.5597L20.5584 35.1176C20.1923 34.7826 19.6407 34.7826 19.2746 35.1176C18.6515 35.6878 17.6665 35.2324 17.6665 34.3742V20.3701C17.6665 19.1771 17.6665 18.5805 17.8245 18.0995C18.124 17.1872 18.8197 16.471 19.7059 16.1626C20.1732 16 20.7526 16 21.9115 16ZM21.6665 20.75C21.2523 20.75 20.9165 21.0858 20.9165 21.5C20.9165 21.9142 21.2523 22.25 21.6665 22.25H22.1665C22.5807 22.25 22.9165 21.9142 22.9165 21.5C22.9165 21.0858 22.5807 20.75 22.1665 20.75H21.6665ZM25.1665 20.75C24.7523 20.75 24.4165 21.0858 24.4165 21.5C24.4165 21.9142 24.7523 22.25 25.1665 22.25H31.6665C32.0807 22.25 32.4165 21.9142 32.4165 21.5C32.4165 21.0858 32.0807 20.75 31.6665 20.75H25.1665ZM21.6665 24.25C21.2523 24.25 20.9165 24.5858 20.9165 25C20.9165 25.4142 21.2523 25.75 21.6665 25.75H22.1665C22.5807 25.75 22.9165 25.4142 22.9165 25C22.9165 24.5858 22.5807 24.25 22.1665 24.25H21.6665ZM25.1665 24.25C24.7523 24.25 24.4165 24.5858 24.4165 25C24.4165 25.4142 24.7523 25.75 25.1665 25.75H31.6665C32.0807 25.75 32.4165 25.4142 32.4165 25C32.4165 24.5858 32.0807 24.25 31.6665 24.25H25.1665ZM21.6665 27.75C21.2523 27.75 20.9165 28.0858 20.9165 28.5C20.9165 28.9142 21.2523 29.25 21.6665 29.25H22.1665C22.5807 29.25 22.9165 28.9142 22.9165 28.5C22.9165 28.0858 22.5807 27.75 22.1665 27.75H21.6665ZM25.1665 27.75C24.7523 27.75 24.4165 28.0858 24.4165 28.5C24.4165 28.9142 24.7523 29.25 25.1665 29.25H31.6665C32.0807 29.25 32.4165 28.9142 32.4165 28.5C32.4165 28.0858 32.0807 27.75 31.6665 27.75H25.1665Z" fill="#FD8E1F"/>
</svg>
