<svg width="61" height="60" viewBox="0 0 61 60" fill="none" xmlns="http://www.w3.org/2000/svg">
<rect width="60" height="60" transform="translate(0.333252)" fill="#E1F7E3"/>
<path fill-rule="evenodd" clip-rule="evenodd" d="M18.9526 18.6196C17 20.5722 17 23.7149 17 30.0003C17 36.2857 17 39.4284 18.9526 41.381C20.9052 43.3337 24.0479 43.3337 30.3333 43.3337C36.6187 43.3337 39.7614 43.3337 41.714 41.381C43.6667 39.4284 43.6667 36.2857 43.6667 30.0003C43.6667 23.7149 43.6667 20.5722 41.714 18.6196C39.7614 16.667 36.6187 16.667 30.3333 16.667C24.0479 16.667 20.9052 16.667 18.9526 18.6196ZM35.0404 25.2932C35.431 25.6837 35.431 26.3169 35.0404 26.7074L27.0404 34.7074C26.6499 35.098 26.0168 35.098 25.6262 34.7074C25.2357 34.3169 25.2357 33.6837 25.6262 33.2932L33.6262 25.2932C34.0168 24.9027 34.6499 24.9027 35.0404 25.2932ZM28.3333 26.667C28.3333 27.4034 27.7364 28.0003 27 28.0003C26.2636 28.0003 25.6667 27.4034 25.6667 26.667C25.6667 25.9306 26.2636 25.3337 27 25.3337C27.7364 25.3337 28.3333 25.9306 28.3333 26.667ZM33.6667 34.667C34.403 34.667 35 34.07 35 33.3337C35 32.5973 34.403 32.0003 33.6667 32.0003C32.9303 32.0003 32.3333 32.5973 32.3333 33.3337C32.3333 34.07 32.9303 34.667 33.6667 34.667Z" fill="#23BD33"/>
</svg>
