<svg width="61" height="61" viewBox="0 0 61 61" fill="none" xmlns="http://www.w3.org/2000/svg">
<rect width="60" height="60" transform="translate(0.5 0.5)" fill="#E1F7E3"/>
<path fill-rule="evenodd" clip-rule="evenodd" d="M33.1773 39.8369L33.185 37.1663C33.185 36.43 33.7834 35.833 34.5217 35.833C35.2599 35.833 35.8583 36.43 35.8583 37.1663V39.8016C35.8583 40.4437 35.8583 40.7647 36.0642 40.9616C36.2701 41.1584 36.585 41.1451 37.215 41.1184C39.6989 41.0132 41.225 40.6773 42.3006 39.6042C43.3789 38.5287 43.7147 37.0018 43.8193 34.5137C43.8401 34.0203 43.8504 33.7736 43.7583 33.609C43.6661 33.4444 43.2983 33.239 42.5626 32.8281C41.7456 32.3719 41.1933 31.5001 41.1933 30.4997C41.1933 29.4992 41.7456 28.6275 42.5626 28.1712C43.2983 27.7604 43.6661 27.555 43.7583 27.3904C43.8504 27.2258 43.8401 26.9791 43.8193 26.4856C43.7147 23.9975 43.3789 22.4706 42.3006 21.3951C41.1304 20.2277 39.427 19.9327 36.5371 19.8582C36.1643 19.8486 35.8583 20.1492 35.8583 20.5212V23.833C35.8583 24.5694 35.2599 25.1663 34.5217 25.1663C33.7834 25.1663 33.185 24.5694 33.185 23.833L33.1753 20.4977C33.1743 20.1303 32.8753 19.833 32.507 19.833H27.8268C22.7859 19.833 20.2655 19.833 18.6995 21.3951C17.6213 22.4706 17.2855 23.9975 17.1809 26.4856C17.1601 26.9791 17.1497 27.2258 17.2419 27.3904C17.334 27.555 17.7018 27.7604 18.4375 28.1712C19.2546 28.6275 19.8068 29.4992 19.8068 30.4997C19.8068 31.5001 19.2546 32.3719 18.4375 32.8281C17.7019 33.239 17.334 33.4444 17.2419 33.609C17.1497 33.7736 17.1601 34.0203 17.1809 34.5137C17.2855 37.0018 17.6213 38.5287 18.6995 39.6042C20.2655 41.1663 22.7859 41.1663 27.8268 41.1663H31.8406C32.469 41.1663 32.7833 41.1663 32.9789 40.9718C33.1745 40.7772 33.1754 40.4637 33.1773 39.8369ZM35.8583 31.833V29.1663C35.8583 28.43 35.2599 27.833 34.5217 27.833C33.7834 27.833 33.185 28.43 33.185 29.1663V31.833C33.185 32.5694 33.7834 33.1663 34.5217 33.1663C35.2599 33.1663 35.8583 32.5694 35.8583 31.833Z" fill="#03A900"/>
</svg>
