<svg width="60" height="60" viewBox="0 0 60 60" fill="none" xmlns="http://www.w3.org/2000/svg">
<rect width="60" height="60" fill="#E1F7E3"/>
<path d="M16.6667 20.6667C16.6667 19.4096 16.6667 18.781 17.0572 18.3905C17.4477 18 18.0763 18 19.3333 18H40.6667C41.9237 18 42.5523 18 42.9428 18.3905C43.3333 18.781 43.3333 19.4096 43.3333 20.6667C43.3333 21.9237 43.3333 22.5523 42.9428 22.9428C42.5523 23.3333 41.9237 23.3333 40.6667 23.3333H19.3333C18.0763 23.3333 17.4477 23.3333 17.0572 22.9428C16.6667 22.5523 16.6667 21.9237 16.6667 20.6667Z" fill="#23BD33"/>
<path fill-rule="evenodd" clip-rule="evenodd" d="M40.7586 25.3334C40.9468 25.3335 41.1402 25.3335 41.3333 25.3309V31.3333C41.3333 36.3617 41.3333 38.8758 39.7712 40.4379C38.2091 42 35.695 42 30.6667 42H29.3333C24.305 42 21.7909 42 20.2288 40.4379C18.6667 38.8758 18.6667 36.3617 18.6667 31.3333V25.3309C18.8598 25.3335 19.0533 25.3335 19.2415 25.3334H40.7586ZM26 30C26 29.3787 26 29.0681 26.1015 28.8231C26.2368 28.4964 26.4964 28.2368 26.8231 28.1015C27.0681 28 27.3787 28 28 28H32C32.6213 28 32.9319 28 33.1769 28.1015C33.5036 28.2368 33.7632 28.4964 33.8985 28.8231C34 29.0681 34 29.3787 34 30C34 30.6212 34 30.9319 33.8985 31.1769C33.7632 31.5036 33.5036 31.7632 33.1769 31.8985C32.9319 32 32.6213 32 32 32H28C27.3787 32 27.0681 32 26.8231 31.8985C26.4964 31.7632 26.2368 31.5036 26.1015 31.1769C26 30.9319 26 30.6212 26 30Z" fill="#23BD33"/>
</svg>
