<svg width="16" height="17" viewBox="0 0 16 17" fill="none" xmlns="http://www.w3.org/2000/svg">
<path d="M10 11.1666H11.3333C12.8061 11.1666 14 9.97268 14 8.49992C14 7.02716 12.8061 5.83325 11.3333 5.83325H10M5.33333 8.49992H10.6667M6 5.83325H4.66667C3.19391 5.83325 2 7.02716 2 8.49992C2 9.97268 3.19391 11.1666 4.66667 11.1666H6" stroke="#3FAAE0" stroke-width="1.5" stroke-linecap="round" stroke-linejoin="round"/>
<path d="M10 11.1666H11.3333C12.8061 11.1666 14 9.97268 14 8.49992C14 7.02716 12.8061 5.83325 11.3333 5.83325H10M5.33333 8.49992H10.6667M6 5.83325H4.66667C3.19391 5.83325 2 7.02716 2 8.49992C2 9.97268 3.19391 11.1666 4.66667 11.1666H6" stroke="black" stroke-opacity="0.2" stroke-width="1.5" stroke-linecap="round" stroke-linejoin="round"/>
</svg>
