<svg width="148" height="23" viewBox="0 0 148 23" fill="none" xmlns="http://www.w3.org/2000/svg">
<path d="M17.9318 6.92045V8.625H0.545455V6.92045H17.9318ZM17.9318 10.6023V12.3068H0.545455V10.6023H17.9318ZM16.1591 0.545454V18H14.1136L4.60227 4.29545H4.43182V18H2.31818V0.545454H4.36364L13.9091 14.2841H14.0795V0.545454H16.1591ZM20.2756 18V16.4659L26.0369 10.1591C26.7131 9.42045 27.2699 8.77841 27.7074 8.23295C28.1449 7.68182 28.4688 7.16477 28.679 6.68182C28.8949 6.19318 29.0028 5.68182 29.0028 5.14773C29.0028 4.53409 28.8551 4.00284 28.5597 3.55398C28.2699 3.10511 27.8722 2.75852 27.3665 2.5142C26.8608 2.26989 26.2926 2.14773 25.6619 2.14773C24.9915 2.14773 24.4062 2.28693 23.9062 2.56534C23.4119 2.83807 23.0284 3.22159 22.7557 3.71591C22.4886 4.21023 22.3551 4.78977 22.3551 5.45454H20.3438C20.3438 4.43182 20.5795 3.53409 21.0511 2.76136C21.5227 1.98864 22.1648 1.38636 22.9773 0.954545C23.7955 0.522727 24.7131 0.306818 25.7301 0.306818C26.7528 0.306818 27.6591 0.522727 28.4489 0.954545C29.2386 1.38636 29.858 1.96875 30.3068 2.7017C30.7557 3.43466 30.9801 4.25 30.9801 5.14773C30.9801 5.78977 30.8636 6.41761 30.6307 7.03125C30.4034 7.6392 30.0057 8.31818 29.4375 9.06818C28.875 9.8125 28.0938 10.7216 27.0938 11.7955L23.1733 15.9886V16.125H31.2869V18H20.2756ZM34.0227 14.4205V12.6818L41.6932 0.545454H42.9545V3.23864H42.1023L36.3068 12.4091V12.5455H46.6364V14.4205H34.0227ZM42.2386 18V13.892V13.0824V0.545454H44.25V18H42.2386ZM52.044 15.6136L51.9077 16.5341C51.8111 17.1818 51.6634 17.875 51.4645 18.6136C51.2713 19.3523 51.0696 20.0483 50.8594 20.7017C50.6491 21.3551 50.4759 21.875 50.3395 22.2614H48.8054C48.8793 21.8977 48.9759 21.4176 49.0952 20.821C49.2145 20.2244 49.3338 19.5568 49.4531 18.8182C49.5781 18.0852 49.6804 17.3352 49.7599 16.5682L49.8622 15.6136H52.044ZM60.8203 18.2386C59.5362 18.2386 58.4425 17.8892 57.5391 17.1903C56.6357 16.4858 55.9453 15.4659 55.468 14.1307C54.9908 12.7898 54.7521 11.1705 54.7521 9.27273C54.7521 7.38636 54.9908 5.77557 55.468 4.44034C55.951 3.09943 56.6442 2.0767 57.5476 1.37216C58.4567 0.661931 59.5476 0.306818 60.8203 0.306818C62.093 0.306818 63.1811 0.661931 64.0845 1.37216C64.9936 2.0767 65.6868 3.09943 66.1641 4.44034C66.647 5.77557 66.8885 7.38636 66.8885 9.27273C66.8885 11.1705 66.6499 12.7898 66.1726 14.1307C65.6953 15.4659 65.005 16.4858 64.1016 17.1903C63.1982 17.8892 62.1044 18.2386 60.8203 18.2386ZM60.8203 16.3636C62.093 16.3636 63.0817 15.75 63.7862 14.5227C64.4908 13.2955 64.843 11.5455 64.843 9.27273C64.843 7.76136 64.6811 6.47443 64.3572 5.41193C64.0391 4.34943 63.5788 3.53977 62.9766 2.98295C62.38 2.42614 61.6612 2.14773 60.8203 2.14773C59.5589 2.14773 58.5732 2.76989 57.8629 4.0142C57.1527 5.25284 56.7976 7.00568 56.7976 9.27273C56.7976 10.7841 56.9567 12.0682 57.2749 13.125C57.593 14.1818 58.0504 14.9858 58.647 15.5369C59.2493 16.0881 59.9737 16.3636 60.8203 16.3636ZM75.8203 18.2386C74.5362 18.2386 73.4425 17.8892 72.5391 17.1903C71.6357 16.4858 70.9453 15.4659 70.468 14.1307C69.9908 12.7898 69.7521 11.1705 69.7521 9.27273C69.7521 7.38636 69.9908 5.77557 70.468 4.44034C70.951 3.09943 71.6442 2.0767 72.5476 1.37216C73.4567 0.661931 74.5476 0.306818 75.8203 0.306818C77.093 0.306818 78.1811 0.661931 79.0845 1.37216C79.9936 2.0767 80.6868 3.09943 81.1641 4.44034C81.647 5.77557 81.8885 7.38636 81.8885 9.27273C81.8885 11.1705 81.6499 12.7898 81.1726 14.1307C80.6953 15.4659 80.005 16.4858 79.1016 17.1903C78.1982 17.8892 77.1044 18.2386 75.8203 18.2386ZM75.8203 16.3636C77.093 16.3636 78.0817 15.75 78.7862 14.5227C79.4908 13.2955 79.843 11.5455 79.843 9.27273C79.843 7.76136 79.6811 6.47443 79.3572 5.41193C79.0391 4.34943 78.5788 3.53977 77.9766 2.98295C77.38 2.42614 76.6612 2.14773 75.8203 2.14773C74.5589 2.14773 73.5732 2.76989 72.8629 4.0142C72.1527 5.25284 71.7976 7.00568 71.7976 9.27273C71.7976 10.7841 71.9567 12.0682 72.2749 13.125C72.593 14.1818 73.0504 14.9858 73.647 15.5369C74.2493 16.0881 74.9737 16.3636 75.8203 16.3636ZM90.8203 18.2386C89.5362 18.2386 88.4425 17.8892 87.5391 17.1903C86.6357 16.4858 85.9453 15.4659 85.468 14.1307C84.9908 12.7898 84.7521 11.1705 84.7521 9.27273C84.7521 7.38636 84.9908 5.77557 85.468 4.44034C85.951 3.09943 86.6442 2.0767 87.5476 1.37216C88.4567 0.661931 89.5476 0.306818 90.8203 0.306818C92.093 0.306818 93.1811 0.661931 94.0845 1.37216C94.9936 2.0767 95.6868 3.09943 96.1641 4.44034C96.647 5.77557 96.8885 7.38636 96.8885 9.27273C96.8885 11.1705 96.6499 12.7898 96.1726 14.1307C95.6953 15.4659 95.005 16.4858 94.1016 17.1903C93.1982 17.8892 92.1044 18.2386 90.8203 18.2386ZM90.8203 16.3636C92.093 16.3636 93.0817 15.75 93.7862 14.5227C94.4908 13.2955 94.843 11.5455 94.843 9.27273C94.843 7.76136 94.6811 6.47443 94.3572 5.41193C94.0391 4.34943 93.5788 3.53977 92.9766 2.98295C92.38 2.42614 91.6612 2.14773 90.8203 2.14773C89.5589 2.14773 88.5732 2.76989 87.8629 4.0142C87.1527 5.25284 86.7976 7.00568 86.7976 9.27273C86.7976 10.7841 86.9567 12.0682 87.2749 13.125C87.593 14.1818 88.0504 14.9858 88.647 15.5369C89.2493 16.0881 89.9737 16.3636 90.8203 16.3636ZM102.552 15.6136L102.415 16.5341C102.319 17.1818 102.171 17.875 101.972 18.6136C101.779 19.3523 101.577 20.0483 101.367 20.7017C101.157 21.3551 100.984 21.875 100.847 22.2614H99.3132C99.3871 21.8977 99.4837 21.4176 99.603 20.821C99.7223 20.2244 99.8416 19.5568 99.9609 18.8182C100.086 18.0852 100.188 17.3352 100.268 16.5682L100.37 15.6136H102.552ZM111.328 18.2386C110.044 18.2386 108.95 17.8892 108.047 17.1903C107.143 16.4858 106.453 15.4659 105.976 14.1307C105.499 12.7898 105.26 11.1705 105.26 9.27273C105.26 7.38636 105.499 5.77557 105.976 4.44034C106.459 3.09943 107.152 2.0767 108.055 1.37216C108.964 0.661931 110.055 0.306818 111.328 0.306818C112.601 0.306818 113.689 0.661931 114.592 1.37216C115.501 2.0767 116.195 3.09943 116.672 4.44034C117.155 5.77557 117.396 7.38636 117.396 9.27273C117.396 11.1705 117.158 12.7898 116.68 14.1307C116.203 15.4659 115.513 16.4858 114.609 17.1903C113.706 17.8892 112.612 18.2386 111.328 18.2386ZM111.328 16.3636C112.601 16.3636 113.589 15.75 114.294 14.5227C114.999 13.2955 115.351 11.5455 115.351 9.27273C115.351 7.76136 115.189 6.47443 114.865 5.41193C114.547 4.34943 114.087 3.53977 113.484 2.98295C112.888 2.42614 112.169 2.14773 111.328 2.14773C110.067 2.14773 109.081 2.76989 108.371 4.0142C107.661 5.25284 107.305 7.00568 107.305 9.27273C107.305 10.7841 107.464 12.0682 107.783 13.125C108.101 14.1818 108.558 14.9858 109.155 15.5369C109.757 16.0881 110.482 16.3636 111.328 16.3636ZM126.328 18.2386C125.044 18.2386 123.95 17.8892 123.047 17.1903C122.143 16.4858 121.453 15.4659 120.976 14.1307C120.499 12.7898 120.26 11.1705 120.26 9.27273C120.26 7.38636 120.499 5.77557 120.976 4.44034C121.459 3.09943 122.152 2.0767 123.055 1.37216C123.964 0.661931 125.055 0.306818 126.328 0.306818C127.601 0.306818 128.689 0.661931 129.592 1.37216C130.501 2.0767 131.195 3.09943 131.672 4.44034C132.155 5.77557 132.396 7.38636 132.396 9.27273C132.396 11.1705 132.158 12.7898 131.68 14.1307C131.203 15.4659 130.513 16.4858 129.609 17.1903C128.706 17.8892 127.612 18.2386 126.328 18.2386ZM126.328 16.3636C127.601 16.3636 128.589 15.75 129.294 14.5227C129.999 13.2955 130.351 11.5455 130.351 9.27273C130.351 7.76136 130.189 6.47443 129.865 5.41193C129.547 4.34943 129.087 3.53977 128.484 2.98295C127.888 2.42614 127.169 2.14773 126.328 2.14773C125.067 2.14773 124.081 2.76989 123.371 4.0142C122.661 5.25284 122.305 7.00568 122.305 9.27273C122.305 10.7841 122.464 12.0682 122.783 13.125C123.101 14.1818 123.558 14.9858 124.155 15.5369C124.757 16.0881 125.482 16.3636 126.328 16.3636ZM141.328 18.2386C140.044 18.2386 138.95 17.8892 138.047 17.1903C137.143 16.4858 136.453 15.4659 135.976 14.1307C135.499 12.7898 135.26 11.1705 135.26 9.27273C135.26 7.38636 135.499 5.77557 135.976 4.44034C136.459 3.09943 137.152 2.0767 138.055 1.37216C138.964 0.661931 140.055 0.306818 141.328 0.306818C142.601 0.306818 143.689 0.661931 144.592 1.37216C145.501 2.0767 146.195 3.09943 146.672 4.44034C147.155 5.77557 147.396 7.38636 147.396 9.27273C147.396 11.1705 147.158 12.7898 146.68 14.1307C146.203 15.4659 145.513 16.4858 144.609 17.1903C143.706 17.8892 142.612 18.2386 141.328 18.2386ZM141.328 16.3636C142.601 16.3636 143.589 15.75 144.294 14.5227C144.999 13.2955 145.351 11.5455 145.351 9.27273C145.351 7.76136 145.189 6.47443 144.865 5.41193C144.547 4.34943 144.087 3.53977 143.484 2.98295C142.888 2.42614 142.169 2.14773 141.328 2.14773C140.067 2.14773 139.081 2.76989 138.371 4.0142C137.661 5.25284 137.305 7.00568 137.305 9.27273C137.305 10.7841 137.464 12.0682 137.783 13.125C138.101 14.1818 138.558 14.9858 139.155 15.5369C139.757 16.0881 140.482 16.3636 141.328 16.3636Z" fill="#1D2026"/>
</svg>
