<svg width="61" height="60" viewBox="0 0 61 60" fill="none" xmlns="http://www.w3.org/2000/svg">
<rect width="60" height="60" transform="translate(0.666504)" fill="#FFF2E5"/>
<path fill-rule="evenodd" clip-rule="evenodd" d="M23.1109 16.667H38.2221C38.6348 16.667 38.8411 16.667 39.0151 16.683C40.9489 16.8605 42.4821 18.4691 42.6513 20.4979C42.6665 20.6805 42.6665 20.897 42.6665 21.33V41.0134C42.6665 42.1768 41.2549 42.6704 40.5896 41.7397C40.128 41.0941 39.205 41.0941 38.7434 41.7397L38.1665 42.5468C37.4165 43.596 35.9165 43.596 35.1665 42.5468C34.4165 41.4976 32.9165 41.4976 32.1665 42.5468C31.4165 43.596 29.9165 43.596 29.1665 42.5468C28.4165 41.4976 26.9165 41.4976 26.1665 42.5468C25.4165 43.596 23.9165 43.596 23.1665 42.5468L22.5896 41.7397C22.128 41.0941 21.205 41.0941 20.7434 41.7397C20.0781 42.6704 18.6665 42.1767 18.6665 41.0134V21.33C18.6665 20.897 18.6665 20.6805 18.6817 20.4979C18.8509 18.4691 20.3841 16.8605 22.3179 16.683C22.4919 16.667 22.6982 16.667 23.1109 16.667ZM28.707 23.9599C28.3164 23.5694 27.6833 23.5694 27.2928 23.9599C26.9022 24.3504 26.9022 24.9836 27.2928 25.3741L29.2523 27.3337L27.2928 29.2932C26.9023 29.6837 26.9023 30.3169 27.2928 30.7074C27.6833 31.098 28.3165 31.098 28.707 30.7074L30.6665 28.7479L32.6261 30.7074C33.0166 31.0979 33.6498 31.0979 34.0403 30.7074C34.4308 30.3169 34.4308 29.6837 34.0403 29.2932L32.0808 27.3337L34.0403 25.3741C34.4308 24.9836 34.4308 24.3504 34.0403 23.9599C33.6498 23.5694 33.0166 23.5694 32.6261 23.9599L30.6665 25.9195L28.707 23.9599ZM24.6665 33.667C24.1142 33.667 23.6665 34.1147 23.6665 34.667C23.6665 35.2193 24.1142 35.667 24.6665 35.667H36.6665C37.2188 35.667 37.6665 35.2193 37.6665 34.667C37.6665 34.1147 37.2188 33.667 36.6665 33.667H24.6665Z" fill="#FD8E1F"/>
</svg>
