<svg width="48" height="48" viewBox="0 0 48 48" fill="none" xmlns="http://www.w3.org/2000/svg">
<rect x="0.5" y="0.5" width="47" height="47" rx="23.5" fill="#F5F7FA"/>
<rect x="0.5" y="0.5" width="47" height="47" rx="23.5" stroke="#564FFD"/>
<path d="M34.1089 32.6946C36.1186 30.3601 37.3334 27.3219 37.3334 24C37.3334 20.678 36.1186 17.6398 34.1089 15.3054L28.4119 21.0023C28.9935 21.8566 29.3334 22.8886 29.3334 24C29.3334 25.1113 28.9935 26.1433 28.4119 26.9976L34.1089 32.6946Z" fill="#564FFD"/>
<path d="M32.6947 34.1088C30.3603 36.1184 27.322 37.3333 24.0001 37.3333C20.6781 37.3333 17.6399 36.1184 15.3055 34.1088L21.0025 28.4118C21.8567 28.9934 22.8887 29.3333 24.0001 29.3333C25.1115 29.3333 26.1434 28.9934 26.9977 28.4118L32.6947 34.1088Z" fill="#564FFD"/>
<path d="M13.8913 32.6946L19.5882 26.9976C19.0067 26.1433 18.6667 25.1113 18.6667 24C18.6667 22.8886 19.0067 21.8566 19.5882 21.0023L13.8913 15.3054C11.8816 17.6398 10.6667 20.678 10.6667 24C10.6667 27.3219 11.8816 30.3601 13.8913 32.6946Z" fill="#564FFD"/>
<path d="M24.0001 18.6666C22.8887 18.6666 21.8567 19.0066 21.0025 19.5881L15.3055 13.8912C17.6399 11.8815 20.6781 10.6666 24.0001 10.6666C27.322 10.6666 30.3602 11.8815 32.6947 13.8912L26.9977 19.5881C26.1434 19.0066 25.1115 18.6666 24.0001 18.6666Z" fill="#564FFD"/>
</svg>
