<svg width="14" height="16" viewBox="0 0 14 16" fill="none" xmlns="http://www.w3.org/2000/svg">
<path d="M12.9834 8.12313L12.2444 7.99533V7.99533L12.9834 8.12313ZM12.5131 10.843L11.7741 10.7152V10.7152L12.5131 10.843ZM3.62518 13.6511L2.87797 13.7157L3.62518 13.6511ZM3.08374 7.38928L3.83095 7.32467L3.08374 7.38928ZM8.32997 3.48062L9.0701 3.60189V3.60189L8.32997 3.48062ZM7.88818 6.17699L8.62832 6.29826V6.29826L7.88818 6.17699ZM3.46543 6.45133L2.97584 5.88318L2.97584 5.88318L3.46543 6.45133ZM4.42459 5.6248L4.91418 6.19296L4.91418 6.19296L4.42459 5.6248ZM6.01204 3.18884L5.28606 3.00052V3.00052L6.01204 3.18884ZM6.32917 1.96627L7.05515 2.15459L7.05515 2.15459L6.32917 1.96627ZM7.44506 1.37591L7.21567 2.08997L7.21567 2.08997L7.44506 1.37591ZM7.54171 1.40696L7.7711 0.692899L7.7711 0.692899L7.54171 1.40696ZM5.57463 4.30808L6.23617 4.66146L5.57463 4.30808ZM8.26979 2.16469L7.54381 2.35301V2.35301L8.26979 2.16469ZM6.7828 1.42127L6.45722 0.745623V0.745623L6.7828 1.42127ZM1.64773 14.3135L0.90052 14.3781H0.90052L1.64773 14.3135ZM1 6.82247L1.74721 6.75787C1.71261 6.35772 1.36893 6.05586 0.967665 6.07317C0.566401 6.09049 0.25 6.42084 0.25 6.82247H1ZM12.2444 7.99533L11.7741 10.7152L13.2521 10.9708L13.7225 8.25094L12.2444 7.99533ZM7.82998 13.9163H4.7309V15.4163H7.82998V13.9163ZM4.37239 13.5864L3.83095 7.32467L2.33653 7.45389L2.87797 13.7157L4.37239 13.5864ZM11.7741 10.7152C11.458 12.5426 9.80586 13.9163 7.82998 13.9163V15.4163C10.4958 15.4163 12.805 13.5559 13.2521 10.9708L11.7741 10.7152ZM7.58984 3.35936L7.14805 6.05573L8.62832 6.29826L9.0701 3.60189L7.58984 3.35936ZM3.95502 7.01949L4.91418 6.19296L3.93499 5.05665L2.97584 5.88318L3.95502 7.01949ZM6.73801 3.37716L7.05515 2.15459L5.6032 1.77795L5.28606 3.00052L6.73801 3.37716ZM7.21567 2.08997L7.31232 2.12102L7.7711 0.692899L7.67445 0.661851L7.21567 2.08997ZM6.23617 4.66146C6.45337 4.25483 6.6221 3.82399 6.73801 3.37716L5.28606 3.00052C5.20016 3.33167 5.07492 3.65178 4.9131 3.95471L6.23617 4.66146ZM7.31232 2.12102C7.43817 2.16144 7.51845 2.25522 7.54381 2.35301L8.99576 1.97637C8.83647 1.36232 8.36754 0.884504 7.7711 0.692899L7.31232 2.12102ZM7.05515 2.15459C7.05946 2.13797 7.07411 2.11343 7.10838 2.09692L6.45722 0.745623C6.03849 0.947398 5.72173 1.32103 5.6032 1.77795L7.05515 2.15459ZM7.10838 2.09692C7.14023 2.08157 7.17975 2.07843 7.21567 2.08997L7.67445 0.661852C7.27386 0.53316 6.83692 0.562654 6.45722 0.745623L7.10838 2.09692ZM8.43579 7.57247H11.8899V6.07247H8.43579V7.57247ZM2.39494 14.2489L1.74721 6.75787L0.252788 6.88708L0.90052 14.3781L2.39494 14.2489ZM1.75 14.3415V6.82247H0.25V14.3415H1.75ZM0.90052 14.3781C0.879126 14.1307 1.0741 13.9163 1.32447 13.9163V15.4163C1.95533 15.4163 2.44915 14.8758 2.39494 14.2489L0.90052 14.3781ZM9.0701 3.60189C9.15875 3.06079 9.13344 2.50711 8.99576 1.97637L7.54381 2.35301C7.62905 2.68157 7.64472 3.02436 7.58984 3.35936L9.0701 3.60189ZM4.7309 13.9163C4.54491 13.9163 4.38859 13.7738 4.37239 13.5864L2.87797 13.7157C2.9611 14.6771 3.76517 15.4163 4.7309 15.4163V13.9163ZM4.91418 6.19296C5.37152 5.79886 5.89029 5.30896 6.23617 4.66146L4.9131 3.95471C4.70518 4.34395 4.3677 4.68378 3.93499 5.05665L4.91418 6.19296ZM13.7225 8.25094C13.9191 7.11412 13.0448 6.07247 11.8899 6.07247V7.57247C12.1122 7.57247 12.2828 7.77351 12.2444 7.99533L13.7225 8.25094ZM1.32447 13.9163C1.56029 13.9163 1.75 14.1075 1.75 14.3415H0.25C0.25 14.9343 0.730255 15.4163 1.32447 15.4163V13.9163ZM7.14805 6.05573C7.018 6.84948 7.62984 7.57247 8.43579 7.57247V6.07247C8.55708 6.07247 8.64754 6.18092 8.62832 6.29826L7.14805 6.05573ZM3.83095 7.32467C3.82092 7.20864 3.86725 7.09512 3.95502 7.01949L2.97584 5.88318C2.52272 6.27363 2.28501 6.85811 2.33653 7.45389L3.83095 7.32467Z" fill="#525252"/>
</svg>
