<svg width="61" height="61" viewBox="0 0 61 61" fill="none" xmlns="http://www.w3.org/2000/svg">
<rect width="60" height="60" transform="translate(0.666504 0.5)" fill="#DF1212" fill-opacity="0.1"/>
<path fill-rule="evenodd" clip-rule="evenodd" d="M19.2859 19.1191C17.3333 21.0717 17.3333 24.2144 17.3333 30.4998C17.3333 36.7852 17.3333 39.9279 19.2859 41.8805C21.2385 43.8332 24.3812 43.8332 30.6666 43.8332C36.952 43.8332 40.0947 43.8332 42.0473 41.8805C43.9999 39.9279 43.9999 36.7852 43.9999 30.4998C43.9999 24.2144 43.9999 21.0717 42.0473 19.1191C40.0947 17.1665 36.952 17.1665 30.6666 17.1665C24.3812 17.1665 21.2385 17.1665 19.2859 19.1191ZM32.9999 27.8332C32.9999 28.3855 33.4476 28.8332 33.9999 28.8332H34.919L32.2356 31.5166C32.1054 31.6468 31.8944 31.6468 31.7642 31.5166L29.6498 29.4022C28.7386 28.491 27.2612 28.491 26.35 29.4022L23.2928 32.4594C22.9023 32.8499 22.9023 33.4831 23.2928 33.8736C23.6833 34.2641 24.3165 34.2641 24.707 33.8736L27.7642 30.8164C27.8944 30.6862 28.1054 30.6862 28.2356 30.8164L30.35 32.9308C31.2612 33.842 32.7386 33.842 33.6498 32.9308L36.3333 30.2474V31.1665C36.3333 31.7188 36.781 32.1665 37.3333 32.1665C37.8855 32.1665 38.3333 31.7188 38.3333 31.1665V27.8332C38.3333 27.2809 37.8855 26.8332 37.3333 26.8332H33.9999C33.4476 26.8332 32.9999 27.2809 32.9999 27.8332Z" fill="#DC2626"/>
</svg>
