<svg width="61" height="61" viewBox="0 0 61 61" fill="none" xmlns="http://www.w3.org/2000/svg">
<rect width="60" height="60" transform="translate(0.333252 0.5)" fill="#FAFDD4"/>
<path fill-rule="evenodd" clip-rule="evenodd" d="M18.9526 19.1191C17 21.0717 17 24.2144 17 30.4998C17 36.7852 17 39.9279 18.9526 41.8805C20.9052 43.8332 24.0479 43.8332 30.3333 43.8332C36.6187 43.8332 39.7614 43.8332 41.714 41.8805C43.6667 39.9279 43.6667 36.7852 43.6667 30.4998C43.6667 24.2144 43.6667 21.0717 41.714 19.1191C39.7614 17.1665 36.6187 17.1665 30.3333 17.1665C24.0479 17.1665 20.9052 17.1665 18.9526 19.1191ZM32.6667 27.8332C32.6667 28.3855 33.1144 28.8332 33.6667 28.8332H34.5858L31.9024 31.5166C31.7722 31.6468 31.5611 31.6468 31.431 31.5166L29.3166 29.4022C28.4054 28.491 26.928 28.491 26.0167 29.4022L22.9596 32.4594C22.569 32.8499 22.569 33.4831 22.9596 33.8736C23.3501 34.2641 23.9832 34.2641 24.3738 33.8736L27.431 30.8164C27.5611 30.6862 27.7722 30.6862 27.9024 30.8164L30.0167 32.9308C30.928 33.842 32.4054 33.842 33.3166 32.9308L36 30.2474V31.1665C36 31.7188 36.4477 32.1665 37 32.1665C37.5523 32.1665 38 31.7188 38 31.1665V27.8332C38 27.2809 37.5523 26.8332 37 26.8332H33.6667C33.1144 26.8332 32.6667 27.2809 32.6667 27.8332Z" fill="#AC9D16"/>
</svg>
