<svg width="60" height="60" viewBox="0 0 60 60" fill="none" xmlns="http://www.w3.org/2000/svg">
<rect width="60" height="60" fill="#EBEBFF"/>
<path fill-rule="evenodd" clip-rule="evenodd" d="M26.7898 18.2674C26.4651 18.5441 26.3028 18.6824 26.1294 18.7986C25.7319 19.065 25.2855 19.2499 24.8161 19.3426C24.6113 19.3831 24.3987 19.4 23.9734 19.434C22.9049 19.5192 22.3706 19.5619 21.9249 19.7193C20.894 20.0834 20.0831 20.8943 19.7189 21.9253C19.5615 22.371 19.5189 22.9053 19.4336 23.9738C19.3997 24.399 19.3827 24.6117 19.3423 24.8165C19.2496 25.2859 19.0647 25.7323 18.7983 26.1297C18.6821 26.3031 18.5437 26.4655 18.267 26.7902C17.5717 27.606 17.2241 28.014 17.0202 28.4405C16.5488 29.4269 16.5488 30.5737 17.0202 31.5602C17.2241 31.9867 17.5717 32.3946 18.267 33.2105C18.5437 33.5351 18.6821 33.6975 18.7983 33.8709C19.0647 34.2684 19.2496 34.7148 19.3423 35.1842C19.3827 35.389 19.3997 35.6016 19.4336 36.0269C19.5189 37.0954 19.5615 37.6297 19.7189 38.0754C20.0831 39.1063 20.894 39.9172 21.9249 40.2814C22.3706 40.4388 22.9049 40.4814 23.9734 40.5667C24.3987 40.6006 24.6113 40.6176 24.8161 40.658C25.2855 40.7507 25.7319 40.9356 26.1294 41.202C26.3028 41.3182 26.4651 41.4566 26.7898 41.7333C27.6057 42.4286 28.0136 42.7762 28.4401 42.98C29.4266 43.4515 30.5734 43.4515 31.5598 42.98C31.9863 42.7762 32.3942 42.4286 33.2101 41.7333C33.5348 41.4566 33.6971 41.3182 33.8705 41.202C34.268 40.9356 34.7144 40.7507 35.1838 40.658C35.3886 40.6176 35.6012 40.6006 36.0265 40.5667C37.095 40.4814 37.6293 40.4388 38.075 40.2814C39.1059 39.9172 39.9168 39.1063 40.281 38.0754C40.4384 37.6297 40.4811 37.0954 40.5663 36.0269C40.6003 35.6016 40.6172 35.389 40.6577 35.1842C40.7503 34.7148 40.9352 34.2684 41.2016 33.8709C41.3179 33.6975 41.4562 33.5352 41.7329 33.2105C42.4282 32.3946 42.7758 31.9867 42.9797 31.5602C43.4512 30.5737 43.4512 29.4269 42.9797 28.4405C42.7758 28.014 42.4282 27.606 41.7329 26.7902C41.4562 26.4655 41.3179 26.3031 41.2016 26.1297C40.9352 25.7323 40.7503 25.2859 40.6577 24.8165C40.6172 24.6117 40.6003 24.399 40.5663 23.9738C40.4811 22.9053 40.4384 22.371 40.281 21.9253C39.9168 20.8943 39.1059 20.0834 38.075 19.7193C37.6293 19.5619 37.095 19.5192 36.0265 19.434C35.6012 19.4 35.3886 19.3831 35.1838 19.3426C34.7144 19.2499 34.268 19.065 33.8705 18.7986C33.6971 18.6824 33.5348 18.5441 33.2101 18.2674C32.3942 17.5721 31.9863 17.2245 31.5598 17.0206C30.5734 16.5491 29.4266 16.5491 28.4401 17.0206C28.0136 17.2245 27.6057 17.5721 26.7898 18.2674ZM35.8313 27.1512C36.255 26.7274 36.255 26.0403 35.8313 25.6165C35.4075 25.1928 34.7204 25.1928 34.2966 25.6165L27.8296 32.0835L25.7032 29.9571C25.2795 29.5334 24.5924 29.5334 24.1686 29.9571C23.7448 30.3809 23.7448 31.068 24.1686 31.4918L27.0623 34.3855C27.4861 34.8093 28.1732 34.8093 28.597 34.3855L35.8313 27.1512Z" fill="#564FFD"/>
</svg>
