<svg width="61" height="61" viewBox="0 0 61 61" fill="none" xmlns="http://www.w3.org/2000/svg">
<rect width="60" height="60" transform="translate(0.25 0.5)" fill="#E1F7E3"/>
<path fill-rule="evenodd" clip-rule="evenodd" d="M30.25 43.8337C37.6138 43.8337 43.5833 37.8641 43.5833 30.5003C43.5833 23.1365 37.6138 17.167 30.25 17.167C22.8862 17.167 16.9166 23.1365 16.9166 30.5003C16.9166 37.8641 22.8862 43.8337 30.25 43.8337ZM27.25 26.5003C27.25 25.948 27.6977 25.5003 28.25 25.5003H34.25C34.8022 25.5003 35.25 25.948 35.25 26.5003V32.5003C35.25 33.0526 34.8022 33.5003 34.25 33.5003C33.6977 33.5003 33.25 33.0526 33.25 32.5003V28.9145L26.9571 35.2074C26.5665 35.598 25.9334 35.598 25.5429 35.2074C25.1523 34.8169 25.1523 34.1837 25.5429 33.7932L31.8357 27.5003H28.25C27.6977 27.5003 27.25 27.0526 27.25 26.5003Z" fill="#03A900"/>
</svg>
