<svg width="61" height="61" viewBox="0 0 61 61" fill="none" xmlns="http://www.w3.org/2000/svg">
<rect width="60" height="60" transform="translate(0.5 0.5)" fill="#FAFDD4"/>
<path fill-rule="evenodd" clip-rule="evenodd" d="M30.5001 43.8337C37.8639 43.8337 43.8334 37.8641 43.8334 30.5003C43.8334 23.1365 37.8639 17.167 30.5001 17.167C23.1363 17.167 17.1667 23.1365 17.1667 30.5003C17.1667 37.8641 23.1363 43.8337 30.5001 43.8337ZM27.5001 26.5003C27.5001 25.948 27.9478 25.5003 28.5001 25.5003H34.5001C35.0524 25.5003 35.5001 25.948 35.5001 26.5003V32.5003C35.5001 33.0526 35.0524 33.5003 34.5001 33.5003C33.9478 33.5003 33.5001 33.0526 33.5001 32.5003V28.9145L27.2072 35.2074C26.8167 35.598 26.1835 35.598 25.793 35.2074C25.4025 34.8169 25.4025 34.1837 25.793 33.7932L32.0859 27.5003H28.5001C27.9478 27.5003 27.5001 27.0526 27.5001 26.5003Z" fill="#AC9D16"/>
</svg>
