<svg width="61" height="61" viewBox="0 0 61 61" fill="none" xmlns="http://www.w3.org/2000/svg">
<rect width="60" height="60" transform="translate(0.75 0.5)" fill="#EE4444" fill-opacity="0.1"/>
<path fill-rule="evenodd" clip-rule="evenodd" d="M30.7501 43.8337C38.1139 43.8337 44.0834 37.8641 44.0834 30.5003C44.0834 23.1365 38.1139 17.167 30.7501 17.167C23.3863 17.167 17.4167 23.1365 17.4167 30.5003C17.4167 37.8641 23.3863 43.8337 30.7501 43.8337ZM27.7501 26.5003C27.7501 25.948 28.1978 25.5003 28.7501 25.5003H34.7501C35.3024 25.5003 35.7501 25.948 35.7501 26.5003V32.5003C35.7501 33.0526 35.3024 33.5003 34.7501 33.5003C34.1978 33.5003 33.7501 33.0526 33.7501 32.5003V28.9145L27.4572 35.2074C27.0667 35.598 26.4335 35.598 26.043 35.2074C25.6525 34.8169 25.6525 34.1837 26.043 33.7932L32.3359 27.5003H28.7501C28.1978 27.5003 27.7501 27.0526 27.7501 26.5003Z" fill="#EE4444"/>
</svg>
