<svg width="60" height="60" viewBox="0 0 60 60" fill="none" xmlns="http://www.w3.org/2000/svg">
<rect width="60" height="60" fill="#E1F7E3"/>
<path d="M43.3333 24.8831L43.3333 24.9798C43.3332 26.1275 43.3332 26.7013 43.057 27.1708C42.7807 27.6403 42.2791 27.919 41.2759 28.4763L40.2181 29.064C40.947 26.5998 41.1902 23.9522 41.2801 21.688C41.2839 21.5909 41.2883 21.4926 41.2927 21.3933L41.2957 21.3237C42.1641 21.6253 42.6516 21.8501 42.9558 22.2721C43.3333 22.7959 43.3333 23.4917 43.3333 24.8831Z" fill="#23BD33"/>
<path d="M16.6667 24.8831L16.6667 24.9798C16.6667 26.1275 16.6667 26.7013 16.943 27.1708C17.2192 27.6403 17.7208 27.919 18.7241 28.4763L19.7824 29.0643C19.0534 26.6 18.8102 23.9523 18.7203 21.688C18.7165 21.5909 18.7121 21.4926 18.7078 21.3933L18.7047 21.3236C17.836 21.6252 17.3483 21.85 17.0441 22.2721C16.6666 22.7959 16.6666 23.4917 16.6667 24.8831Z" fill="#23BD33"/>
<path fill-rule="evenodd" clip-rule="evenodd" d="M35.8362 17.129C34.3374 16.8761 32.3783 16.6667 30.0002 16.6667C27.6222 16.6667 25.663 16.8761 24.1642 17.129C22.6459 17.3852 21.8868 17.5133 21.2525 18.2945C20.6182 19.0757 20.6517 19.92 20.7188 21.6086C20.9489 27.4059 22.1999 34.6468 29 35.2876V40H27.0931C26.4575 40 25.9103 40.4486 25.7856 41.0719L25.5333 42.3334H22C21.4477 42.3334 21 42.7811 21 43.3334C21 43.8856 21.4477 44.3334 22 44.3334H38C38.5523 44.3334 39 43.8856 39 43.3334C39 42.7811 38.5523 42.3334 38 42.3334H34.4667L34.2144 41.0719C34.0897 40.4486 33.5425 40 32.9069 40H31V35.2876C37.8004 34.647 39.0515 27.406 39.2817 21.6086C39.3487 19.92 39.3822 19.0757 38.7479 18.2945C38.1136 17.5133 37.3545 17.3852 35.8362 17.129Z" fill="#23BD33"/>
</svg>
