<svg width="20" height="20" viewBox="0 0 20 20" fill="none" xmlns="http://www.w3.org/2000/svg">
<path opacity="0.5" d="M2.5 8.67989C2.5 6.01524 2.5 4.68291 2.8146 4.23469C3.12919 3.78646 4.38194 3.35765 6.88743 2.50001L7.36477 2.33661C8.67082 1.88955 9.32384 1.66602 10 1.66602C10.6762 1.66602 11.3292 1.88955 12.6352 2.33661L13.1126 2.50001C15.6181 3.35765 16.8708 3.78646 17.1854 4.23469C17.5 4.68291 17.5 6.01524 17.5 8.67989V9.99215C17.5 14.6905 13.9675 16.9706 11.7512 17.9387C11.15 18.2014 10.8494 18.3327 10 18.3327C9.15062 18.3327 8.85001 18.2014 8.2488 17.9387C6.03247 16.9706 2.5 14.6905 2.5 9.99215V8.67989Z" fill="white"/>
<path d="M11.6666 7.50065C11.6666 8.42113 10.9204 9.16732 9.99996 9.16732C9.07948 9.16732 8.33329 8.42113 8.33329 7.50065C8.33329 6.58018 9.07948 5.83398 9.99996 5.83398C10.9204 5.83398 11.6666 6.58018 11.6666 7.50065Z" fill="white"/>
<path d="M9.99996 14.1673C13.3333 14.1673 13.3333 13.4211 13.3333 12.5007C13.3333 11.5802 11.8409 10.834 9.99996 10.834C8.15901 10.834 6.66663 11.5802 6.66663 12.5007C6.66663 13.4211 6.66663 14.1673 9.99996 14.1673Z" fill="white"/>
</svg>
