<svg width="20" height="20" viewBox="0 0 20 20" fill="none" xmlns="http://www.w3.org/2000/svg">
<path opacity="0.5" d="M11.6666 3.33398H8.33329C5.1906 3.33398 3.61925 3.33398 2.64294 4.3103C1.66663 5.28661 1.66663 6.85795 1.66663 10.0007C1.66663 13.1433 1.66663 14.7147 2.64294 15.691C3.61925 16.6673 5.1906 16.6673 8.33329 16.6673H11.6666C14.8093 16.6673 16.3807 16.6673 17.357 15.691C18.3333 14.7147 18.3333 13.1433 18.3333 10.0007C18.3333 6.85795 18.3333 5.28661 17.357 4.3103C16.3807 3.33398 14.8093 3.33398 11.6666 3.33398Z" fill="#A1A5B3"/>
<path d="M11.0416 7.50065C11.0416 7.15547 11.3214 6.87565 11.6666 6.87565H15.8333C16.1785 6.87565 16.4583 7.15547 16.4583 7.50065C16.4583 7.84583 16.1785 8.12565 15.8333 8.12565H11.6666C11.3214 8.12565 11.0416 7.84583 11.0416 7.50065Z" fill="#A1A5B3"/>
<path d="M11.875 10.0007C11.875 9.65547 12.1548 9.37565 12.5 9.37565H15.8333C16.1785 9.37565 16.4583 9.65547 16.4583 10.0007C16.4583 10.3458 16.1785 10.6257 15.8333 10.6257H12.5C12.1548 10.6257 11.875 10.3458 11.875 10.0007Z" fill="#A1A5B3"/>
<path d="M12.7083 12.5007C12.7083 12.1555 12.9881 11.8757 13.3333 11.8757H15.8333C16.1785 11.8757 16.4583 12.1555 16.4583 12.5007C16.4583 12.8458 16.1785 13.1257 15.8333 13.1257H13.3333C12.9881 13.1257 12.7083 12.8458 12.7083 12.5007Z" fill="#A1A5B3"/>
<path d="M7.49996 9.16732C8.42043 9.16732 9.16663 8.42113 9.16663 7.50065C9.16663 6.58018 8.42043 5.83398 7.49996 5.83398C6.57948 5.83398 5.83329 6.58018 5.83329 7.50065C5.83329 8.42113 6.57948 9.16732 7.49996 9.16732Z" fill="#A1A5B3"/>
<path d="M7.49996 14.1673C10.8333 14.1673 10.8333 13.4211 10.8333 12.5007C10.8333 11.5802 9.34091 10.834 7.49996 10.834C5.65901 10.834 4.16663 11.5802 4.16663 12.5007C4.16663 13.4211 4.16663 14.1673 7.49996 14.1673Z" fill="#A1A5B3"/>
</svg>
