<svg width="20" height="20" viewBox="0 0 20 20" fill="none" xmlns="http://www.w3.org/2000/svg">
<path opacity="0.5" d="M10.0001 13.3334C5.20017 13.3334 4.34985 8.54964 4.19921 4.75541C4.15731 3.7 4.13636 3.17229 4.53279 2.68405C4.92923 2.1958 5.4037 2.11575 6.35264 1.95564C7.28936 1.79759 8.51383 1.66669 10.0001 1.66669C11.4864 1.66669 12.7109 1.79759 13.6476 1.95564C14.5965 2.11575 15.071 2.1958 15.4674 2.68405C15.8639 3.17229 15.8429 3.7 15.801 4.75541C15.6504 8.54964 14.8001 13.3334 10.0001 13.3334Z" fill="#A1A5B3"/>
<path d="M14.7003 10.3517L17.0474 9.04772C17.6744 8.69937 17.9879 8.52519 18.1606 8.23177C18.3332 7.93834 18.3333 7.57969 18.3333 6.86241L18.3333 6.80197C18.3333 5.93229 18.3333 5.49746 18.0974 5.17009C17.8614 4.84272 17.4489 4.70521 16.6238 4.43019L15.8333 4.16669L15.8192 4.23722C15.8153 4.39494 15.8085 4.56674 15.801 4.7554C15.7274 6.60906 15.4868 8.6989 14.7003 10.3517Z" fill="#1D2026"/>
<path d="M4.19921 4.75541C4.27281 6.60916 4.51342 8.69909 5.30006 10.3519L2.95253 9.04772C2.32551 8.69937 2.012 8.52519 1.83935 8.23177C1.66669 7.93834 1.66668 7.57969 1.66666 6.86241L1.66666 6.80197C1.66663 5.9323 1.66662 5.49746 1.90257 5.17009C2.13852 4.84272 2.55104 4.70521 3.37609 4.43019L4.16661 4.16669L4.18106 4.23894C4.18495 4.3962 4.19175 4.56743 4.19921 4.75541Z" fill="#1D2026"/>
<path fill-rule="evenodd" clip-rule="evenodd" d="M4.375 18.3333C4.375 17.9881 4.65482 17.7083 5 17.7083H15C15.3452 17.7083 15.625 17.9881 15.625 18.3333C15.625 18.6785 15.3452 18.9583 15 18.9583H5C4.65482 18.9583 4.375 18.6785 4.375 18.3333Z" fill="#1D2026"/>
<path opacity="0.5" d="M12.8813 17.7084H7.11868L7.36603 16.2502C7.44393 15.8606 7.78595 15.5803 8.18318 15.5803H11.8168C12.2141 15.5803 12.5561 15.8606 12.634 16.2502L12.8813 17.7084Z" fill="#A1A5B3"/>
<path d="M10.0001 13.3335C9.78383 13.3335 9.57555 13.3238 9.375 13.3049V15.5803H10.625V13.3049C10.4245 13.3238 10.2163 13.3335 10.0001 13.3335Z" fill="#1D2026"/>
</svg>
