<svg width="20" height="20" viewBox="0 0 20 20" fill="none" xmlns="http://www.w3.org/2000/svg">
<path opacity="0.5" d="M10.0001 13.3332C5.20014 13.3332 4.34982 8.54946 4.19918 4.75523C4.15728 3.69982 4.13633 3.17211 4.53276 2.68386C4.92919 2.19562 5.40367 2.11556 6.35261 1.95546C7.28933 1.79741 8.5138 1.6665 10.0001 1.6665C11.4864 1.6665 12.7108 1.79741 13.6476 1.95546C14.5965 2.11556 15.071 2.19562 15.4674 2.68386C15.8638 3.17211 15.8429 3.69982 15.801 4.75523C15.6504 8.54946 14.8 13.3332 10.0001 13.3332Z" fill="white"/>
<path d="M14.7003 10.3515L17.0474 9.04754C17.6744 8.69919 17.9879 8.52501 18.1606 8.23158C18.3332 7.93815 18.3332 7.57951 18.3332 6.86223L18.3332 6.80179C18.3333 5.93211 18.3333 5.49727 18.0973 5.1699C17.8614 4.84253 17.4489 4.70503 16.6238 4.43001L15.8333 4.1665L15.8192 4.23704C15.8153 4.39476 15.8085 4.56656 15.801 4.75522C15.7274 6.60888 15.4868 8.69872 14.7003 10.3515Z" fill="white"/>
<path d="M4.19918 4.75523C4.27278 6.60897 4.51339 8.69891 5.30003 10.3518L2.9525 9.04754C2.32548 8.69919 2.01197 8.52501 1.83932 8.23158C1.66666 7.93815 1.66665 7.57951 1.66663 6.86223L1.66663 6.80179C1.6666 5.93212 1.66659 5.49727 1.90254 5.1699C2.13849 4.84253 2.55101 4.70503 3.37606 4.43001L4.16658 4.1665L4.18103 4.23876C4.18492 4.39601 4.19172 4.56725 4.19918 4.75523Z" fill="white"/>
<path fill-rule="evenodd" clip-rule="evenodd" d="M4.375 18.3335C4.375 17.9883 4.65482 17.7085 5 17.7085H15C15.3452 17.7085 15.625 17.9883 15.625 18.3335C15.625 18.6787 15.3452 18.9585 15 18.9585H5C4.65482 18.9585 4.375 18.6787 4.375 18.3335Z" fill="white"/>
<path opacity="0.5" d="M12.8813 17.7082H7.11865L7.366 16.25C7.4439 15.8605 7.78592 15.5801 8.18315 15.5801H11.8168C12.214 15.5801 12.5561 15.8605 12.634 16.25L12.8813 17.7082Z" fill="white"/>
<path d="M10.0001 13.3333C9.78383 13.3333 9.57555 13.3236 9.375 13.3047V15.5801H10.625V13.3047C10.4245 13.3236 10.2163 13.3333 10.0001 13.3333Z" fill="white"/>
</svg>
