<svg width="20" height="20" viewBox="0 0 20 20" fill="none" xmlns="http://www.w3.org/2000/svg">
<path d="M10.9217 18.3333H9.07826C6.20613 18.3333 4.77007 18.3333 3.79085 17.4901C2.81163 16.6469 2.60854 15.2355 2.20235 12.4126L1.97005 10.7982C1.65385 8.60064 1.49574 7.50187 1.94613 6.56241C2.39651 5.62296 3.35515 5.05191 5.27242 3.9098L6.42645 3.22235C8.16753 2.1852 9.03806 1.66663 9.99999 1.66663C10.9619 1.66663 11.8325 2.1852 13.5735 3.22235L14.7276 3.9098C16.6448 5.05191 17.6035 5.62296 18.0539 6.56241C18.5042 7.50187 18.3461 8.60064 18.0299 10.7982L17.7976 12.4126C17.3914 15.2355 17.1884 16.6469 16.2091 17.4901C15.2299 18.3333 13.7938 18.3333 10.9217 18.3333Z" fill="white"/>
<path d="M6.42645 3.22235L6.76678 3.79367H6.76678L6.42645 3.22235ZM13.5735 3.22235L13.9139 2.65104L13.5735 3.22235ZM2.20235 12.4126L1.54413 12.5074H1.54413L2.20235 12.4126ZM17.7976 12.4126L17.1394 12.3179L17.7976 12.4126ZM14.7276 3.9098L14.3872 4.48112L14.7276 3.9098ZM18.0299 10.7982L18.6882 10.8929L18.0299 10.7982ZM5.27242 3.9098L4.93209 3.33849V3.33849L5.27242 3.9098ZM1.97005 10.7982L2.62827 10.7035L1.97005 10.7982ZM10.9217 17.6683H9.07826V18.9983H10.9217V17.6683ZM5.61275 4.48112L6.76678 3.79367L6.08612 2.65104L4.93209 3.33849L5.61275 4.48112ZM13.2332 3.79367L14.3872 4.48112L15.0679 3.33848L13.9139 2.65104L13.2332 3.79367ZM2.86058 12.3179L2.62827 10.7035L1.31183 10.8929L1.54413 12.5074L2.86058 12.3179ZM17.3717 10.7035L17.1394 12.3179L18.4558 12.5074L18.6882 10.8929L17.3717 10.7035ZM6.76678 3.79367C7.64872 3.2683 8.26851 2.9 8.78666 2.65815C9.29118 2.42266 9.65017 2.33163 9.99999 2.33163V1.00163C9.38788 1.00163 8.83065 1.16988 8.22414 1.45297C7.63127 1.72969 6.94526 2.13925 6.08612 2.65104L6.76678 3.79367ZM13.9139 2.65104C13.0547 2.13925 12.3687 1.72969 11.7758 1.45297C11.1693 1.16988 10.6121 1.00163 9.99999 1.00163V2.33163C10.3498 2.33163 10.7088 2.42266 11.2133 2.65815C11.7315 2.9 12.3513 3.2683 13.2332 3.79367L13.9139 2.65104ZM9.07826 17.6683C7.62499 17.6683 6.59695 17.6671 5.80746 17.5681C5.03617 17.4713 4.57725 17.2897 4.22476 16.9862L3.35693 17.994C3.98367 18.5337 4.73239 18.7737 5.64196 18.8877C6.53335 18.9995 7.6594 18.9983 9.07826 18.9983V17.6683ZM1.54413 12.5074C1.74474 13.9015 1.90289 15.0095 2.14069 15.8707C2.3836 16.7505 2.72965 17.4539 3.35693 17.994L4.22476 16.9862C3.87282 16.6831 3.62772 16.2592 3.42273 15.5168C3.21263 14.7558 3.06615 13.7466 2.86058 12.3179L1.54413 12.5074ZM10.9217 18.9983C12.3406 18.9983 13.4666 18.9995 14.358 18.8877C15.2676 18.7737 16.0163 18.5337 16.6431 17.994L15.7752 16.9862C15.4227 17.2897 14.9638 17.4713 14.1925 17.5681C13.403 17.6671 12.375 17.6683 10.9217 17.6683V18.9983ZM17.1394 12.3179C16.9338 13.7466 16.7873 14.7558 16.5773 15.5168C16.3723 16.2592 16.1272 16.6831 15.7752 16.9862L16.6431 17.994C17.2703 17.4539 17.6164 16.7505 17.8593 15.8707C18.0971 15.0095 18.2552 13.9015 18.4558 12.5074L17.1394 12.3179ZM14.3872 4.48112C15.3582 5.05954 16.0407 5.46714 16.541 5.84351C17.0285 6.21026 17.2917 6.5109 17.4542 6.84989L18.6535 6.27493C18.3656 5.67447 17.9243 5.21986 17.3406 4.7807C16.7696 4.35115 16.0142 3.90217 15.0679 3.33848L14.3872 4.48112ZM18.6882 10.8929C18.8442 9.80851 18.9697 8.94264 18.994 8.23119C19.0188 7.50332 18.9415 6.87571 18.6535 6.27493L17.4542 6.84989C17.6166 7.18857 17.6854 7.58008 17.6647 8.18584C17.6435 8.80802 17.5319 9.59032 17.3717 10.7035L18.6882 10.8929ZM4.93209 3.33849C3.98582 3.90217 3.23036 4.35115 2.6594 4.7807C2.07566 5.21986 1.63435 5.67447 1.34648 6.27493L2.54578 6.84989C2.7083 6.5109 2.97149 6.21026 3.45898 5.84351C3.95926 5.46714 4.64174 5.05954 5.61275 4.48112L4.93209 3.33849ZM2.62827 10.7035C2.4681 9.59032 2.35646 8.80802 2.33523 8.18584C2.31456 7.58008 2.38341 7.18857 2.54578 6.84989L1.34648 6.27493C1.05846 6.87571 0.981169 7.50332 1.00601 8.23119C1.03028 8.94264 1.1558 9.8085 1.31183 10.8929L2.62827 10.7035Z" fill="white"/>
<path fill-rule="evenodd" clip-rule="evenodd" d="M10 15.625C9.65482 15.625 9.375 15.3452 9.375 15V12.5C9.375 12.1548 9.65482 11.875 10 11.875C10.3452 11.875 10.625 12.1548 10.625 12.5V15C10.625 15.3452 10.3452 15.625 10 15.625Z" fill="#3FAAE0"/>
</svg>
