<svg width="20" height="20" viewBox="0 0 20 20" fill="none" xmlns="http://www.w3.org/2000/svg">
<path d="M10.9217 18.3334H9.07826C6.20613 18.3334 4.77007 18.3334 3.79085 17.4902C2.81163 16.647 2.60854 15.2356 2.20235 12.4127L1.97005 10.7982C1.65385 8.6007 1.49574 7.50193 1.94613 6.56247C2.39651 5.62302 3.35515 5.05197 5.27242 3.90986L6.42645 3.22241C8.16753 2.18526 9.03806 1.66669 9.99999 1.66669C10.9619 1.66669 11.8325 2.18526 13.5735 3.22241L14.7276 3.90986C16.6448 5.05197 17.6035 5.62302 18.0539 6.56247C18.5042 7.50193 18.3461 8.6007 18.0299 10.7982L17.7976 12.4127C17.3914 15.2356 17.1884 16.647 16.2091 17.4902C15.2299 18.3334 13.7938 18.3334 10.9217 18.3334Z" fill="#A1A5B3"/>
<path d="M6.42645 3.22241L6.76678 3.79373H6.76678L6.42645 3.22241ZM13.5735 3.22241L13.9139 2.6511L13.5735 3.22241ZM2.20235 12.4127L1.54413 12.5074H1.54413L2.20235 12.4127ZM17.7976 12.4127L17.1394 12.318L17.7976 12.4127ZM14.7276 3.90986L14.3872 4.48118L14.7276 3.90986ZM18.0299 10.7982L18.6882 10.893L18.0299 10.7982ZM5.27242 3.90986L4.93209 3.33855V3.33855L5.27242 3.90986ZM1.97005 10.7982L2.62827 10.7035L1.97005 10.7982ZM10.9217 17.6684H9.07826V18.9984H10.9217V17.6684ZM5.61275 4.48118L6.76678 3.79373L6.08612 2.6511L4.93209 3.33855L5.61275 4.48118ZM13.2332 3.79373L14.3872 4.48118L15.0679 3.33855L13.9139 2.6511L13.2332 3.79373ZM2.86058 12.318L2.62827 10.7035L1.31183 10.893L1.54413 12.5074L2.86058 12.318ZM17.3717 10.7035L17.1394 12.318L18.4558 12.5074L18.6882 10.893L17.3717 10.7035ZM6.76678 3.79373C7.64872 3.26836 8.26851 2.90006 8.78666 2.65821C9.29118 2.42273 9.65017 2.33169 9.99999 2.33169V1.00169C9.38788 1.00169 8.83065 1.16994 8.22414 1.45303C7.63127 1.72975 6.94526 2.13931 6.08612 2.6511L6.76678 3.79373ZM13.9139 2.6511C13.0547 2.13931 12.3687 1.72975 11.7758 1.45303C11.1693 1.16994 10.6121 1.00169 9.99999 1.00169V2.33169C10.3498 2.33169 10.7088 2.42273 11.2133 2.65821C11.7315 2.90006 12.3513 3.26836 13.2332 3.79373L13.9139 2.6511ZM9.07826 17.6684C7.62499 17.6684 6.59695 17.6671 5.80746 17.5681C5.03617 17.4714 4.57725 17.2898 4.22476 16.9862L3.35693 17.9941C3.98367 18.5338 4.73239 18.7737 5.64196 18.8878C6.53335 18.9996 7.6594 18.9984 9.07826 18.9984V17.6684ZM1.54413 12.5074C1.74474 13.9016 1.90289 15.0095 2.14069 15.8708C2.3836 16.7506 2.72965 17.454 3.35693 17.9941L4.22476 16.9862C3.87282 16.6832 3.62772 16.2593 3.42273 15.5168C3.21263 14.7559 3.06615 13.7467 2.86058 12.318L1.54413 12.5074ZM10.9217 18.9984C12.3406 18.9984 13.4666 18.9996 14.358 18.8878C15.2676 18.7737 16.0163 18.5338 16.6431 17.9941L15.7752 16.9862C15.4227 17.2898 14.9638 17.4714 14.1925 17.5681C13.403 17.6671 12.375 17.6684 10.9217 17.6684V18.9984ZM17.1394 12.318C16.9338 13.7467 16.7873 14.7559 16.5773 15.5168C16.3723 16.2593 16.1272 16.6832 15.7752 16.9862L16.6431 17.9941C17.2703 17.454 17.6164 16.7506 17.8593 15.8708C18.0971 15.0095 18.2552 13.9016 18.4558 12.5074L17.1394 12.318ZM14.3872 4.48118C15.3582 5.0596 16.0407 5.4672 16.541 5.84357C17.0285 6.21032 17.2917 6.51096 17.4542 6.84995L18.6535 6.275C18.3656 5.67453 17.9243 5.21992 17.3406 4.78076C16.7696 4.35121 16.0142 3.90223 15.0679 3.33855L14.3872 4.48118ZM18.6882 10.893C18.8442 9.80857 18.9697 8.9427 18.994 8.23125C19.0188 7.50338 18.9415 6.87577 18.6535 6.275L17.4542 6.84995C17.6166 7.18863 17.6854 7.58014 17.6647 8.1859C17.6435 8.80808 17.5319 9.59038 17.3717 10.7035L18.6882 10.893ZM4.93209 3.33855C3.98582 3.90223 3.23036 4.35121 2.6594 4.78076C2.07566 5.21992 1.63435 5.67453 1.34648 6.275L2.54578 6.84995C2.7083 6.51096 2.97149 6.21032 3.45898 5.84357C3.95926 5.4672 4.64174 5.0596 5.61275 4.48118L4.93209 3.33855ZM2.62827 10.7035C2.4681 9.59038 2.35646 8.80808 2.33523 8.1859C2.31456 7.58014 2.38341 7.18863 2.54578 6.84995L1.34648 6.275C1.05846 6.87577 0.981169 7.50338 1.00601 8.23125C1.03028 8.9427 1.1558 9.80856 1.31183 10.893L2.62827 10.7035Z" fill="#A1A5B3"/>
<path fill-rule="evenodd" clip-rule="evenodd" d="M10 15.625C9.65482 15.625 9.375 15.3452 9.375 15V12.5C9.375 12.1548 9.65482 11.875 10 11.875C10.3452 11.875 10.625 12.1548 10.625 12.5V15C10.625 15.3452 10.3452 15.625 10 15.625Z" fill="#3FAAE0" stroke="#525252" stroke-width="1.5"/>
</svg>
