<svg width="20" height="20" viewBox="0 0 20 20" fill="none" xmlns="http://www.w3.org/2000/svg">
<path opacity="0.5" fill-rule="evenodd" clip-rule="evenodd" d="M8.125 2.5C8.125 2.84518 7.84518 3.125 7.5 3.125C6.30382 3.125 5.46956 3.12633 4.8401 3.21096C4.22862 3.29317 3.90481 3.44354 3.67418 3.67418C3.44354 3.90481 3.29317 4.22862 3.21096 4.8401C3.12633 5.46956 3.125 6.30382 3.125 7.5L3.125 12.5C3.125 13.6962 3.12633 14.5304 3.21096 15.1599C3.29317 15.7714 3.44354 16.0952 3.67417 16.3258C3.90481 16.5565 4.22862 16.7068 4.8401 16.789C5.46956 16.8737 6.30382 16.875 7.5 16.875C7.84518 16.875 8.125 17.1548 8.125 17.5C8.125 17.8452 7.84518 18.125 7.5 18.125H7.45428C6.31462 18.125 5.39601 18.125 4.67354 18.0279C3.92345 17.9271 3.29189 17.7113 2.79029 17.2097C2.28869 16.7081 2.07295 16.0766 1.9721 15.3265C1.87497 14.604 1.87498 13.6854 1.875 12.5457L1.875 7.45428C1.87498 6.31462 1.87497 5.39602 1.9721 4.67354C2.07295 3.92345 2.28869 3.29189 2.79029 2.79029C3.29189 2.2887 3.92345 2.07295 4.67354 1.9721C5.39601 1.87497 6.31461 1.87498 7.45427 1.875C7.46947 1.875 7.48472 1.875 7.5 1.875C7.84518 1.875 8.125 2.15482 8.125 2.5Z" fill="#A1A5B3"/>
<path fill-rule="evenodd" clip-rule="evenodd" d="M6.04166 9.99999C6.04166 10.1755 6.11542 10.3429 6.24493 10.4613L9.89076 13.7946C10.1455 14.0275 10.5408 14.0098 10.7738 13.7551C11.0067 13.5003 10.989 13.105 10.7342 12.8721L8.27649 10.625H17.5C17.8452 10.625 18.125 10.3452 18.125 9.99999C18.125 9.65482 17.8452 9.37499 17.5 9.37499H8.27649L10.7342 7.12793C10.989 6.89501 11.0067 6.49968 10.7738 6.24493C10.5408 5.99018 10.1455 5.97248 9.89076 6.20539L6.24493 9.53873C6.11542 9.65713 6.04166 9.82452 6.04166 9.99999Z" fill="#A1A5B3"/>
</svg>
