<svg width="20" height="20" viewBox="0 0 20 20" fill="none" xmlns="http://www.w3.org/2000/svg">
<path opacity="0.5" d="M15.6243 7.49999V8.08674C15.6243 8.7909 15.8252 9.4793 16.2018 10.0652L17.1247 11.501C17.9676 12.8124 17.3241 14.5949 15.858 15.0096C12.0227 16.0945 7.97728 16.0945 4.14197 15.0096C2.67587 14.5949 2.03235 12.8124 2.8753 11.5009L3.79816 10.0652C4.17476 9.4793 4.37573 8.7909 4.37573 8.08674V7.49999C4.37573 4.27833 6.8938 1.66666 10 1.66666C13.1062 1.66666 15.6243 4.27833 15.6243 7.49999Z" fill="#A1A5B3"/>
<path d="M10.625 5C10.625 4.65482 10.3452 4.375 10 4.375C9.65482 4.375 9.375 4.65482 9.375 5V8.33333C9.375 8.67851 9.65482 8.95833 10 8.95833C10.3452 8.95833 10.625 8.67851 10.625 8.33333V5Z" fill="#A1A5B3"/>
<path d="M11.375 5C11.375 4.24061 10.7594 3.625 10 3.625V5.125C9.93096 5.125 9.875 5.06904 9.875 5H11.375ZM11.375 8.33333V5H9.875V8.33333H11.375ZM10 9.70833C10.7594 9.70833 11.375 9.09273 11.375 8.33333H9.875C9.875 8.2643 9.93096 8.20833 10 8.20833V9.70833ZM8.625 8.33333C8.625 9.09273 9.24061 9.70833 10 9.70833V8.20833C10.069 8.20833 10.125 8.2643 10.125 8.33333H8.625ZM8.625 5V8.33333H10.125V5H8.625ZM10 3.625C9.24061 3.625 8.625 4.24061 8.625 5H10.125C10.125 5.06904 10.069 5.125 10 5.125V3.625Z" fill="#1D2026"/>
<path d="M6.03598 15.4541C6.57843 17.1251 8.14807 18.3331 9.99986 18.3331C11.8516 18.3331 13.4213 17.1251 13.9637 15.4541C11.3425 15.946 8.65718 15.946 6.03598 15.4541Z" fill="#A1A5B3"/>
</svg>
