<svg width="20" height="20" viewBox="0 0 20 20" fill="none" xmlns="http://www.w3.org/2000/svg">
<path opacity="0.5" d="M6.03751 1.66699H13.9625C14.9282 1.66699 15.4111 1.66699 15.8005 1.8025C16.539 2.05945 17.1188 2.65632 17.3684 3.41654C17.5 3.81745 17.5 4.31454 17.5 5.30871V16.9788C17.5 17.694 16.6792 18.0735 16.1599 17.5983C15.8549 17.3192 15.3951 17.3192 15.0901 17.5983L14.6875 17.9667C14.1528 18.456 13.3472 18.456 12.8125 17.9667C12.2778 17.4775 11.4722 17.4775 10.9375 17.9667C10.4028 18.456 9.59716 18.456 9.0625 17.9667C8.52784 17.4775 7.72216 17.4775 7.1875 17.9667C6.65284 18.456 5.84716 18.456 5.3125 17.9667L4.90992 17.5983C4.60486 17.3192 4.14514 17.3192 3.84008 17.5983C3.32083 18.0735 2.5 17.694 2.5 16.9788V5.30871C2.5 4.31454 2.5 3.81745 2.63163 3.41654C2.88123 2.65632 3.46102 2.05945 4.19949 1.8025C4.58892 1.66699 5.07179 1.66699 6.03751 1.66699Z" fill="white"/>
<path d="M5.83337 5.625C5.4882 5.625 5.20837 5.90482 5.20837 6.25C5.20837 6.59518 5.4882 6.875 5.83337 6.875H6.25004C6.59522 6.875 6.87504 6.59518 6.87504 6.25C6.87504 5.90482 6.59522 5.625 6.25004 5.625H5.83337Z" fill="white"/>
<path d="M8.75004 5.625C8.40486 5.625 8.12504 5.90482 8.12504 6.25C8.12504 6.59518 8.40486 6.875 8.75004 6.875H14.1667C14.5119 6.875 14.7917 6.59518 14.7917 6.25C14.7917 5.90482 14.5119 5.625 14.1667 5.625H8.75004Z" fill="white"/>
<path d="M5.83337 8.54167C5.4882 8.54167 5.20837 8.82149 5.20837 9.16667C5.20837 9.51184 5.4882 9.79167 5.83337 9.79167H6.25004C6.59522 9.79167 6.87504 9.51184 6.87504 9.16667C6.87504 8.82149 6.59522 8.54167 6.25004 8.54167H5.83337Z" fill="white"/>
<path d="M8.75004 8.54167C8.40486 8.54167 8.12504 8.82149 8.12504 9.16667C8.12504 9.51184 8.40486 9.79167 8.75004 9.79167H14.1667C14.5119 9.79167 14.7917 9.51184 14.7917 9.16667C14.7917 8.82149 14.5119 8.54167 14.1667 8.54167H8.75004Z" fill="white"/>
<path d="M5.83337 11.4583C5.4882 11.4583 5.20837 11.7382 5.20837 12.0833C5.20837 12.4285 5.4882 12.7083 5.83337 12.7083H6.25004C6.59522 12.7083 6.87504 12.4285 6.87504 12.0833C6.87504 11.7382 6.59522 11.4583 6.25004 11.4583H5.83337Z" fill="white"/>
<path d="M8.75004 11.4583C8.40486 11.4583 8.12504 11.7382 8.12504 12.0833C8.12504 12.4285 8.40486 12.7083 8.75004 12.7083H14.1667C14.5119 12.7083 14.7917 12.4285 14.7917 12.0833C14.7917 11.7382 14.5119 11.4583 14.1667 11.4583H8.75004Z" fill="white"/>
</svg>
