<svg width="20" height="20" viewBox="0 0 20 20" fill="none" xmlns="http://www.w3.org/2000/svg">
<path opacity="0.5" d="M6.03751 1.66669H13.9625C14.9282 1.66669 15.4111 1.66669 15.8005 1.80219C16.539 2.05915 17.1188 2.65601 17.3684 3.41624C17.5 3.81714 17.5 4.31423 17.5 5.3084V16.9785C17.5 17.6937 16.6792 18.0732 16.1599 17.598C15.8549 17.3189 15.3951 17.3189 15.0901 17.598L14.6875 17.9664C14.1528 18.4557 13.3472 18.4557 12.8125 17.9664C12.2778 17.4772 11.4722 17.4772 10.9375 17.9664C10.4028 18.4557 9.59716 18.4557 9.0625 17.9664C8.52784 17.4772 7.72216 17.4772 7.1875 17.9664C6.65284 18.4557 5.84716 18.4557 5.3125 17.9664L4.90992 17.598C4.60486 17.3189 4.14514 17.3189 3.84008 17.598C3.32083 18.0732 2.5 17.6937 2.5 16.9785V5.3084C2.5 4.31423 2.5 3.81714 2.63163 3.41624C2.88123 2.65601 3.46102 2.05915 4.19949 1.80219C4.58892 1.66669 5.07179 1.66669 6.03751 1.66669Z" fill="#A1A5B3"/>
<path d="M5.83334 5.625C5.48817 5.625 5.20834 5.90482 5.20834 6.25C5.20834 6.59518 5.48817 6.875 5.83334 6.875H6.25001C6.59519 6.875 6.87501 6.59518 6.87501 6.25C6.87501 5.90482 6.59519 5.625 6.25001 5.625H5.83334Z" fill="#A1A5B3"/>
<path d="M8.75001 5.625C8.40483 5.625 8.12501 5.90482 8.12501 6.25C8.12501 6.59518 8.40483 6.875 8.75001 6.875H14.1667C14.5119 6.875 14.7917 6.59518 14.7917 6.25C14.7917 5.90482 14.5119 5.625 14.1667 5.625H8.75001Z" fill="#A1A5B3"/>
<path d="M5.83334 8.54167C5.48817 8.54167 5.20834 8.82149 5.20834 9.16667C5.20834 9.51184 5.48817 9.79167 5.83334 9.79167H6.25001C6.59519 9.79167 6.87501 9.51184 6.87501 9.16667C6.87501 8.82149 6.59519 8.54167 6.25001 8.54167H5.83334Z" fill="#A1A5B3"/>
<path d="M8.75001 8.54167C8.40483 8.54167 8.12501 8.82149 8.12501 9.16667C8.12501 9.51184 8.40483 9.79167 8.75001 9.79167H14.1667C14.5119 9.79167 14.7917 9.51184 14.7917 9.16667C14.7917 8.82149 14.5119 8.54167 14.1667 8.54167H8.75001Z" fill="#A1A5B3"/>
<path d="M5.83334 11.4583C5.48817 11.4583 5.20834 11.7382 5.20834 12.0833C5.20834 12.4285 5.48817 12.7083 5.83334 12.7083H6.25001C6.59519 12.7083 6.87501 12.4285 6.87501 12.0833C6.87501 11.7382 6.59519 11.4583 6.25001 11.4583H5.83334Z" fill="#A1A5B3"/>
<path d="M8.75001 11.4583C8.40483 11.4583 8.12501 11.7382 8.12501 12.0833C8.12501 12.4285 8.40483 12.7083 8.75001 12.7083H14.1667C14.5119 12.7083 14.7917 12.4285 14.7917 12.0833C14.7917 11.7382 14.5119 11.4583 14.1667 11.4583H8.75001Z" fill="#A1A5B3"/>
</svg>
