<svg width="20" height="20" viewBox="0 0 20 20" fill="none" xmlns="http://www.w3.org/2000/svg">
<g clip-path="url(#clip0_434_2933)">
<path fill-rule="evenodd" clip-rule="evenodd" d="M8.66969 18.7339L8.89891 18.3467C9.26627 17.726 9.44995 17.4157 9.74254 17.2426C10.0351 17.0696 10.4168 17.0573 11.1801 17.0329C11.8959 17.01 12.3769 16.9476 12.7882 16.7772C13.6542 16.4185 14.3422 15.7305 14.7009 14.8645C14.9699 14.2151 14.9699 13.3917 14.9699 11.745V11.0382C14.9699 8.72442 14.9699 7.56754 14.4491 6.71768C14.1577 6.24214 13.7579 5.84232 13.2823 5.55091C12.4325 5.03012 11.2756 5.03012 8.96186 5.03012H6.84138C4.52763 5.03012 3.37075 5.03012 2.5209 5.55091C2.04536 5.84232 1.64554 6.24214 1.35413 6.71768C0.833344 7.56754 0.833344 8.72442 0.833344 11.0382V11.745C0.833344 13.3917 0.833344 14.2151 1.10236 14.8645C1.46106 15.7305 2.14906 16.4185 3.01502 16.7772C3.42633 16.9476 3.90736 17.01 4.62309 17.0329C5.38641 17.0573 5.76807 17.0696 6.06066 17.2426C6.35326 17.4157 6.53694 17.726 6.90429 18.3467L7.13351 18.7339C7.47503 19.3109 8.32818 19.3109 8.66969 18.7339ZM10.994 12.0984C11.4819 12.0984 11.8775 11.7028 11.8775 11.2149C11.8775 10.7269 11.4819 10.3313 10.994 10.3313C10.506 10.3313 10.1105 10.7269 10.1105 11.2149C10.1105 11.7028 10.506 12.0984 10.994 12.0984ZM8.78515 11.2149C8.78515 11.7028 8.38958 12.0984 7.90162 12.0984C7.41365 12.0984 7.01808 11.7028 7.01808 11.2149C7.01808 10.7269 7.41365 10.3313 7.90162 10.3313C8.38958 10.3313 8.78515 10.7269 8.78515 11.2149ZM4.80925 12.0984C5.29721 12.0984 5.69278 11.7028 5.69278 11.2149C5.69278 10.7269 5.29721 10.3313 4.80925 10.3313C4.32129 10.3313 3.92571 10.7269 3.92571 11.2149C3.92571 11.7028 4.32129 12.0984 4.80925 12.0984Z" fill="#A1A5B3"/>
<path opacity="0.5" d="M12.905 0.833344C13.9607 0.833337 14.8003 0.833331 15.4736 0.89735C16.1639 0.962992 16.7477 1.10059 17.2676 1.41924C17.8026 1.74707 18.2524 2.19687 18.5803 2.73185C18.8989 3.25184 19.0365 3.83556 19.1021 4.52594C19.1662 5.19923 19.1661 6.03882 19.1661 7.09453V7.81559C19.1661 8.56693 19.1661 9.16458 19.1331 9.64918C19.0993 10.145 19.0286 10.5707 18.8635 10.9694C18.46 11.9436 17.686 12.7176 16.7118 13.1211C16.6874 13.1312 16.6629 13.1409 16.6383 13.1504C16.5207 13.1953 16.4199 13.2338 16.3315 13.2625H14.9564C14.9699 12.8467 14.9699 12.3514 14.9699 11.7442V11.0374C14.9699 8.7236 14.9699 7.56673 14.4491 6.71687C14.1577 6.24133 13.7579 5.84151 13.2823 5.5501C12.4325 5.02931 11.2756 5.02931 8.96184 5.02931H6.84136C6.02018 5.02931 5.34473 5.02931 4.77701 5.05259V3.67726C4.80427 3.5828 4.84161 3.47452 4.88545 3.34743C4.96001 3.13127 5.05423 2.92683 5.17372 2.73185C5.50156 2.19687 5.95135 1.74707 6.48633 1.41924C7.00632 1.10059 7.59003 0.962992 8.28042 0.89735C8.95372 0.833331 9.79326 0.833337 10.849 0.833344H12.905Z" fill="#A1A5B3"/>
</g>
<defs>
<clipPath id="clip0_434_2933">
<rect width="20" height="20" fill="white"/>
</clipPath>
</defs>
</svg>
