<svg width="20" height="20" viewBox="0 0 20 20" fill="none" xmlns="http://www.w3.org/2000/svg">
<g clip-path="url(#clip0_826_3912)">
<path fill-rule="evenodd" clip-rule="evenodd" d="M8.66972 18.7341L8.89894 18.3468C9.2663 17.7262 9.44998 17.4159 9.74257 17.2428C10.0352 17.0697 10.4168 17.0575 11.1801 17.0331C11.8959 17.0102 12.3769 16.9477 12.7882 16.7774C13.6542 16.4187 14.3422 15.7307 14.7009 14.8647C14.9699 14.2152 14.9699 13.3919 14.9699 11.7452V11.0383C14.9699 8.72457 14.9699 7.56769 14.4491 6.71784C14.1577 6.2423 13.7579 5.84248 13.2824 5.55107C12.4325 5.03027 11.2756 5.03027 8.96189 5.03027H6.84141C4.52766 5.03027 3.37078 5.03027 2.52093 5.55107C2.04539 5.84248 1.64557 6.2423 1.35416 6.71784C0.833374 7.56769 0.833374 8.72457 0.833374 11.0383V11.7452C0.833374 13.3919 0.833374 14.2152 1.10239 14.8647C1.46109 15.7307 2.14909 16.4187 3.01506 16.7774C3.42636 16.9477 3.90739 17.0102 4.62312 17.0331C5.38644 17.0575 5.7681 17.0697 6.06069 17.2428C6.35329 17.4159 6.53697 17.7262 6.90432 18.3468L7.13354 18.7341C7.47506 19.3111 8.32821 19.3111 8.66972 18.7341ZM10.994 12.0985C11.482 12.0985 11.8776 11.703 11.8776 11.215C11.8776 10.7271 11.482 10.3315 10.994 10.3315C10.5061 10.3315 10.1105 10.7271 10.1105 11.215C10.1105 11.703 10.5061 12.0985 10.994 12.0985ZM8.78518 11.215C8.78518 11.703 8.38961 12.0985 7.90165 12.0985C7.41369 12.0985 7.01811 11.703 7.01811 11.215C7.01811 10.7271 7.41369 10.3315 7.90165 10.3315C8.38961 10.3315 8.78518 10.7271 8.78518 11.215ZM4.80928 12.0985C5.29724 12.0985 5.69281 11.703 5.69281 11.215C5.69281 10.7271 5.29724 10.3315 4.80928 10.3315C4.32132 10.3315 3.92574 10.7271 3.92574 11.215C3.92574 11.703 4.32132 12.0985 4.80928 12.0985Z" fill="white"/>
<path opacity="0.5" d="M12.905 0.833008C13.9607 0.833001 14.8002 0.832996 15.4735 0.897014C16.1639 0.962656 16.7476 1.10025 17.2676 1.4189C17.8026 1.74674 18.2524 2.19653 18.5802 2.73152C18.8989 3.2515 19.0365 3.83522 19.1021 4.5256C19.1661 5.1989 19.1661 6.03849 19.1661 7.0942V7.81525C19.1661 8.56659 19.1661 9.16424 19.133 9.64885C19.0992 10.1446 19.0286 10.5704 18.8635 10.969C18.4599 11.9432 17.6859 12.7172 16.7117 13.1208C16.6874 13.1309 16.6629 13.1406 16.6383 13.15C16.5207 13.195 16.4199 13.2335 16.3315 13.2622H14.9564C14.9698 12.8463 14.9698 12.3511 14.9698 11.7439V11.037C14.9698 8.72327 14.9698 7.56639 14.449 6.71653C14.1576 6.24099 13.7578 5.84118 13.2823 5.54976C12.4324 5.02897 11.2756 5.02897 8.96181 5.02897H6.84133C6.02015 5.02897 5.3447 5.02897 4.77698 5.05225V3.67692C4.80424 3.58246 4.84158 3.47419 4.88542 3.34709C4.95998 3.13093 5.0542 2.9265 5.17369 2.73152C5.50152 2.19653 5.95132 1.74674 6.4863 1.4189C7.00628 1.10025 7.59 0.962656 8.28039 0.897014C8.95369 0.832996 9.79323 0.833001 10.849 0.833008H12.905Z" fill="white"/>
</g>
<defs>
<clipPath id="clip0_826_3912">
<rect width="20" height="20" fill="white"/>
</clipPath>
</defs>
</svg>
