<svg width="20" height="20" viewBox="0 0 20 20" fill="none" xmlns="http://www.w3.org/2000/svg">
<path opacity="0.5" d="M9.99938 1.66699C13.9277 1.66699 15.8919 1.66699 17.1123 2.88738C17.7436 3.51862 18.0483 4.34886 18.1954 5.54698V8.33366H1.80334V5.54698C1.95046 4.34886 2.25519 3.51862 2.88643 2.88738C4.10682 1.66699 6.071 1.66699 9.99938 1.66699Z" fill="white"/>
<path fill-rule="evenodd" clip-rule="evenodd" d="M1.66663 11.6667C1.66663 9.33311 1.66663 8.16634 2.12077 7.27504C2.52024 6.49103 3.15766 5.85361 3.94167 5.45414C4.83296 5 5.99974 5 8.33329 5H11.6666C14.0002 5 15.167 5 16.0583 5.45414C16.8423 5.85361 17.4797 6.49103 17.8792 7.27504C18.3333 8.16634 18.3333 9.33311 18.3333 11.6667C18.3333 14.0002 18.3333 15.167 17.8792 16.0583C17.4797 16.8423 16.8423 17.4797 16.0583 17.8792C15.167 18.3333 14.0002 18.3333 11.6666 18.3333H8.33329C5.99974 18.3333 4.83296 18.3333 3.94167 17.8792C3.15766 17.4797 2.52024 16.8423 2.12077 16.0583C1.66663 15.167 1.66663 14.0002 1.66663 11.6667ZM10.4419 8.72472C10.3247 8.60751 10.1657 8.54167 9.99996 8.54167C9.8342 8.54167 9.67523 8.60751 9.55802 8.72472L7.47468 10.8081C7.23061 11.0521 7.23061 11.4479 7.47468 11.6919C7.71876 11.936 8.11449 11.936 8.35857 11.6919L9.37496 10.6755V14.1667C9.37496 14.5118 9.65478 14.7917 9.99996 14.7917C10.3451 14.7917 10.625 14.5118 10.625 14.1667V10.6755L11.6413 11.6919C11.8854 11.936 12.2812 11.936 12.5252 11.6919C12.7693 11.4479 12.7693 11.0521 12.5252 10.8081L10.4419 8.72472Z" fill="white"/>
</svg>
