<svg width="20" height="20" viewBox="0 0 20 20" fill="none" xmlns="http://www.w3.org/2000/svg">
<path d="M4.79163 5.8335C4.44645 5.8335 4.16663 6.11332 4.16663 6.4585C4.16663 6.80367 4.44645 7.0835 4.79163 7.0835H8.12496C8.47014 7.0835 8.74996 6.80367 8.74996 6.4585C8.74996 6.11332 8.47014 5.8335 8.12496 5.8335H4.79163Z" fill="white" stroke="#FAFAFA" stroke-width="1.33" stroke-linecap="round" stroke-linejoin="round"/>
<path fill-rule="evenodd" clip-rule="evenodd" d="M17.657 6.66965C17.6051 6.66646 17.5486 6.66649 17.4901 6.66651L17.4754 6.66651H15.1791C13.2862 6.66651 11.6666 8.11323 11.6666 9.99984C11.6666 11.8864 13.2862 13.3332 15.1791 13.3332H17.4754L17.49 13.3332C17.5486 13.3332 17.6051 13.3332 17.657 13.33C18.4258 13.2829 19.1058 12.6987 19.1629 11.8827C19.1667 11.8292 19.1667 11.7715 19.1666 11.718L19.1666 11.7035V8.29614L19.1666 8.28163C19.1667 8.22817 19.1667 8.17049 19.1629 8.11699C19.1058 7.301 18.4258 6.71679 17.657 6.66965ZM14.9754 10.8887C15.4628 10.8887 15.8578 10.4907 15.8578 9.99983C15.8578 9.50891 15.4628 9.11094 14.9754 9.11094C14.4881 9.11094 14.0931 9.50891 14.0931 9.99983C14.0931 10.4907 14.4881 10.8887 14.9754 10.8887Z" fill="white"/>
<path opacity="0.5" d="M17.6161 6.66794C17.6161 5.68409 17.5804 4.62873 16.9514 3.87215C16.8907 3.79911 16.8261 3.7282 16.7573 3.65937C16.1336 3.03573 15.3428 2.75897 14.3658 2.62761C13.4165 2.49998 12.2035 2.49999 10.672 2.5H8.91128C7.37982 2.49999 6.16678 2.49998 5.21744 2.62761C4.24042 2.75897 3.44963 3.03573 2.826 3.65937C2.20236 4.28301 1.9256 5.0738 1.79424 6.05082C1.6666 7.00016 1.66661 8.21318 1.66663 9.74464V9.83868C1.66661 11.3701 1.6666 12.5832 1.79424 13.5325C1.9256 14.5095 2.20236 15.3003 2.826 15.924C3.44963 16.5476 4.24042 16.8244 5.21744 16.9557C6.16678 17.0834 7.3798 17.0833 8.91125 17.0833H10.672C12.2034 17.0833 13.4165 17.0834 14.3658 16.9557C15.3428 16.8244 16.1336 16.5476 16.7573 15.924C16.9277 15.7535 17.0724 15.5703 17.1955 15.3738C17.5709 14.7743 17.6161 14.0394 17.6161 13.3321C17.576 13.3334 17.5336 13.3333 17.4901 13.3333L15.1791 13.3333C13.2862 13.3333 11.6666 11.8866 11.6666 10C11.6666 8.11339 13.2862 6.66667 15.1791 6.66667L17.4901 6.66667C17.5336 6.66665 17.5759 6.66664 17.6161 6.66794Z" fill="white"/>
</svg>
