<svg width="20" height="20" viewBox="0 0 20 20" fill="none" xmlns="http://www.w3.org/2000/svg">
<path opacity="0.5" d="M9.99941 1.66669C13.9278 1.66669 15.892 1.66669 17.1124 2.88708C17.7436 3.51832 18.0483 4.34855 18.1954 5.54667V8.33335H1.80338V5.54667C1.95049 4.34855 2.25522 3.51832 2.88646 2.88708C4.10685 1.66669 6.07104 1.66669 9.99941 1.66669Z" fill="#A1A5B3"/>
<path fill-rule="evenodd" clip-rule="evenodd" d="M1.66666 11.6667C1.66666 9.33311 1.66666 8.16634 2.1208 7.27504C2.52027 6.49103 3.15769 5.85361 3.9417 5.45414C4.83299 5 5.99977 5 8.33332 5H11.6667C14.0002 5 15.167 5 16.0583 5.45414C16.8423 5.85361 17.4797 6.49103 17.8792 7.27504C18.3333 8.16634 18.3333 9.33311 18.3333 11.6667C18.3333 14.0002 18.3333 15.167 17.8792 16.0583C17.4797 16.8423 16.8423 17.4797 16.0583 17.8792C15.167 18.3333 14.0002 18.3333 11.6667 18.3333H8.33332C5.99977 18.3333 4.83299 18.3333 3.9417 17.8792C3.15769 17.4797 2.52027 16.8423 2.1208 16.0583C1.66666 15.167 1.66666 14.0002 1.66666 11.6667ZM10.4419 8.72472C10.3247 8.60751 10.1658 8.54167 9.99999 8.54167C9.83423 8.54167 9.67526 8.60751 9.55805 8.72472L7.47471 10.8081C7.23064 11.0521 7.23064 11.4479 7.47471 11.6919C7.71879 11.936 8.11452 11.936 8.3586 11.6919L9.37499 10.6755V14.1667C9.37499 14.5118 9.65481 14.7917 9.99999 14.7917C10.3452 14.7917 10.625 14.5118 10.625 14.1667V10.6755L11.6414 11.6919C11.8855 11.936 12.2812 11.936 12.5253 11.6919C12.7693 11.4479 12.7693 11.0521 12.5253 10.8081L10.4419 8.72472Z" fill="#A1A5B3"/>
</svg>
