<svg width="16" height="17" viewBox="0 0 16 17" fill="none" xmlns="http://www.w3.org/2000/svg">
<path d="M7 14C7 14.1326 6.94732 14.2598 6.85355 14.3536C6.75979 14.4473 6.63261 14.5 6.5 14.5H3C2.73478 14.5 2.48043 14.3946 2.29289 14.2071C2.10536 14.0196 2 13.7652 2 13.5V3.5C2 3.23478 2.10536 2.98043 2.29289 2.79289C2.48043 2.60536 2.73478 2.5 3 2.5H6.5C6.63261 2.5 6.75979 2.55268 6.85355 2.64645C6.94732 2.74021 7 2.86739 7 3C7 3.13261 6.94732 3.25979 6.85355 3.35355C6.75979 3.44732 6.63261 3.5 6.5 3.5H3V13.5H6.5C6.63261 13.5 6.75979 13.5527 6.85355 13.6464C6.94732 13.7402 7 13.8674 7 14ZM13.8538 8.14625L11.3538 5.64625C11.2599 5.55243 11.1327 5.49972 11 5.49972C10.8673 5.49972 10.7401 5.55243 10.6463 5.64625C10.5524 5.74007 10.4997 5.86732 10.4997 6C10.4997 6.13268 10.5524 6.25993 10.6463 6.35375L12.2931 8H6.5C6.36739 8 6.24022 8.05268 6.14645 8.14645C6.05268 8.24021 6 8.36739 6 8.5C6 8.63261 6.05268 8.75979 6.14645 8.85355C6.24022 8.94732 6.36739 9 6.5 9H12.2931L10.6463 10.6462C10.5524 10.7401 10.4997 10.8673 10.4997 11C10.4997 11.1327 10.5524 11.2599 10.6463 11.3538C10.7401 11.4476 10.8673 11.5003 11 11.5003C11.1327 11.5003 11.2599 11.4476 11.3538 11.3538L13.8538 8.85375C13.9002 8.80731 13.9371 8.75217 13.9623 8.69147C13.9874 8.63077 14.0004 8.56571 14.0004 8.5C14.0004 8.43429 13.9874 8.36923 13.9623 8.30853C13.9371 8.24783 13.9002 8.19269 13.8538 8.14625Z" fill="#343330"/>
</svg>
