<svg width="32" height="33" viewBox="0 0 32 33" fill="none" xmlns="http://www.w3.org/2000/svg">
<path fill-rule="evenodd" clip-rule="evenodd" d="M13.3284 5.8335H18.6716C23.7092 5.8335 26.228 5.8335 27.793 7.39559C28.9645 8.56494 29.259 10.2678 29.3331 13.1594C29.3426 13.5301 29.0383 13.8264 28.6789 13.9204C27.5323 14.2203 26.6863 15.2616 26.6863 16.5002C26.6863 17.7387 27.5323 18.7801 28.6789 19.0799C29.0383 19.1739 29.3426 19.4702 29.3331 19.8409C29.259 22.7325 28.9645 24.4354 27.793 25.6047C26.228 27.1668 23.7092 27.1668 18.6716 27.1668H13.3284C8.29075 27.1668 5.77194 27.1668 4.20696 25.6047C3.03544 24.4354 2.7409 22.7325 2.66684 19.8409C2.65735 19.4702 2.96157 19.1739 3.32097 19.0799C4.46761 18.7801 5.31357 17.7387 5.31357 16.5002C5.31357 15.2616 4.46761 14.2203 3.32097 13.9204C2.96157 13.8264 2.65735 13.5301 2.66684 13.1594C2.7409 10.2678 3.03544 8.56494 4.20696 7.39559C5.77194 5.8335 8.29075 5.8335 13.3284 5.8335ZM17.2721 14.0987L17.1408 13.8635C16.6332 12.9546 16.3794 12.5002 16 12.5002C15.6205 12.5002 15.3667 12.9546 14.8591 13.8635L14.7278 14.0987C14.5836 14.3569 14.5114 14.4861 14.399 14.5713C14.2865 14.6565 14.1465 14.6881 13.8664 14.7514L13.6114 14.809C12.6257 15.0316 12.1328 15.1429 12.0156 15.5193C11.8983 15.8956 12.2343 16.2878 12.9063 17.0721L13.0801 17.2751C13.2711 17.4979 13.3666 17.6094 13.4095 17.7472C13.4525 17.8851 13.438 18.0338 13.4092 18.3312L13.3829 18.6019C13.2813 19.6484 13.2305 20.1716 13.5375 20.4043C13.8444 20.6369 14.3059 20.4248 15.2288 20.0006L15.4676 19.8909C15.7298 19.7704 15.861 19.7101 16 19.7101C16.139 19.7101 16.2701 19.7704 16.5323 19.8909L16.7711 20.0006C17.694 20.4248 18.1555 20.6369 18.4624 20.4043C18.7694 20.1716 18.7186 19.6484 18.617 18.6019L18.5907 18.3312C18.5619 18.0338 18.5474 17.8851 18.5904 17.7472C18.6333 17.6094 18.7288 17.4979 18.9198 17.2751L19.0936 17.0721C19.7656 16.2878 20.1016 15.8956 19.9843 15.5193C19.8671 15.1429 19.3742 15.0316 18.3886 14.809L18.1335 14.7514C17.8534 14.6881 17.7134 14.6565 17.6009 14.5713C17.4885 14.4861 17.4164 14.3569 17.2721 14.0987Z" fill="#1D1D1D"/>
</svg>
