<svg width="60" height="61" viewBox="0 0 60 61" fill="none" xmlns="http://www.w3.org/2000/svg">
<rect width="60" height="60" transform="translate(0 0.5)" fill="#FAFDD4"/>
<path fill-rule="evenodd" clip-rule="evenodd" d="M42.1346 25.1714C42.059 25.1666 41.9768 25.1666 41.8915 25.1667L41.8702 25.1667H38.5256C35.7687 25.1667 33.4097 27.3368 33.4097 30.1667C33.4097 32.9966 35.7687 35.1667 38.5256 35.1667H41.8702L41.8915 35.1667C41.9768 35.1667 42.059 35.1667 42.1346 35.162C43.2544 35.0913 44.2448 34.2149 44.328 32.991C44.3335 32.9107 44.3335 32.8242 44.3334 32.744L44.3334 32.7222V27.6111L44.3334 27.5894C44.3335 27.5092 44.3335 27.4227 44.328 27.3424C44.2448 26.1184 43.2544 25.2421 42.1346 25.1714ZM38.229 31.5C38.9387 31.5 39.5141 30.903 39.5141 30.1667C39.5141 29.4303 38.9387 28.8333 38.229 28.8333C37.5192 28.8333 36.9438 29.4303 36.9438 30.1667C36.9438 30.903 37.5192 31.5 38.229 31.5Z" fill="#AC9D16"/>
<path fill-rule="evenodd" clip-rule="evenodd" d="M41.8906 37.1667C42.0894 37.1615 42.2399 37.3457 42.186 37.5371C41.9183 38.487 41.4935 39.2966 40.8118 39.9783C39.8139 40.9762 38.5487 41.419 36.9854 41.6292C35.4665 41.8334 33.5256 41.8334 31.0753 41.8333H28.2582C25.8079 41.8334 23.867 41.8334 22.3481 41.6292C20.7848 41.419 19.5196 40.9762 18.5217 39.9783C17.5239 38.9805 17.0811 37.7153 16.8709 36.152C16.6667 34.6331 16.6667 32.6922 16.6667 30.2419V30.0914C16.6667 27.6411 16.6667 25.7003 16.8709 24.1813C17.0811 22.6181 17.5239 21.3528 18.5217 20.355C19.5196 19.3572 20.7848 18.9144 22.3481 18.7042C23.867 18.5 25.8078 18.5 28.2582 18.5L31.0753 18.5C33.5257 18.5 35.4665 18.5 36.9854 18.7042C38.5487 18.9144 39.8139 19.3572 40.8118 20.355C41.4935 21.0367 41.9183 21.8463 42.1859 22.7962C42.2399 22.9877 42.0894 23.1718 41.8906 23.1667L38.5254 23.1667C34.7432 23.1667 31.4096 26.1545 31.4096 30.1667C31.4096 34.1788 34.7432 37.1667 38.5254 37.1667L41.8906 37.1667ZM21.6667 23.8333C21.1145 23.8333 20.6667 24.281 20.6667 24.8333C20.6667 25.3856 21.1145 25.8333 21.6667 25.8333H27.0001C27.5524 25.8333 28.0001 25.3856 28.0001 24.8333C28.0001 24.281 27.5524 23.8333 27.0001 23.8333H21.6667Z" fill="#AC9D16"/>
</svg>
