<svg width="20" height="20" viewBox="0 0 20 20" fill="none" xmlns="http://www.w3.org/2000/svg">
<path opacity="0.5" d="M2.5 8.68054C2.5 6.01588 2.5 4.68356 2.8146 4.23533C3.12919 3.78711 4.38194 3.35829 6.88743 2.50065L7.36477 2.33725C8.67082 1.89019 9.32384 1.66666 10 1.66666C10.6762 1.66666 11.3292 1.89019 12.6352 2.33725L13.1126 2.50065C15.6181 3.35829 16.8708 3.78711 17.1854 4.23533C17.5 4.68356 17.5 6.01588 17.5 8.68054V9.99279C17.5 14.6912 13.9675 16.9712 11.7512 17.9394C11.15 18.202 10.8494 18.3333 10 18.3333C9.15062 18.3333 8.85001 18.202 8.2488 17.9394C6.03247 16.9712 2.5 14.6912 2.5 9.99279V8.68054Z" fill="#A1A5B3"/>
<path d="M11.6667 7.50001C11.6667 8.42048 10.9205 9.16668 9.99999 9.16668C9.07952 9.16668 8.33332 8.42048 8.33332 7.50001C8.33332 6.57954 9.07952 5.83334 9.99999 5.83334C10.9205 5.83334 11.6667 6.57954 11.6667 7.50001Z" fill="#A1A5B3"/>
<path d="M9.99999 14.1667C13.3333 14.1667 13.3333 13.4205 13.3333 12.5C13.3333 11.5795 11.8409 10.8333 9.99999 10.8333C8.15904 10.8333 6.66666 11.5795 6.66666 12.5C6.66666 13.4205 6.66666 14.1667 9.99999 14.1667Z" fill="#A1A5B3"/>
</svg>
