<svg width="16" height="17" viewBox="0 0 16 17" fill="none" xmlns="http://www.w3.org/2000/svg">
<path d="M14.3784 13.7813L14.3784 13.7813L14.3792 13.7827C14.4098 13.8325 14.43 13.8879 14.4388 13.9456C14.4476 14.0034 14.4447 14.0623 14.4303 14.119C14.416 14.1756 14.3904 14.2288 14.3552 14.2754C14.3199 14.322 14.2757 14.361 14.2251 14.3902C14.1745 14.4195 14.1186 14.4382 14.0606 14.4455C14.0026 14.4528 13.9438 14.4483 13.8876 14.4325C13.8313 14.4166 13.7788 14.3897 13.7332 14.3532C13.6875 14.3167 13.6497 14.2715 13.6218 14.2202L13.6218 14.2202L13.621 14.2187C12.4325 12.1648 10.3309 10.9375 7.99999 10.9375C5.66905 10.9375 3.56743 12.1648 2.37901 14.2187L2.37899 14.2187L2.37819 14.2202C2.35031 14.2715 2.31243 14.3167 2.26678 14.3532C2.22114 14.3897 2.16865 14.4166 2.11242 14.4325C2.05619 14.4483 1.99735 14.4528 1.93938 14.4455C1.88141 14.4382 1.82548 14.4195 1.77489 14.3902C1.7243 14.361 1.68007 14.322 1.64482 14.2754C1.60957 14.2288 1.58401 14.1756 1.56964 14.119C1.55528 14.0623 1.5524 14.0034 1.56118 13.9456C1.56996 13.8879 1.59022 13.8325 1.62076 13.7827L1.62078 13.7827L1.62159 13.7813C2.5659 12.1481 4.02053 10.9783 5.7175 10.4244L5.84836 10.3817L5.73008 10.3113C4.89507 9.8142 4.24632 9.05676 3.88346 8.15528C3.52059 7.25379 3.46368 6.25812 3.72146 5.32117C3.97924 4.38421 4.53745 3.55778 5.31038 2.96878C6.08331 2.37978 7.02822 2.06079 7.99999 2.06079C8.97176 2.06079 9.91666 2.37978 10.6896 2.96878C11.4625 3.55778 12.0207 4.38421 12.2785 5.32117C12.5363 6.25812 12.4794 7.25379 12.1165 8.15528C11.7537 9.05676 11.1049 9.8142 10.2699 10.3113L10.1517 10.3817L10.2824 10.4244C11.9794 10.9789 13.4341 12.1487 14.3784 13.7813ZM4.43749 6.49999V6.50006C4.4385 7.44456 4.81415 8.3501 5.48202 9.01796C6.14988 9.68583 7.05541 10.0615 7.99992 10.0625H7.99999C8.70458 10.0625 9.39336 9.85355 9.97921 9.4621C10.5651 9.07065 11.0217 8.51426 11.2913 7.8633C11.5609 7.21234 11.6315 6.49604 11.494 5.80498C11.3566 5.11392 11.0173 4.47915 10.5191 3.98092C10.0208 3.4827 9.38605 3.1434 8.695 3.00594C8.00394 2.86848 7.28764 2.93903 6.63668 3.20867C5.98572 3.47831 5.42933 3.93492 5.03788 4.52077C4.64642 5.10662 4.43749 5.7954 4.43749 6.49999Z" fill="#343330" stroke="#0A0A0A" stroke-width="0.125"/>
</svg>
