<svg width="60" height="61" viewBox="0 0 60 61" fill="none" xmlns="http://www.w3.org/2000/svg">
<rect width="60" height="60" transform="translate(0 0.5)" fill="#E1F7E3"/>
<path fill-rule="evenodd" clip-rule="evenodd" d="M27.3284 19.8335H32.6716C37.7092 19.8335 40.228 19.8335 41.793 21.3956C42.9645 22.5649 43.259 24.2678 43.3331 27.1594C43.3426 27.5301 43.0383 27.8264 42.6789 27.9204C41.5323 28.2203 40.6863 29.2616 40.6863 30.5002C40.6863 31.7387 41.5323 32.7801 42.6789 33.0799C43.0383 33.1739 43.3426 33.4702 43.3331 33.8409C43.259 36.7325 42.9645 38.4354 41.793 39.6047C40.228 41.1668 37.7092 41.1668 32.6716 41.1668H27.3284C22.2907 41.1668 19.7719 41.1668 18.207 39.6047C17.0354 38.4354 16.7409 36.7325 16.6668 33.8409C16.6573 33.4702 16.9616 33.1739 17.321 33.0799C18.4676 32.7801 19.3136 31.7387 19.3136 30.5002C19.3136 29.2616 18.4676 28.2203 17.321 27.9204C16.9616 27.8264 16.6573 27.5301 16.6668 27.1594C16.7409 24.2678 17.0354 22.5649 18.207 21.3956C19.7719 19.8335 22.2907 19.8335 27.3284 19.8335ZM31.2721 28.0987L31.1408 27.8635C30.6332 26.9546 30.3794 26.5002 30 26.5002C29.6205 26.5002 29.3667 26.9546 28.8591 27.8635L28.7278 28.0987C28.5836 28.3569 28.5114 28.4861 28.399 28.5713C28.2865 28.6565 28.1465 28.6881 27.8664 28.7514L27.6114 28.809C26.6257 29.0316 26.1328 29.1429 26.0156 29.5193C25.8983 29.8956 26.2343 30.2878 26.9063 31.0721L27.0801 31.2751C27.2711 31.4979 27.3666 31.6094 27.4095 31.7472C27.4525 31.8851 27.438 32.0338 27.4092 32.3312L27.3829 32.6019C27.2813 33.6484 27.2305 34.1716 27.5375 34.4043C27.8444 34.6369 28.3059 34.4248 29.2288 34.0006L29.4676 33.8909C29.7298 33.7704 29.861 33.7101 30 33.7101C30.139 33.7101 30.2701 33.7704 30.5323 33.8909L30.7711 34.0006C31.694 34.4248 32.1555 34.6369 32.4624 34.4043C32.7694 34.1716 32.7186 33.6484 32.617 32.6019L32.5907 32.3312C32.5619 32.0338 32.5474 31.8851 32.5904 31.7472C32.6333 31.6094 32.7288 31.4979 32.9198 31.2751L33.0936 31.0721C33.7656 30.2878 34.1016 29.8956 33.9843 29.5193C33.8671 29.1429 33.3742 29.0316 32.3886 28.809L32.1335 28.7514C31.8534 28.6881 31.7134 28.6565 31.6009 28.5713C31.4885 28.4861 31.4164 28.3569 31.2721 28.0987Z" fill="#03A900"/>
</svg>
