<svg width="60" height="60" viewBox="0 0 60 60" fill="none" xmlns="http://www.w3.org/2000/svg">
<rect width="60" height="60" fill="#1D2026" fill-opacity="0.1"/>
<path d="M16.6667 20.6667C16.6667 19.4096 16.6667 18.781 17.0572 18.3905C17.4477 18 18.0763 18 19.3333 18H40.6667C41.9237 18 42.5523 18 42.9428 18.3905C43.3333 18.781 43.3333 19.4096 43.3333 20.6667C43.3333 21.9237 43.3333 22.5523 42.9428 22.9428C42.5523 23.3333 41.9237 23.3333 40.6667 23.3333H19.3333C18.0763 23.3333 17.4477 23.3333 17.0572 22.9428C16.6667 22.5523 16.6667 21.9237 16.6667 20.6667Z" fill="#1D1D1D"/>
<path fill-rule="evenodd" clip-rule="evenodd" d="M40.7586 25.3333C40.9468 25.3333 41.1402 25.3334 41.3333 25.3307V31.3332C41.3333 36.3615 41.3333 38.8757 39.7712 40.4378C38.2091 41.9999 35.695 41.9999 30.6667 41.9999H29.3333C24.305 41.9999 21.7909 41.9999 20.2288 40.4378C18.6667 38.8757 18.6667 36.3615 18.6667 31.3332V25.3307C18.8598 25.3334 19.0533 25.3333 19.2415 25.3333H40.7586ZM33.9994 30.2541C34.4113 30.6219 34.4471 31.2541 34.0793 31.666L29.3174 36.9994C29.1277 37.2119 28.8563 37.3334 28.5714 37.3334C28.2866 37.3334 28.0152 37.2119 27.8255 36.9994L25.9207 34.866C25.5529 34.4541 25.5887 33.8219 26.0007 33.4541C26.4126 33.0863 27.0448 33.122 27.4126 33.534L28.5714 34.8319L32.5874 30.334C32.9552 29.922 33.5874 29.8863 33.9994 30.2541Z" fill="#1D1D1D"/>
</svg>
