<svg width="20" height="20" viewBox="0 0 20 20" fill="none" xmlns="http://www.w3.org/2000/svg">
<path opacity="0.5" d="M5.18506 3.83422C5.55553 3.58668 5.94452 3.37199 6.34757 3.19149C7.4908 2.67951 8.06242 2.42352 8.82287 2.91619C9.58333 3.40886 9.58333 4.21703 9.58333 5.83336V7.08336C9.58333 8.65471 9.58333 9.44038 10.0715 9.92854C10.5596 10.4167 11.3453 10.4167 12.9167 10.4167H14.1667C15.783 10.4167 16.5912 10.4167 17.0838 11.1771C17.5765 11.9376 17.3205 12.5092 16.8085 13.6524C16.628 14.0555 16.4133 14.4445 16.1658 14.815C15.2959 16.1168 14.0595 17.1315 12.6129 17.7307C11.1663 18.3299 9.57454 18.4867 8.03886 18.1812C6.50318 17.8758 5.09256 17.1218 3.9854 16.0146C2.87823 14.9075 2.12424 13.4968 1.81878 11.9612C1.51331 10.4255 1.67009 8.8337 2.26928 7.38711C2.86847 5.94053 3.88317 4.70412 5.18506 3.83422Z" fill="#A1A5B3"/>
<path d="M17.8717 5.89082C17.1952 4.17357 15.8264 2.8048 14.1092 2.1283C12.8245 1.62222 11.6667 2.78595 11.6667 4.16666V7.49999C11.6667 7.96023 12.0398 8.33333 12.5 8.33333H15.8333C17.214 8.33333 18.3778 7.17544 17.8717 5.89082Z" fill="#1D2026"/>
</svg>
