<svg width="16" height="16" viewBox="0 0 16 16" fill="none" xmlns="http://www.w3.org/2000/svg">
<path d="M2 6.94411C2 4.81239 2 3.74653 2.25168 3.38795C2.50335 3.02937 3.50555 2.68631 5.50994 2.0002L5.89182 1.86949C6.93666 1.51183 7.45907 1.33301 8 1.33301C8.54093 1.33301 9.06335 1.51183 10.1082 1.86949L10.4901 2.0002C12.4945 2.68631 13.4966 3.02937 13.7483 3.38795C14 3.74653 14 4.81239 14 6.94411C14 7.26611 14 7.61529 14 7.99391C14 11.7526 11.174 13.5767 9.40096 14.3512C8.91999 14.5613 8.67951 14.6663 8 14.6663C7.32049 14.6663 7.08001 14.5613 6.59904 14.3512C4.82597 13.5767 2 11.7526 2 7.99391C2 7.61529 2 7.26611 2 6.94411Z" stroke="#525252" stroke-width="1.5"/>
<path d="M8 5.33301V7.99967" stroke="#525252" stroke-width="1.5" stroke-linecap="round"/>
<circle cx="7.99998" cy="9.99967" r="0.666667" fill="#525252"/>
</svg>
