<svg width="60" height="60" viewBox="0 0 60 60" fill="none" xmlns="http://www.w3.org/2000/svg">
<rect width="60" height="60" fill="#FFEEE8"/>
<path d="M22.8717 16.1768C22.601 15.6954 21.9913 15.5245 21.5099 15.7952C21.0285 16.0659 20.8577 16.6755 21.1283 17.157L28.8528 30.8958L25.243 37.3162C24.4675 35.5596 22.7103 34.3335 20.6667 34.3335C17.9052 34.3335 15.6667 36.5721 15.6667 39.3335C15.6667 42.095 17.9052 44.3335 20.6667 44.3335C22.5638 44.3335 24.2142 43.2769 25.0614 41.7201L30 32.9363L34.9386 41.72C35.7858 43.2769 37.4362 44.3335 39.3333 44.3335C42.0948 44.3335 44.3333 42.095 44.3333 39.3335C44.3333 36.5721 42.0948 34.3335 39.3333 34.3335C37.2897 34.3335 35.5325 35.5596 34.757 37.3162L31.1472 30.8958L38.8717 17.157C39.1423 16.6755 38.9715 16.0659 38.4901 15.7952C38.0087 15.5245 37.399 15.6954 37.1283 16.1768L30 28.8553L22.8717 16.1768Z" fill="#DC2626"/>
</svg>
