<svg width="48" height="48" viewBox="0 0 48 48" fill="none" xmlns="http://www.w3.org/2000/svg">
<rect x="0.5" y="0.5" width="47" height="47" rx="23.5" fill="#F5F7FA"/>
<rect x="0.5" y="0.5" width="47" height="47" rx="23.5" stroke="#3FAAE0"/>
<path d="M23.9999 8C19.534 8 15.9033 11.408 15.9033 15.6C15.9033 19.7121 19.3295 23.0401 23.7954 23.1841C23.9317 23.1681 24.0681 23.1681 24.1704 23.1841C24.2045 23.1841 24.2215 23.1841 24.2556 23.1841C24.2726 23.1841 24.2726 23.1841 24.2897 23.1841C28.6533 23.0401 32.0795 19.7121 32.0965 15.6C32.0965 11.408 28.4658 8 23.9999 8Z" fill="#3FAAE0"/>
<path d="M32.6591 27.4403C27.9034 24.4642 20.1477 24.4642 15.358 27.4403C13.1932 28.8003 12 30.6403 12 32.6083C12 34.5763 13.1932 36.4003 15.3409 37.7443C17.7273 39.2483 20.8636 40.0003 24 40.0003C27.1364 40.0003 30.2727 39.2483 32.6591 37.7443C34.8068 36.3843 36 34.5603 36 32.5763C35.983 30.6083 34.8068 28.7843 32.6591 27.4403Z" fill="#3FAAE0"/>
</svg>
