<svg width="16" height="16" viewBox="0 0 16 16" fill="none" xmlns="http://www.w3.org/2000/svg">
<path d="M13.9834 7.87687L13.2444 8.00467V8.00467L13.9834 7.87687ZM13.5131 5.15703L12.7741 5.28483V5.28483L13.5131 5.15703ZM4.62518 2.34894L3.87797 2.28434L4.62518 2.34894ZM4.08374 8.61072L4.83095 8.67533L4.08374 8.61072ZM9.32997 12.5194L10.0701 12.3981V12.3981L9.32997 12.5194ZM8.88818 9.82301L9.62832 9.70174V9.70174L8.88818 9.82301ZM4.46543 9.54867L3.97584 10.1168L3.97584 10.1168L4.46543 9.54867ZM5.42459 10.3752L5.91418 9.80704L5.91418 9.80704L5.42459 10.3752ZM7.01204 12.8112L6.28606 12.9995V12.9995L7.01204 12.8112ZM7.32917 14.0337L8.05515 13.8454L8.05515 13.8454L7.32917 14.0337ZM8.44506 14.6241L8.21567 13.91L8.21567 13.91L8.44506 14.6241ZM8.54171 14.593L8.7711 15.3071L8.7711 15.3071L8.54171 14.593ZM6.57463 11.6919L7.23617 11.3385L6.57463 11.6919ZM9.26979 13.8353L8.54381 13.647V13.647L9.26979 13.8353ZM7.7828 14.5787L7.45722 15.2544V15.2544L7.7828 14.5787ZM2.64773 1.68651L1.90052 1.6219H1.90052L2.64773 1.68651ZM2 9.17753L2.74721 9.24213C2.71261 9.64228 2.36893 9.94414 1.96767 9.92683C1.5664 9.90951 1.25 9.57916 1.25 9.17753H2ZM13.2444 8.00467L12.7741 5.28483L14.2521 5.02922L14.7225 7.74906L13.2444 8.00467ZM8.82998 2.08366H5.7309V0.58366H8.82998V2.08366ZM5.37239 2.41356L4.83095 8.67533L3.33653 8.54611L3.87797 2.28434L5.37239 2.41356ZM12.7741 5.28483C12.458 3.45738 10.8059 2.08366 8.82998 2.08366V0.58366C11.4958 0.58366 13.805 2.44408 14.2521 5.02922L12.7741 5.28483ZM8.58984 12.6406L8.14805 9.94427L9.62832 9.70174L10.0701 12.3981L8.58984 12.6406ZM4.95502 8.98051L5.91418 9.80704L4.93499 10.9434L3.97584 10.1168L4.95502 8.98051ZM7.73801 12.6228L8.05515 13.8454L6.6032 14.2221L6.28606 12.9995L7.73801 12.6228ZM8.21567 13.91L8.31232 13.879L8.7711 15.3071L8.67445 15.3381L8.21567 13.91ZM7.23617 11.3385C7.45337 11.7452 7.6221 12.176 7.73801 12.6228L6.28606 12.9995C6.20016 12.6683 6.07492 12.3482 5.9131 12.0453L7.23617 11.3385ZM8.31232 13.879C8.43817 13.8386 8.51845 13.7448 8.54381 13.647L9.99576 14.0236C9.83647 14.6377 9.36754 15.1155 8.7711 15.3071L8.31232 13.879ZM8.05515 13.8454C8.05946 13.862 8.07411 13.8866 8.10838 13.9031L7.45722 15.2544C7.03849 15.0526 6.72173 14.679 6.6032 14.2221L8.05515 13.8454ZM8.10838 13.9031C8.14023 13.9184 8.17975 13.9216 8.21567 13.91L8.67445 15.3381C8.27386 15.4668 7.83692 15.4373 7.45722 15.2544L8.10838 13.9031ZM9.43579 8.42753H12.8899V9.92753H9.43579V8.42753ZM3.39494 1.75112L2.74721 9.24213L1.25279 9.11292L1.90052 1.6219L3.39494 1.75112ZM2.75 1.6585V9.17753H1.25V1.6585H2.75ZM1.90052 1.6219C1.87913 1.86933 2.0741 2.08366 2.32447 2.08366V0.58366C2.95533 0.58366 3.44915 1.1242 3.39494 1.75112L1.90052 1.6219ZM10.0701 12.3981C10.1588 12.9392 10.1334 13.4929 9.99576 14.0236L8.54381 13.647C8.62905 13.3184 8.64472 12.9756 8.58984 12.6406L10.0701 12.3981ZM5.7309 2.08366C5.54491 2.08366 5.38859 2.22622 5.37239 2.41356L3.87797 2.28434C3.9611 1.32295 4.76517 0.58366 5.7309 0.58366V2.08366ZM5.91418 9.80704C6.37152 10.2011 6.89029 10.691 7.23617 11.3385L5.9131 12.0453C5.70518 11.656 5.3677 11.3162 4.93499 10.9434L5.91418 9.80704ZM14.7225 7.74906C14.9191 8.88588 14.0448 9.92753 12.8899 9.92753V8.42753C13.1122 8.42753 13.2828 8.22649 13.2444 8.00467L14.7225 7.74906ZM2.32447 2.08366C2.56029 2.08366 2.75 1.89251 2.75 1.6585H1.25C1.25 1.06568 1.73025 0.58366 2.32447 0.58366V2.08366ZM8.14805 9.94427C8.018 9.15052 8.62984 8.42753 9.43579 8.42753V9.92753C9.55708 9.92753 9.64754 9.81908 9.62832 9.70174L8.14805 9.94427ZM4.83095 8.67533C4.82092 8.79136 4.86725 8.90488 4.95502 8.98051L3.97584 10.1168C3.52272 9.72637 3.28501 9.14189 3.33653 8.54611L4.83095 8.67533Z" fill="#525252"/>
</svg>
