<svg width="16" height="16" viewBox="0 0 16 16" fill="none" xmlns="http://www.w3.org/2000/svg">
<path d="M10.6667 2.66699C12.1167 2.67506 12.902 2.73936 13.4142 3.25162C14 3.83741 14 4.78022 14 6.66583V10.6658C14 12.5515 14 13.4943 13.4142 14.08C12.8284 14.6658 11.8856 14.6658 10 14.6658H6C4.11438 14.6658 3.17157 14.6658 2.58579 14.08C2 13.4943 2 12.5515 2 10.6658V6.66583C2 4.78022 2 3.83741 2.58579 3.25162C3.09804 2.73936 3.88332 2.67506 5.33333 2.66699" stroke="#525252" stroke-width="1.5"/>
<path d="M5.33331 2.33301C5.33331 1.78072 5.78103 1.33301 6.33331 1.33301H9.66665C10.2189 1.33301 10.6666 1.78072 10.6666 2.33301V2.99967C10.6666 3.55196 10.2189 3.99967 9.66665 3.99967H6.33331C5.78103 3.99967 5.33331 3.55196 5.33331 2.99967V2.33301Z" stroke="#525252" stroke-width="1.5"/>
<path d="M9.66666 7.33303L6.33334 10.6664M6.33333 7.33302L9.66665 10.6663" stroke="#525252" stroke-width="1.5" stroke-linecap="round"/>
</svg>
