<svg width="60" height="61" viewBox="0 0 60 61" fill="none" xmlns="http://www.w3.org/2000/svg">
<rect width="60" height="60" transform="translate(0 0.5)" fill="#1D1D1D" fill-opacity="0.1"/>
<path fill-rule="evenodd" clip-rule="evenodd" d="M18.6194 19.1191C16.6667 21.0717 16.6667 24.2144 16.6667 30.4998C16.6667 36.7852 16.6667 39.9279 18.6194 41.8805C20.572 43.8332 23.7147 43.8332 30.0001 43.8332C36.2855 43.8332 39.4282 43.8332 41.3808 41.8805C43.3334 39.9279 43.3334 36.7852 43.3334 30.4998C43.3334 24.2144 43.3334 21.0717 41.3808 19.1191C39.4282 17.1665 36.2855 17.1665 30.0001 17.1665C23.7147 17.1665 20.572 17.1665 18.6194 19.1191ZM32.3334 27.8332C32.3334 28.3855 32.7811 28.8332 33.3334 28.8332H34.2525L31.5691 31.5166C31.4389 31.6468 31.2279 31.6468 31.0977 31.5166L28.9833 29.4022C28.0721 28.491 26.5947 28.491 25.6835 29.4022L22.6263 32.4594C22.2358 32.8499 22.2358 33.4831 22.6263 33.8736C23.0168 34.2641 23.65 34.2641 24.0405 33.8736L27.0977 30.8164C27.2279 30.6862 27.4389 30.6862 27.5691 30.8164L29.6835 32.9308C30.5947 33.842 32.0721 33.842 32.9833 32.9308L35.6667 30.2474V31.1665C35.6667 31.7188 36.1145 32.1665 36.6667 32.1665C37.219 32.1665 37.6667 31.7188 37.6667 31.1665V27.8332C37.6667 27.2809 37.219 26.8332 36.6667 26.8332H33.3334C32.7811 26.8332 32.3334 27.2809 32.3334 27.8332Z" fill="#1D1D1D"/>
</svg>
