<svg width="20" height="20" viewBox="0 0 20 20" fill="none" xmlns="http://www.w3.org/2000/svg">
<path opacity="0.5" d="M2.5 8.33335C2.5 5.19066 2.5 3.61931 3.47631 2.643C4.45262 1.66669 6.02397 1.66669 9.16667 1.66669H10.8333C13.976 1.66669 15.5474 1.66669 16.5237 2.643C17.5 3.61931 17.5 5.19066 17.5 8.33335V11.6667C17.5 14.8094 17.5 16.3807 16.5237 17.357C15.5474 18.3334 13.976 18.3334 10.8333 18.3334H9.16667C6.02397 18.3334 4.45262 18.3334 3.47631 17.357C2.5 16.3807 2.5 14.8094 2.5 11.6667V8.33335Z" fill="#A1A5B3"/>
<path d="M13.7657 13.7511C13.9116 13.6373 14.0438 13.5051 14.3084 13.2405L17.6062 9.94269C17.6859 9.86296 17.6495 9.72563 17.5429 9.68867C17.1537 9.55362 16.6473 9.30006 16.1736 8.82638C15.6999 8.3527 15.4464 7.84632 15.3113 7.45705C15.2744 7.35053 15.137 7.31404 15.0573 7.39377L11.7595 10.6916L11.7595 10.6916C11.4949 10.9561 11.3627 11.0884 11.2489 11.2342C11.1147 11.4063 10.9997 11.5924 10.9058 11.7894C10.8263 11.9563 10.7671 12.1338 10.6488 12.4887L10.4959 12.9473L10.2529 13.6765L10.025 14.3602C9.96674 14.5349 10.0122 14.7274 10.1424 14.8576C10.2726 14.9878 10.4651 15.0332 10.6398 14.975L11.3235 14.7471L12.0527 14.504L12.5113 14.3512L12.5113 14.3512C12.8662 14.2329 13.0437 14.1737 13.2106 14.0942C13.4076 14.0003 13.5937 13.8853 13.7657 13.7511Z" fill="#A1A5B3"/>
<path d="M18.6388 8.91013C19.3426 8.20627 19.3426 7.06508 18.6388 6.36121C17.9349 5.65735 16.7937 5.65735 16.0898 6.36121L15.9838 6.46723C15.8815 6.56954 15.8352 6.71245 15.8607 6.85486C15.8768 6.94445 15.9066 7.07542 15.9608 7.23171C16.0693 7.54426 16.274 7.95455 16.6597 8.34025C17.0454 8.72594 17.4557 8.93072 17.7683 9.03915C17.9246 9.09337 18.0555 9.12318 18.1451 9.13926C18.2875 9.16482 18.4304 9.11846 18.5327 9.01616L18.6388 8.91013Z" fill="#A1A5B3"/>
<path fill-rule="evenodd" clip-rule="evenodd" d="M6.04166 7.5C6.04166 7.15482 6.32148 6.875 6.66666 6.875H12.0833C12.4285 6.875 12.7083 7.15482 12.7083 7.5C12.7083 7.84518 12.4285 8.125 12.0833 8.125H6.66666C6.32148 8.125 6.04166 7.84518 6.04166 7.5ZM6.04166 10.8333C6.04166 10.4882 6.32148 10.2083 6.66666 10.2083H9.16666C9.51183 10.2083 9.79166 10.4882 9.79166 10.8333C9.79166 11.1785 9.51183 11.4583 9.16666 11.4583H6.66666C6.32148 11.4583 6.04166 11.1785 6.04166 10.8333ZM6.04166 14.1667C6.04166 13.8215 6.32148 13.5417 6.66666 13.5417H7.91666C8.26183 13.5417 8.54166 13.8215 8.54166 14.1667C8.54166 14.5118 8.26183 14.7917 7.91666 14.7917H6.66666C6.32148 14.7917 6.04166 14.5118 6.04166 14.1667Z" fill="#A1A5B3"/>
</svg>
