<svg width="60" height="60" viewBox="0 0 60 60" fill="none" xmlns="http://www.w3.org/2000/svg">
<rect width="60" height="60" fill="#F9FAFB"/>
<path d="M20.931 18.3989C21.734 16.6667 24.4893 16.6667 30 16.6667C35.5107 16.6667 38.2661 16.6667 39.069 18.3989C39.138 18.5478 39.1963 18.7025 39.2431 18.8615C39.7886 20.7111 37.8403 22.8548 33.9436 27.1423L33.9436 27.1423L31.3334 30L33.9436 32.8577C37.8403 37.1452 39.7886 39.289 39.2431 41.1386C39.1963 41.2975 39.138 41.4522 39.069 41.6011C38.2661 43.3334 35.5107 43.3334 30 43.3334C24.4893 43.3334 21.734 43.3334 20.931 41.6011C20.862 41.4522 20.8038 41.2975 20.7569 41.1386C20.2114 39.289 22.1598 37.1452 26.0564 32.8577L28.6667 30L26.0564 27.1423C22.1598 22.8548 20.2114 20.7111 20.7569 18.8615C20.8038 18.7025 20.862 18.5478 20.931 18.3989Z" fill="#AC9D16"/>
</svg>
