<svg width="61" height="61" viewBox="0 0 61 61" fill="none" xmlns="http://www.w3.org/2000/svg">
<rect width="60" height="60" transform="translate(0.199951 0.5)" fill="#FAFDD4"/>
<path d="M26.1999 17.1667C22.7066 17.1667 19.8666 20.0067 19.8666 23.5C19.8666 26.9267 22.5466 29.7 26.0399 29.82C26.1466 29.8067 26.2532 29.8067 26.3332 29.82C26.3599 29.82 26.3732 29.82 26.3999 29.82C26.4132 29.82 26.4132 29.82 26.4266 29.82C29.8399 29.7 32.5199 26.9267 32.5332 23.5C32.5332 20.0067 29.6932 17.1667 26.1999 17.1667Z" fill="#AC9D16"/>
<path d="M32.9732 33.3665C29.2532 30.8865 23.1866 30.8865 19.4399 33.3665C17.7466 34.4999 16.8132 36.0332 16.8132 37.6732C16.8132 39.3132 17.7466 40.8332 19.4266 41.9532C21.2932 43.2065 23.7466 43.8332 26.1999 43.8332C28.6532 43.8332 31.1066 43.2065 32.9732 41.9532C34.6532 40.8199 35.5866 39.2999 35.5866 37.6465C35.5732 36.0065 34.6532 34.4865 32.9732 33.3665Z" fill="#AC9D16"/>
<path d="M40.8533 24.2868C41.0666 26.8735 39.2266 29.1402 36.68 29.4468C36.6666 29.4468 36.6666 29.4468 36.6533 29.4468H36.6133C36.5333 29.4468 36.4533 29.4468 36.3866 29.4735C35.0933 29.5402 33.9066 29.1268 33.0133 28.3668C34.3866 27.1402 35.1733 25.3002 35.0133 23.3002C34.92 22.2202 34.5466 21.2335 33.9866 20.3935C34.4933 20.1402 35.08 19.9802 35.68 19.9268C38.2933 19.7002 40.6266 21.6468 40.8533 24.2868Z" fill="#AC9D16"/>
<path d="M43.5199 36.6199C43.4133 37.9132 42.5866 39.0332 41.1999 39.7932C39.8666 40.5265 38.1866 40.8732 36.5199 40.8332C37.4799 39.9665 38.0399 38.8865 38.1466 37.7399C38.2799 36.0865 37.4933 34.4999 35.9199 33.2332C35.0266 32.5265 33.9866 31.9665 32.8533 31.5532C35.7999 30.6999 39.5066 31.2732 41.7866 33.1132C43.0133 34.0999 43.6399 35.3399 43.5199 36.6199Z" fill="#AC9D16"/>
</svg>
