<svg width="61" height="61" viewBox="0 0 61 61" fill="none" xmlns="http://www.w3.org/2000/svg">
<rect width="60" height="60" transform="translate(0.599976 0.5)" fill="#DC2626" fill-opacity="0.1"/>
<path d="M26.5999 17.1667C23.1066 17.1667 20.2666 20.0067 20.2666 23.5C20.2666 26.9267 22.9466 29.7 26.4399 29.82C26.5466 29.8067 26.6533 29.8067 26.7333 29.82C26.7599 29.82 26.7733 29.82 26.7999 29.82C26.8133 29.82 26.8133 29.82 26.8266 29.82C30.2399 29.7 32.9199 26.9267 32.9333 23.5C32.9333 20.0067 30.0933 17.1667 26.5999 17.1667Z" fill="#DC2626"/>
<path d="M33.3733 33.3665C29.6533 30.8865 23.5866 30.8865 19.8399 33.3665C18.1466 34.4999 17.2133 36.0332 17.2133 37.6732C17.2133 39.3132 18.1466 40.8332 19.8266 41.9532C21.6933 43.2065 24.1466 43.8332 26.5999 43.8332C29.0533 43.8332 31.5066 43.2065 33.3733 41.9532C35.0533 40.8199 35.9866 39.2999 35.9866 37.6465C35.9733 36.0065 35.0533 34.4865 33.3733 33.3665Z" fill="#DC2626"/>
<path d="M41.2533 24.2868C41.4667 26.8735 39.6267 29.1402 37.08 29.4468C37.0667 29.4468 37.0667 29.4468 37.0533 29.4468H37.0133C36.9333 29.4468 36.8533 29.4468 36.7867 29.4735C35.4933 29.5402 34.3067 29.1268 33.4133 28.3668C34.7867 27.1402 35.5733 25.3002 35.4133 23.3002C35.32 22.2202 34.9467 21.2335 34.3867 20.3935C34.8933 20.1402 35.48 19.9802 36.08 19.9268C38.6933 19.7002 41.0267 21.6468 41.2533 24.2868Z" fill="#DC2626"/>
<path d="M43.92 36.6199C43.8133 37.9132 42.9866 39.0332 41.6 39.7932C40.2666 40.5265 38.5866 40.8732 36.92 40.8332C37.88 39.9665 38.44 38.8865 38.5466 37.7399C38.68 36.0865 37.8933 34.4999 36.32 33.2332C35.4266 32.5265 34.3866 31.9665 33.2533 31.5532C36.2 30.6999 39.9066 31.2732 42.1866 33.1132C43.4133 34.0999 44.04 35.3399 43.92 36.6199Z" fill="#DC2626"/>
</svg>
