<svg width="20" height="20" viewBox="0 0 20 20" fill="none" xmlns="http://www.w3.org/2000/svg">
<path d="M4.79166 5.83331C4.44648 5.83331 4.16666 6.11314 4.16666 6.45831C4.16666 6.80349 4.44648 7.08331 4.79166 7.08331H8.12499C8.47017 7.08331 8.74999 6.80349 8.74999 6.45831C8.74999 6.11314 8.47017 5.83331 8.12499 5.83331H4.79166Z" fill="#A1A5B3" stroke="#1D2026" stroke-width="1.33" stroke-linecap="round" stroke-linejoin="round"/>
<path fill-rule="evenodd" clip-rule="evenodd" d="M17.657 6.66983C17.6051 6.66665 17.5487 6.66667 17.4901 6.66669L17.4755 6.66669H15.1791C13.2863 6.66669 11.6667 8.11341 11.6667 10C11.6667 11.8866 13.2863 13.3333 15.1791 13.3333H17.4755L17.4901 13.3334C17.5487 13.3334 17.6051 13.3334 17.657 13.3302C18.4259 13.2831 19.1058 12.6989 19.163 11.8829C19.1667 11.8294 19.1667 11.7717 19.1667 11.7182L19.1666 11.7037V8.29632L19.1667 8.28181C19.1667 8.22835 19.1667 8.17068 19.163 8.11717C19.1058 7.30118 18.4259 6.71697 17.657 6.66983ZM14.9755 10.8889C15.4628 10.8889 15.8578 10.4909 15.8578 10C15.8578 9.50909 15.4628 9.11113 14.9755 9.11113C14.4882 9.11113 14.0931 9.50909 14.0931 10C14.0931 10.4909 14.4882 10.8889 14.9755 10.8889Z" fill="#A1A5B3"/>
<path opacity="0.5" d="M17.6162 6.66794C17.6162 5.68409 17.5804 4.62873 16.9515 3.87215C16.8908 3.79911 16.8261 3.7282 16.7573 3.65937C16.1337 3.03573 15.3429 2.75897 14.3658 2.62761C13.4165 2.49998 12.2035 2.49999 10.672 2.5H8.91131C7.37985 2.49999 6.16681 2.49998 5.21747 2.62761C4.24045 2.75897 3.44966 3.03573 2.82603 3.65937C2.20239 4.28301 1.92563 5.0738 1.79427 6.05082C1.66663 7.00016 1.66664 8.21318 1.66666 9.74464V9.83868C1.66664 11.3701 1.66663 12.5832 1.79427 13.5325C1.92563 14.5095 2.20239 15.3003 2.82603 15.924C3.44966 16.5476 4.24045 16.8244 5.21747 16.9557C6.16681 17.0834 7.37983 17.0833 8.91128 17.0833H10.672C12.2035 17.0833 13.4165 17.0834 14.3658 16.9557C15.3429 16.8244 16.1337 16.5476 16.7573 15.924C16.9277 15.7535 17.0725 15.5703 17.1955 15.3738C17.5709 14.7743 17.6162 14.0394 17.6162 13.3321C17.576 13.3334 17.5336 13.3333 17.4901 13.3333L15.1791 13.3333C13.2863 13.3333 11.6667 11.8866 11.6667 10C11.6667 8.11339 13.2863 6.66667 15.1791 6.66667L17.4901 6.66667C17.5336 6.66665 17.576 6.66664 17.6162 6.66794Z" fill="#A1A5B3"/>
</svg>
