<svg width="60" height="61" viewBox="0 0 60 61" fill="none" xmlns="http://www.w3.org/2000/svg">
<rect width="60" height="60" transform="translate(0 0.5)" fill="#1D1D1D" fill-opacity="0.1"/>
<path fill-rule="evenodd" clip-rule="evenodd" d="M30 43.8337C37.3638 43.8337 43.3333 37.8641 43.3333 30.5003C43.3333 23.1365 37.3638 17.167 30 17.167C22.6362 17.167 16.6666 23.1365 16.6666 30.5003C16.6666 37.8641 22.6362 43.8337 30 43.8337ZM27 26.5003C27 25.948 27.4477 25.5003 28 25.5003H34C34.5522 25.5003 35 25.948 35 26.5003V32.5003C35 33.0526 34.5522 33.5003 34 33.5003C33.4477 33.5003 33 33.0526 33 32.5003V28.9145L26.7071 35.2074C26.3165 35.598 25.6834 35.598 25.2929 35.2074C24.9023 34.8169 24.9023 34.1837 25.2929 33.7932L31.5857 27.5003H28C27.4477 27.5003 27 27.0526 27 26.5003Z" fill="#1D1D1D"/>
</svg>
