<svg width="16" height="16" viewBox="0 0 16 16" fill="none" xmlns="http://www.w3.org/2000/svg">
<g clip-path="url(#clip0_1310_9106)">
<path d="M10.6667 2.66699C12.1167 2.67506 12.902 2.73936 13.4142 3.25162C14 3.83741 14 4.78022 14 6.66583V10.6658C14 12.5515 14 13.4943 13.4142 14.08C12.8284 14.6658 11.8856 14.6658 10 14.6658H6C4.11438 14.6658 3.17157 14.6658 2.58579 14.08C2 13.4943 2 12.5515 2 10.6658V6.66583C2 4.78022 2 3.83741 2.58579 3.25162C3.09804 2.73936 3.88332 2.67506 5.33333 2.66699" stroke="#525252" stroke-width="1.5"/>
<path d="M5.33337 2.3335C5.33337 1.78121 5.78109 1.3335 6.33337 1.3335H9.66671C10.219 1.3335 10.6667 1.78121 10.6667 2.3335V3.00016C10.6667 3.55245 10.219 4.00016 9.66671 4.00016H6.33337C5.78109 4.00016 5.33337 3.55245 5.33337 3.00016V2.3335Z" stroke="#525252" stroke-width="1.5"/>
<path d="M9.66672 7.33352L6.3334 10.6668M6.33339 7.33351L9.66671 10.6668" stroke="#525252" stroke-width="1.5" stroke-linecap="round"/>
</g>
<defs>
<clipPath id="clip0_1310_9106">
<rect y="0.000244141" width="16" height="16" rx="5" fill="white"/>
</clipPath>
</defs>
</svg>
